<svg id="Capa_1" data-name="Capa 1" xmlns="http://www.w3.org/2000/svg" viewBox="0 0 50 50"><defs><style>.cls-1{fill:#fff;}</style></defs><g id="email"><path class="cls-1" d="M25,49.92H5.11A4.72,4.72,0,0,1,0,44.84q0-9.56,0-19.13c0-.32-.17-.77.19-.95s.61.22.88.41c6.38,4.6,12.8,9.16,19.13,13.85a8.16,8.16,0,0,0,9.3.11l12-8.66L49.12,25c.2-.15.4-.41.68-.26s.18.46.18.71c0,6.63,0,13.26,0,19.9a4.62,4.62,0,0,1-4.79,4.56Z"/><path class="cls-1" d="M25,9.41h-14c-1.5,0-1.5,0-1.5,1.54V26.1c0,.33.16.77-.2,1s-.63-.2-.9-.39C5.79,24.83,3.26,23,.71,21.13A1.53,1.53,0,0,1,0,19.75a4.72,4.72,0,0,1,1.9-4c.68-.53,1.35-1.09,2.06-1.58a1.61,1.61,0,0,0,.74-1.54c0-1,0-2,0-3A4.69,4.69,0,0,1,9.58,4.67c2.13,0,4.27,0,6.4,0a2.77,2.77,0,0,0,1.84-.62c1.19-1,2.42-1.86,3.67-2.74a5.59,5.59,0,0,1,7.05,0c1.24.89,2.49,1.78,3.7,2.72a2.77,2.77,0,0,0,1.83.61c2.11,0,4.21,0,6.32,0a4.7,4.7,0,0,1,4.92,4.89c0,1.12,0,2.25,0,3.37a1.21,1.21,0,0,0,.54,1.1c.74.54,1.46,1.12,2.19,1.69a4.78,4.78,0,0,1,2,4.12,1.43,1.43,0,0,1-.63,1.24c-2.6,1.88-5.18,3.77-7.77,5.65-.25.17-.5.51-.83.32s-.19-.57-.19-.87c0-5.2,0-10.39,0-15.58,0-1.14,0-1.19-1.17-1.19Z"/><path class="cls-1" d="M25.08,15.58h7.44c1.21,0,1.79.48,1.84,1.47s-.65,1.63-1.81,1.67-2.48,0-3.72,0H18.19a7.48,7.48,0,0,1-1,0A1.58,1.58,0,0,1,15.65,17c.06-.9.64-1.43,1.73-1.44,2.56,0,5.13,0,7.7,0Z"/><path class="cls-1" d="M25,21.82h7.34a2.47,2.47,0,0,1,1.26.24,1.45,1.45,0,0,1,.76,1.36,1.35,1.35,0,0,1-.76,1.27,2.75,2.75,0,0,1-1.33.29H17.75a1.93,1.93,0,0,1-1.93-.89c-.6-1.12.16-2.24,1.57-2.26C19.93,21.8,22.46,21.82,25,21.82Z"/></g></svg>