<svg id="Capa_1" data-name="Capa 1" xmlns="http://www.w3.org/2000/svg" viewBox="0 0 50 50"><defs><style>.cls-1{fill:#fff;}</style></defs><path class="cls-1" d="M50,16.52a39.41,39.41,0,0,1-.64,3.89,26.31,26.31,0,0,1-21,19.87,24.56,24.56,0,0,1-4.27.38H5.14A5,5,0,0,1,0,35.52,25.59,25.59,0,0,1,7.07,17.69a25.84,25.84,0,0,1,15.52-8.1,51.32,51.32,0,0,1,7.94-.2l.16,0a11.67,11.67,0,0,0,.59,23.32,11.61,11.61,0,0,0,11.56-10.3,11.81,11.81,0,0,0-11-13.1h13a5,5,0,0,1,5.12,4,1.27,1.27,0,0,0,.06.18ZM12.91,22.7a6.6,6.6,0,1,0,0,13.19,6.6,6.6,0,0,0,0-13.19Z"/><path class="cls-1" d="M22.64,21.12a8.62,8.62,0,1,1,8.62,8.61A8.59,8.59,0,0,1,22.64,21.12Zm5.47,0A3.16,3.16,0,0,1,34.42,21a2.53,2.53,0,0,0,.07.48,1.49,1.49,0,0,0,2.91,0,3.47,3.47,0,0,0-.08-1.6,6.19,6.19,0,1,0-7.2,7.32,5.63,5.63,0,0,0,1.16.11,1.56,1.56,0,0,0,1.5-1.51,1.62,1.62,0,0,0-1.64-1.53A3.1,3.1,0,0,1,28.11,21.13Z"/><path class="cls-1" d="M12.9,32.85a3.55,3.55,0,1,1,3.56-3.55A3.49,3.49,0,0,1,12.9,32.85Z"/></svg>