<svg id="Capa_1" data-name="Capa 1" xmlns="http://www.w3.org/2000/svg" viewBox="0 0 50 50"><defs><style>.cls-1{fill:#fff;}</style></defs><path class="cls-1" d="M19.52,39.06V29.27c0-1.08,0-1.11-1.14-1.11-1.9,0-3.81,0-5.71,0-.77,0-1.12-.25-1.12-1q0-3.55,0-7.11c0-.7.3-1,1-.95,2,0,4,0,6,0,.75,0,1-.22,1-1a77.63,77.63,0,0,1,.12-7.78A11.81,11.81,0,0,1,22.2,3.8,10.44,10.44,0,0,1,28.83.23a29,29,0,0,1,9,.31c.46.08.65.29.65.74,0,2.14,0,4.27,0,6.41,0,.59-.3.72-.82.73a27,27,0,0,0-4.4.13,4.31,4.31,0,0,0-3.79,4.36c-.08,1.79,0,3.58,0,5.37,0,.69.35.81.93.8,2.14,0,4.27,0,6.41,0,1.27,0,1.31,0,1.13,1.29-.31,2.32-.69,4.63-1,6.94-.1.65-.45.86-1.07.85-1.65,0-3.29,0-4.94,0-1.44,0-1.44,0-1.44,1.41V48.61C29.41,50,29.39,50,28,50h-7.1c-1.37,0-1.37,0-1.37-1.42Z"/></svg>