<?xml version="1.0" encoding="utf-8"?>
<!-- Generator: Adobe Illustrator 26.0.0, SVG Export Plug-In . SVG Version: 6.00 Build 0)  -->
<svg version="1.1" id="Capa_1" xmlns="http://www.w3.org/2000/svg" xmlns:xlink="http://www.w3.org/1999/xlink" x="0px" y="0px"
	 viewBox="0 0 155.9 144.6" style="enable-background:new 0 0 155.9 144.6;" xml:space="preserve">
<style type="text/css">
	.st0{fill:#FFFFFF;}
</style>
<g>
	<path class="st0" d="M60.9,74.8l-0.1-4c0-0.5-0.1-1-0.2-1.5c-0.1-0.2-0.2-0.4-0.2-0.6c0-0.3,0.5-0.6,1.4-0.7
		c0.7-0.1,1.4-0.2,2.2-0.3c0.5,0,0.8,0.1,0.8,0.4c0.6,2.8,1.3,5.6,2.3,8.3c0.1,0.2,0.2,0.3,0.2,0.3c0.1,0,0.1-0.1,0.2-0.2
		c1-2.7,1.8-5.4,2.5-8c0.1-0.2,0.2-0.3,0.4-0.4c0.4-0.1,0.8-0.2,1.2-0.3c0.6-0.1,1.1-0.1,1.7-0.1c0.6,0,0.8,0.1,0.8,0.3
		c0,0,0,0.1-0.1,0.3S74.1,68.7,74,69c0,0.3-0.1,0.7-0.2,1.1c-0.1,1-0.2,2.1-0.2,3.4c0,1.3-0.1,2.6-0.1,3.8v2.2c0,0.7,0,1.5,0.2,2.2
		c0.1,0.2,0.1,0.5,0.2,0.8c0,0.1,0,0.1-0.2,0.2c-0.6,0.4-1.3,0.6-2,0.5c-0.6,0-0.9-0.2-1-0.6c-0.1-0.3-0.1-0.6-0.1-0.9
		c0-0.4,0-1.8,0.1-4c0.1-2.2,0.1-3.9,0.1-4.9s0-1.5-0.2-1.5l0,0c0,0,0,0-0.1,0c-0.1,0.2-0.3,0.4-0.3,0.7c-0.2,0.4-0.5,1.5-1.1,3.2
		c-0.6,1.7-1,3.3-1.4,4.7c-0.4,1.4-0.7,2.2-0.7,2.4c-0.1,0.4-0.5,0.6-0.9,0.6c-0.2,0-0.4-0.1-0.5-0.2c-0.5-2.1-1.3-5.1-2.4-9
		l-0.6-1.9c0-0.1-0.1-0.1-0.1-0.1c0,0-0.1,0-0.2,0.1c-0.1,0.9-0.1,2.8-0.1,5.5c-0.1,1.7,0,3.4,0.3,5.2c0,0,0,0.1,0,0.1
		c0,0.3-0.2,0.5-0.7,0.7c-0.4,0.1-0.8,0.2-1.3,0.2c-0.4,0-0.6-0.1-0.6-0.3c0-0.1,0.1-0.2,0.1-0.3c0.3-1,0.4-2.1,0.4-3.2
		C60.9,78.1,60.9,76.5,60.9,74.8z"/>
	<path class="st0" d="M78.5,73.6c0,0,0-0.1,0-0.1c0-0.1,0-0.1,0-0.2c-0.5-0.8-0.7-1.6-0.7-2.5c0-0.8,0.3-1.5,0.9-2
		c0.6-0.5,1.4-0.8,2.3-0.8c0.4,0,0.7,0.1,1.1,0.2c0.7,0.2,1.1,0.9,1.1,1.6c0,1.1-0.7,2.2-2.2,3.5c0,0,0,0.1,0,0.1
		c0.9,2.1,1.9,4,3.1,5.9c0.2-0.7,0.4-1.4,0.3-2.2c0-0.4-0.1-0.8-0.4-1.2c0,0,0-0.1,0-0.1c0-0.2,0.3-0.3,0.9-0.3
		c0.4-0.1,0.8,0.1,1.1,0.3c0.2,0.3,0.3,0.7,0.3,1c0,1.4-0.4,2.8-1.2,4c0.7,1,1.3,1.5,1.7,1.6c0.1,0,0.2,0.1,0.2,0.3
		c0,0.1-0.1,0.2-0.3,0.3c-0.5,0.2-1,0.4-1.6,0.4c-0.4,0-0.9-0.1-1.3-0.3c-0.1-0.1-0.3-0.3-0.5-0.5c-0.9,0.5-1.9,0.8-2.9,0.8
		c-1.3,0.1-2.6-0.3-3.6-1.1c-1-0.8-1.5-2-1.4-3.3c0-1.9,1-3.7,3-5.3L78.5,73.6z M80.6,81.7c0.6,0,1.2-0.1,1.8-0.4
		c-0.7-1.2-1.4-2.5-2-3.8c-0.7-1.5-1.1-2.3-1.1-2.3c0-0.1-0.1-0.1-0.1-0.1l-0.1,0.1c-0.9,0.9-1.4,2.1-1.3,3.4c0,0.8,0.2,1.6,0.7,2.3
		C79,81.4,79.8,81.8,80.6,81.7z M80.1,71.9c0,0.1,0.1,0.1,0.1,0.1c0.1,0,0.1,0,0.2-0.1c0.6-0.5,0.9-1.1,1-1.9c0-0.2-0.1-0.5-0.2-0.7
		c-0.2-0.2-0.4-0.2-0.6-0.2c-0.3,0-0.5,0.1-0.6,0.3c-0.2,0.3-0.3,0.6-0.2,0.9C79.7,70.9,79.9,71.4,80.1,71.9L80.1,71.9z"/>
	<path class="st0" d="M88.5,79.2l0.2-3.8h-1.5c-0.1,0-0.2,0-0.2-0.1c0-0.3,0.2-0.6,0.4-0.9c0.2-0.3,0.5-0.5,0.8-0.5h0.5
		c0-1.1,0-1.9-0.1-2.4c0-0.7-0.2-1.4-0.4-2l-0.1-0.2C88,69.2,88,69.2,88,69.1c0-0.1,0.1-0.2,0.2-0.3c0.2-0.1,0.5-0.2,0.7-0.3
		c0.6-0.2,1.3-0.3,2-0.4c1.1-0.2,2.2-0.3,3.3-0.3c1.2,0,1.8,0.1,1.9,0.3c0.1,0.2,0.2,0.5,0.2,0.8c0,0.4-0.1,0.5-0.2,0.5h-0.2
		c-0.4-0.1-0.7-0.1-1.1-0.1c-0.5,0-1,0-1.5,0.1c-0.4,0-0.8,0.1-1.3,0.2l-0.4,0.2c-0.1,0-0.2,0.1-0.3,0.3c-0.1,1.2-0.2,2.5-0.2,3.7
		h3.5c0.1,0,0.2,0,0.2,0.1c0,0.3-0.1,0.6-0.3,0.9c-0.2,0.3-0.4,0.5-0.8,0.5h-2.5l0.2,6.4c0,0.2,0,0.5-0.2,0.7
		c-0.4,0.4-0.8,0.7-1.4,0.8c-0.5,0.2-1.1,0.3-1.6,0.3c-0.1,0-0.2-0.1-0.2-0.2c0-0.1,0-0.1,0-0.2C88.4,81.9,88.6,80.6,88.5,79.2z"/>
	<path class="st0" d="M77.9,114H30.5c-2,0-2,0-2,2c0.1,4.8,0.1,9.6,0.2,14.4c0,0.7,0,1.5-0.1,2.2c-0.2,2.1-0.9,2.9-3,3.1
		c-1.9,0.1-3.7,0.2-5.6,0.1c-3,0-6,0-8.9,0s-4.6-1.6-4.7-4.6c0-0.8,0-1.6,0-2.4c-0.1-7.6-0.1-15.2-0.3-22.8
		C5.8,94.9,5.9,83.7,5.9,72.6c0-5.7,2.1-10.8,4.8-15.7c1.1-1.8,2.9-2.9,4.5-4.2c0.5-0.4,1.4-0.6,1.1-1.4c-0.3-0.8-1.1-0.9-1.9-0.9
		c-2,0-4-0.3-6-0.7C7,49.3,5.6,49,4.2,48.6c-2.9-0.8-4.6-3.9-3.7-6.8c0-0.1,0-0.2,0.1-0.2c0.3-1,0.6-2,1.1-2.9c0.5-1.2,1.7-2,3-2
		c2.2,0,4.4-0.2,6.6-0.4c0.5-0.1,1-0.1,1.5,0c2.1,0.3,3,1.5,3.2,3.7c0,2.2-0.1,4.4-0.3,6.5c-0.1,0.8,0.1,0.9,0.9,0.8
		c1-0.2,1.8-0.9,2.1-1.9c2.9-7,5.9-14.1,8.9-21.1c1-2.6,2.3-5.2,3.9-7.5c1.1-1.8,2.9-3.1,5-3.6c0.5-0.1,0.7-0.5,0.9-0.8
		c0.7-1,1.5-2,2.4-2.8c0.8-0.8,2-1.1,3.1-0.7c0.7,0.2,1.4,0.3,2.1,0.3h66.6c0.7,0,1.4,0,2.1-0.3c1.1-0.4,2.3-0.1,3.1,0.7
		c0.9,0.9,1.8,1.9,2.4,2.9c0.2,0.4,0.5,0.7,0.9,0.8c1.8,0.4,3.4,1.4,4.4,3c2.2,2.8,3.4,6,4.7,9.2c2.8,6.5,5.5,13.2,8.3,19.8
		c0.3,1.1,1.2,1.9,2.4,2.1c0.7,0.1,0.8-0.1,0.8-0.7c-0.1-2-0.3-3.9-0.3-5.9c0-3.3,1.4-4.6,4.8-4.4c2.3,0.1,4.6,0.3,6.8,0.4
		c0.6,0,1.1,0.2,1.6,0.6c1.9,1.6,2.9,6.4,1.8,8.5c-0.7,1.5-2,2.5-3.6,2.9c-2.9,0.9-5.9,1.4-9,1.6c-0.4,0-0.7,0-1.1,0.1
		c-0.7,0.1-1.5,0.2-1.8,0.9c-0.2,0.7,0.6,1.1,1.1,1.4c4.6,2.9,6.5,7.5,8.1,12.3c0.9,2.7,1.3,5.4,1.2,8.2c-0.1,7,0.1,13.9-0.1,20.9
		c-0.1,5.5-0.1,10.8-0.2,16.3c-0.1,5.2-0.1,10.5-0.2,15.8c0,2-0.1,4-0.2,6c-0.1,1.7-1.4,3.1-3,3.4c-1.1,0.2-2.3,0.3-3.5,0.2
		c-3.8,0-7.6,0-11.5,0c-0.6,0-1.2-0.1-1.8-0.2c-1.2-0.2-2-1.1-2.2-2.3c-0.1-0.7-0.2-1.5-0.2-2.2c0-5.2,0-10.3,0-15.5
		c0-1.7,0-1.7-1.7-1.7L77.9,114z M78.1,47.2c6.9,0,13.8,0,20.7,0c10.3,0,20.5,0.1,30.8-0.2c1.8,0,2.2-0.5,1.7-2.3
		c-1.8-5.8-3.7-11.6-5.9-17.2c-0.9-2.7-2.2-5.3-3.6-7.8c-0.5-0.8-1.3-1.2-2.2-1.2c-7.3,0-14.6-0.2-21.9-0.2
		c-13.4,0-26.8-0.2-40.2,0.1c-6,0.1-12,0.1-18,0.1c-4.7,0-4.7,0-6.6,4.3c-3.1,7.2-5.8,14.6-8,22.2c-0.4,1.3,0.1,2,1.4,2
		c2.4,0.1,4.9,0.2,7.3,0.2C48.4,47.2,63.2,47.2,78.1,47.2z M78,61.7L78,61.7H46.3c-3.1,0-6.1,0-9.2,0c-0.5,0-1.3-0.1-1.5,0.4
		c-0.3,0.4,0.4,0.9,0.7,1.2c2.2,2.9,4.4,5.8,6.5,8.7c1.1,1.3,1.4,3.2,0.7,4.8c-0.6,1.4-1.2,2.7-1.7,4.1c-0.8,1.7-1.3,3.4-1.6,5.2
		c-0.2,1.5,0.1,1.8,1.6,1.8c4.8,0.1,9.6,0.2,14.4,0.2c13.5,0,27.1,0,40.6,0c5.5,0,10.9-0.1,16.4-0.2c3.2,0,3.5-0.5,2.5-3.5
		c-0.8-2.6-2-5.1-3-7.6c-0.7-1.4-0.5-3.1,0.5-4.4c2.1-2.7,4.2-5.5,6.2-8.3c0.5-0.6,1.5-1.4,1.2-2s-1.5-0.4-2.4-0.4L78,61.7z
		 M78.1,92.4H45.6c-4.4,0-4.4,0-5.3,4.4c-0.7,3.1,0.3,4.4,3.4,4.4h68.6c0.5,0,1,0,1.5-0.1c1.6-0.3,2.1-0.9,2.2-2.5
		c-0.1-1.5-0.4-3-0.9-4.4c-0.3-1.3-1.1-1.8-2.5-1.8C101.1,92.4,89.6,92.4,78.1,92.4z M144.2,63.4c0-1.1-0.2-2.2-0.5-3.3
		c-0.2-0.6-0.5-0.9-1.2-0.8c-4.9,0.9-9.8,1.5-14.8,2.1c-0.8,0.1-1.6,0.6-2,1.3c-2.5,4-4.9,8.1-7.7,11.9c-0.2,0.3-0.7,0.6-0.4,1
		c0.2,0.4,0.7,0.4,1.1,0.4c0.2,0,0.5,0,0.7-0.1l11.7-1.5c3-0.4,6-0.7,9-1.2c1.9-0.1,3.4-1.7,3.5-3.6C143.8,67.6,144,65.5,144.2,63.4
		L144.2,63.4z M37.5,76c0.4,0,0.8-0.1,1.2-0.4c0.3-0.3,0-0.5-0.2-0.7c-2.9-3.9-5.6-8-8-12.2c-0.4-0.8-1.2-1.2-2-1.3
		c-4.7-0.5-9.4-1.1-14.1-1.9c-1.4-0.3-1.7-0.3-2.1,1.5c-0.6,2.7,0,5.4,0.2,8.1c0.2,2.7,1.2,3.9,4,4.4s5.2,0.7,7.8,1L37.5,76z
		 M32.3,86l-0.1-0.1c-3.2-0.2-6.4-0.3-9.6-0.5c-2.8-0.2-5.7-0.3-8.6-0.5c-1.5-0.3-3.1,0.7-3.4,2.2c0,0.1,0,0.2,0,0.3
		c-0.3,2.3-0.5,4.7-0.7,7c-0.1,1.9,0.3,2.3,2.2,2.5c0.3,0,0.7,0,1.1,0c2.5,0.1,4.9,0.3,7.4,0.6c2.8,0.3,5.5,0.8,8.2,1.3
		c-1-0.6-2-1.2-3-1.6c-0.8-0.2-1.2-1-1-1.7c0-0.1,0-0.2,0.1-0.2c0.6-2.2,1-4.4,1.4-6.5c0.1-0.8,0.7-1.3,1.4-1.5
		C29.3,86.8,30.9,86.4,32.3,86z M127.3,98.8c4.4-0.8,8.8-1.4,13.3-1.7c1.5,0,2.9-0.1,4.4-0.4c0.7-0.2,1.3-0.6,1.2-1.5
		c-0.2-2.7-0.3-5.3-0.8-8c-0.2-1.5-1.6-2.6-3.2-2.4c-2.1,0.2-4.2,0.3-6.4,0.4l-12.1,0.7c1.6,0.5,3.1,0.9,4.7,1.3
		c0.7,0.1,1.3,0.7,1.3,1.4c0.4,2.3,0.9,4.6,1.5,6.9c0.2,0.6-0.1,1.3-0.7,1.5c0,0,0,0-0.1,0C129.5,97.6,128.4,98.2,127.3,98.8z
		 M78,13h33.1c0.3,0,0.7,0,1.1,0c0.7,0,0.8-0.3,0.8-1c-0.1-1.1-0.9-1-1.7-1H44.2c-0.4,0-0.7,0.2-0.8,0.6c-0.4,1-0.2,1.4,1.1,1.4
		L78,13z"/>
	<path class="st0" d="M15.8,94.5c-2.2,0-4-1.8-4-4c0,0,0,0,0-0.1c0.1-2.1,1.9-3.8,4-3.8c2.2,0,3.9,1.7,3.9,3.9c0,0,0,0.1,0,0.1
		c0,2.1-1.8,3.8-3.9,3.8C15.8,94.5,15.8,94.5,15.8,94.5z"/>
	<path class="st0" d="M140.3,94.5c-2.1,0-3.9-1.6-3.9-3.8c0,0,0-0.1,0-0.1c0-2.2,1.7-3.9,3.9-3.9c0,0,0.1,0,0.1,0c2.2,0,4,1.8,4,4
		C144.3,92.9,142.5,94.5,140.3,94.5z"/>
</g>
</svg>
