<svg id="Capa_1" data-name="Capa 1" xmlns="http://www.w3.org/2000/svg" viewBox="0 0 500 409.71"><defs><style>.cls-1{fill:#0f56ff;}</style></defs><path d="M210.75,369.55l-.24-9.31a9.93,9.93,0,0,0-.5-3.49,14.36,14.36,0,0,1-.49-1.38c0-.72,1.11-1.28,3.32-1.67a30.83,30.83,0,0,1,5.07-.59c1.17,0,1.8.28,1.9.83q3.09,13.83,5.21,19.2c.17.39.34.59.52.59s.34-.15.47-.44q3.3-9.32,5.81-18.41a1.54,1.54,0,0,1,1-.91,13.76,13.76,0,0,1,2.73-.62,26.74,26.74,0,0,1,3.87-.29c1.27,0,1.91.26,1.91.79,0,0,0,.28-.14.76s-.2,1.06-.3,1.75-.21,1.52-.34,2.51a75.55,75.55,0,0,0-.57,7.8c-.08,2.93-.12,5.88-.12,8.83l.1,5.17a19.07,19.07,0,0,0,.46,5,11,11,0,0,1,.47,1.72c0,.15-.11.32-.34.52a7.29,7.29,0,0,1-4.63,1.23c-1.31,0-2.05-.44-2.21-1.33a11.39,11.39,0,0,1-.15-2.19c0-1,.1-4.07.29-9.23s.3-8.89.3-11.24-.13-3.52-.39-3.52c0,0-.05,0-.05,0s-.05,0-.15.07a5.3,5.3,0,0,0-.76,1.53q-.63,1.47-2.44,7.28c-1.22,3.87-2.31,7.49-3.3,10.85s-1.52,5.18-1.62,5.44a2,2,0,0,1-2.07,1.33,1.44,1.44,0,0,1-1.18-.54q-1.57-7.29-5.61-20.82l-1.38-4.48c-.06-.16-.13-.25-.2-.25s-.27.12-.34.35q-.19,3.19-.2,12.57t.69,11.84a.69.69,0,0,1,.05.29c0,.69-.54,1.19-1.62,1.51a10.78,10.78,0,0,1-2.93.46c-.87,0-1.31-.19-1.31-.59,0,0,.09-.29.25-.79a33,33,0,0,0,1-7.28Q210.76,375.7,210.75,369.55Z"/><path d="M251.26,366.94a.37.37,0,0,0,.09-.25.82.82,0,0,0-.09-.34,12.27,12.27,0,0,1-1.68-5.91,6.07,6.07,0,0,1,2-4.68,7.38,7.38,0,0,1,5.19-1.82,7.24,7.24,0,0,1,2.61.5,3.56,3.56,0,0,1,2.41,3.64q0,3.59-4.92,8.12a.26.26,0,0,0-.1.2,107.4,107.4,0,0,0,7.13,13.68,14.93,14.93,0,0,0,.79-5,4.63,4.63,0,0,0-.84-2.76.58.58,0,0,1-.09-.3c0-.45.67-.68,2-.68s2.23.24,2.64.73a3.7,3.7,0,0,1,.61,2.37,15.64,15.64,0,0,1-2.8,9.15q2.4,3.45,3.83,3.69a.6.6,0,0,1,.47.57c0,.28-.22.51-.71.71a10.42,10.42,0,0,1-3.64,1,4.37,4.37,0,0,1-2.91-.79c-.23-.23-.6-.64-1.13-1.23a12.56,12.56,0,0,1-6.74,1.92,12.91,12.91,0,0,1-8.29-2.59,8.9,8.9,0,0,1-3.28-7.45q0-6.56,6.94-12.11Zm4.82,18.55a8.82,8.82,0,0,0,4.08-.93,88.88,88.88,0,0,1-4.57-8.76c-1.58-3.42-2.41-5.2-2.51-5.37s-.18-.25-.25-.25l-.29.15a10.27,10.27,0,0,0-3,7.83,8.19,8.19,0,0,0,1.65,5.24A5.87,5.87,0,0,0,256.08,385.49ZM255,362.8c.06.2.16.3.29.3a.61.61,0,0,0,.4-.2,6.08,6.08,0,0,0,2.21-4.33,2,2,0,0,0-.54-1.55,2,2,0,0,0-1.45-.52,1.7,1.7,0,0,0-1.45.74,3.61,3.61,0,0,0-.55,2.19A7,7,0,0,0,255,362.8Z"/><path d="M274.29,379.83l.29-8.71h-3.29c-.27,0-.4-.1-.4-.3a3.64,3.64,0,0,1,.84-2,2.3,2.3,0,0,1,1.82-1.15h1c-.06-2.56-.13-4.4-.2-5.52a12.67,12.67,0,0,0-1-4.62l-.25-.49a1,1,0,0,1-.19-.6c0-.22.18-.42.54-.59s.89-.36,1.6-.59a38.52,38.52,0,0,1,4.5-.91,47.33,47.33,0,0,1,7.51-.56c2.7,0,4.18.19,4.43.59a3.62,3.62,0,0,1,.37,1.84c0,.84-.12,1.26-.35,1.26l-.34-.05a10.9,10.9,0,0,0-2.42-.2,22.14,22.14,0,0,0-3.49.3,21,21,0,0,0-2.85.59l-.94.34a.94.94,0,0,0-.59.69,69.1,69.1,0,0,0-.39,8.52h8c.29,0,.44.09.44.29a3.94,3.94,0,0,1-.78,2.07,2.19,2.19,0,0,1-1.78,1.18l-5.85-.05.34,14.76a2.81,2.81,0,0,1-.34,1.58,5.77,5.77,0,0,1-3.18,1.84,14.59,14.59,0,0,1-3.71.62c-.27,0-.4-.16-.4-.49a1.4,1.4,0,0,1,.05-.4C273.7,388.48,274,385.41,274.29,379.83Z"/><path d="M21.08,321.3c.51.39,1,.78,1.57,1.17a4.59,4.59,0,0,1,1.29,1.42.8.8,0,0,0,0,.5,1,1,0,0,0,.22.34l.31.31a.88.88,0,0,1,.23.4,2,2,0,0,1-.07,1,5.6,5.6,0,0,0-.24,1.12,2.62,2.62,0,0,0-.09.56,3.4,3.4,0,0,1-.08.57c-.1.49-.16,1-.21,1.38a3.2,3.2,0,0,0,.17,1.38,5.73,5.73,0,0,0,.6,1.23,2.25,2.25,0,0,0,.88.87.47.47,0,0,0,.28.09.66.66,0,0,1,.28,0,.79.79,0,0,1,.32.31.76.76,0,0,0,.43.31,1.29,1.29,0,0,1,1.07-.15,3.92,3.92,0,0,0,1.18.12.59.59,0,0,0,.31-.09.56.56,0,0,1,.27-.08l1.64-.14a8.19,8.19,0,0,0,1.64-.31,3.55,3.55,0,0,0,.79-.35l.83-.48,1.12-.72a1.39,1.39,0,0,1,1.29-.14,1.85,1.85,0,0,1-.21,1.05,2.53,2.53,0,0,1-.62.69c-.25.19-.51.38-.79.57a2.77,2.77,0,0,0-.69.62,2.9,2.9,0,0,0-1,.46c-.25.2-.54.4-.86.61a3.63,3.63,0,0,1-.53.21,1.28,1.28,0,0,0-.5.24,1.38,1.38,0,0,0-.49.38,2.88,2.88,0,0,1-.45.41,1.57,1.57,0,0,1-.63.22l-.68.12a18.14,18.14,0,0,1-2,.47,14.7,14.7,0,0,1-2.09.24,10.33,10.33,0,0,1-2.08-.1,8.13,8.13,0,0,1-2-.57,2.44,2.44,0,0,1-.84-.54l-.71-.7c-.3-.26-.62-.55-.95-.88a4.9,4.9,0,0,1-.77-1,4.38,4.38,0,0,1-.19-.66c-.06-.25-.12-.51-.19-.76s-.16-.53-.26-.84a2.94,2.94,0,0,1-.16-1,7.7,7.7,0,0,1,.16-1.81c.12-.63.24-1.25.34-1.86a9.84,9.84,0,0,0,.16-1.76,3.12,3.12,0,0,0-.35-1.49,1.36,1.36,0,0,0-.29-.4,3,3,0,0,1-.36-.43,6.3,6.3,0,0,0-.83-.88,2.23,2.23,0,0,0-1.24-.5,6.29,6.29,0,0,0-1.24,0,2,2,0,0,0-1,.29,1.08,1.08,0,0,0-.54.88,8.18,8.18,0,0,1-.19,1.26,7.47,7.47,0,0,1-.46,1.45,2.68,2.68,0,0,0-.19,1.48,6.72,6.72,0,0,0,.21.83,4.93,4.93,0,0,0,.27.76,3.29,3.29,0,0,0,.35.58.54.54,0,0,1,.07.62.66.66,0,0,1-.69.21c-.33,0-.65-.08-1-.1l-1-.05H9a6.64,6.64,0,0,0-.73.07l-.93.12a2.74,2.74,0,0,0-.43.07l-.28.08-.24.1a2.69,2.69,0,0,1-.36.13,1.13,1.13,0,0,0-.38.19,1.4,1.4,0,0,1-.34.18,6.2,6.2,0,0,1-1.28.23c-.46,0-.89.05-1.31.05a7.9,7.9,0,0,1-1.19,0A4.3,4.3,0,0,1,.4,331.3a.65.65,0,0,1,.38-.55,1.48,1.48,0,0,0,.51-.38,5,5,0,0,0,1.81-.78,2.84,2.84,0,0,0,1.33-2.17c0-.24.06-.48.1-.71.12-.59.23-1.2.35-1.82A16.36,16.36,0,0,1,5.33,323a1.34,1.34,0,0,1,.17-.31,1.31,1.31,0,0,0,.17-.31,4.5,4.5,0,0,0,.26-1.22A6.11,6.11,0,0,1,6.15,320c.12-.3.23-.58.35-.85a4.53,4.53,0,0,0,.27-.81c.07-.3.14-.59.19-.86a2.07,2.07,0,0,1,.33-.76c0-.39.09-.76.14-1.1a5.89,5.89,0,0,0,0-1.21,8.38,8.38,0,0,0,.71-.95,2.91,2.91,0,0,0,.43-1.19,1.59,1.59,0,0,0,0-.72,3.55,3.55,0,0,1-.08-.76,12,12,0,0,1,.15-1.6,15.9,15.9,0,0,0,.19-1.61A1.51,1.51,0,0,0,8,306.7a7.3,7.3,0,0,1-1.23-.64,1.41,1.41,0,0,1-.27-.14l-.36-.22a1.37,1.37,0,0,1-.31-.26.39.39,0,0,1-.12-.24.57.57,0,0,1,.29-.4,1.6,1.6,0,0,1,.58-.2,3.07,3.07,0,0,1,.68,0l.58.05L9.5,305c.53.11,1.07.21,1.64.29s1.16.13,1.79.16a18.22,18.22,0,0,0,2.15-.07,6.47,6.47,0,0,0,.78-.12,4,4,0,0,1,.74-.12c.39,0,.78-.07,1.16-.12a4,4,0,0,1,1.15,0,7.93,7.93,0,0,0,1.9,0,6.87,6.87,0,0,1,1.76,0,3.42,3.42,0,0,1,.84.26l.79.4a7,7,0,0,0,.8.36,2.81,2.81,0,0,0,.81.19,6.18,6.18,0,0,1,1.19,1,8.61,8.61,0,0,1,1.05,1.31,11.06,11.06,0,0,1,.72,1.34c.23.51.4.93.52,1.28a2.94,2.94,0,0,1,.21,1.22,6.24,6.24,0,0,1-.18,1.16,8.77,8.77,0,0,1-.69,1.79,12.46,12.46,0,0,1-.91,1.5c-.33.47-.68.94-1,1.41a14.53,14.53,0,0,0-1,1.47,1.76,1.76,0,0,1-.53.12,1.46,1.46,0,0,0-.5.12,1.87,1.87,0,0,0-.66.5,1.43,1.43,0,0,1-.72.46.64.64,0,0,1-.36,0,1.09,1.09,0,0,0-.36,0,3.72,3.72,0,0,0-.71.26A2.76,2.76,0,0,1,21.08,321.3Zm-2-2.93a11.34,11.34,0,0,1,1.21-1.29,4.7,4.7,0,0,0,1-1.4,5.15,5.15,0,0,0,.29-.91l.23-1a5.67,5.67,0,0,0,0-1.83,4.35,4.35,0,0,0-.48-1.41,3.93,3.93,0,0,0-.86-1.07,7,7,0,0,0-1.14-.79c-.32-.19-.65-.39-1-.61a1.5,1.5,0,0,0-1.23-.12,2.29,2.29,0,0,0-.84,1l-.61,1.28a5.11,5.11,0,0,1-.22.48c-.08.16-.14.3-.19.41a2.09,2.09,0,0,0,0,.5,1.64,1.64,0,0,1,0,.54.51.51,0,0,1-.35.33.38.38,0,0,0-.31.32.59.59,0,0,0,.19.44.6.6,0,0,1,.19.46,2.53,2.53,0,0,1-.29.93,3.24,3.24,0,0,0-.33,1.07,6.33,6.33,0,0,1-.22,1c-.11.32-.21.64-.31,1s-.2.65-.28,1a3.47,3.47,0,0,0-.09,1,6.51,6.51,0,0,0,1.49.1,8.14,8.14,0,0,0,1.55-.21,8.24,8.24,0,0,0,1.43-.46A4,4,0,0,0,19.05,318.37Z"/><path d="M47.67,314.37a4.31,4.31,0,0,1-1.87.45c-.62,0-1.31,0-2.06-.07l-.68,0-.67.07a4.54,4.54,0,0,0-2.72,1.23,6.16,6.16,0,0,0-1.62,2.63c-.12.4-.21.75-.28,1.07s.08.51.45.56a2,2,0,0,0,.69,0c.23,0,.46-.11.71-.19l.7-.23a2.35,2.35,0,0,1,.69-.1.48.48,0,0,1,.26.07.59.59,0,0,0,.26.07,3.81,3.81,0,0,0,1.24-.09,2.62,2.62,0,0,1,1.21,0,.76.76,0,0,1,.19.12.72.72,0,0,0,.25.16,4,4,0,0,0,1.07.22,3,3,0,0,1,1,.23.88.88,0,0,1,.35.26.61.61,0,0,1,.17.25c0,.26-.15.42-.45.49a5.76,5.76,0,0,1-.76.13,1.69,1.69,0,0,1-.55,0,1.46,1.46,0,0,0-.55,0,9,9,0,0,0-.93.19l-1,.29a7.85,7.85,0,0,0-1.1.5,2.73,2.73,0,0,1-1.14.36,2.48,2.48,0,0,1-.86,0,3.38,3.38,0,0,0-.9,0,1.73,1.73,0,0,0-.32.11,2.07,2.07,0,0,1-.33.1,3.63,3.63,0,0,1-.47.09.52.52,0,0,0-.24.08,1.39,1.39,0,0,0-.17.21l-.26.41a4.27,4.27,0,0,0-.34,1.33c-.05.47-.09,1-.14,1.5a4.08,4.08,0,0,0,.72.6,2,2,0,0,0,1.07.23,1.67,1.67,0,0,0,.61-.09,2.11,2.11,0,0,1,.6-.12,6.61,6.61,0,0,1,.76,0,4,4,0,0,0,.86,0,8.74,8.74,0,0,0,1.69-.26,5.18,5.18,0,0,1,1.69-.12c.14,0,.38,0,.74,0l1.09.08a8,8,0,0,1,1,.16c.28.07.43.16.43.27a.61.61,0,0,1-.26.43,3.87,3.87,0,0,1-.59.42,4.29,4.29,0,0,1-.65.31l-.43.15a2.48,2.48,0,0,1-1.14.09,4.84,4.84,0,0,0-1.21,0,4.71,4.71,0,0,0-.86.21l-.76.29-.77.31a2.83,2.83,0,0,1-.92.19c-.46,0-.85.1-1.17.16s-.7.13-1.14.22l-.51.16-.52.15a7,7,0,0,1-2.16.09,12.21,12.21,0,0,0-2.49,0c-.58.07-1.09.16-1.54.26a4.15,4.15,0,0,1-1.36.09l-.47-.05a.6.6,0,0,1-.39-.19.84.84,0,0,1,.31-.48,5.31,5.31,0,0,1,.48-.38c.16-.14.32-.28.47-.44l.43-.43a2.47,2.47,0,0,0,.34-.67c.09-.26.18-.53.26-.81a5.83,5.83,0,0,1,.28-.77,2.15,2.15,0,0,1,.39-.64,1.84,1.84,0,0,1,0-1.42c.19-.52.37-1.08.53-1.65A1.22,1.22,0,0,0,32,323a1.12,1.12,0,0,1,.07-.38,1.32,1.32,0,0,1,.31-.61,1.17,1.17,0,0,0,.31-.53,1.37,1.37,0,0,0,0-.35,1,1,0,0,1,0-.34,3.54,3.54,0,0,1,.26-1,4.37,4.37,0,0,0,.25-.85,1.21,1.21,0,0,0,0-.57,2.18,2.18,0,0,1,0-.57,5.68,5.68,0,0,1,.3-1.31,4.42,4.42,0,0,0,.26-1.1,2.29,2.29,0,0,0-.11-.83,3.53,3.53,0,0,0-.27-.69,2.31,2.31,0,0,0-.31-.36l-.42-.36a4,4,0,0,1-.36-.33.43.43,0,0,1-.15-.29c0-.25.12-.39.31-.4a.83.83,0,0,0,.51-.22,12.62,12.62,0,0,1,2.36.27,13.62,13.62,0,0,0,2.33.31,2.91,2.91,0,0,0,.93,0,7.9,7.9,0,0,1,.93-.12,5.24,5.24,0,0,1,1.64.2,5.61,5.61,0,0,0,1.81.18c.81-.05,1.56-.07,2.28-.07s1.46,0,2.24-.07a.92.92,0,0,0,.62.15,8.15,8.15,0,0,0,.84-.07,3.59,3.59,0,0,1,.8,0,.57.57,0,0,1,.5.31.77.77,0,0,1-.07.82,1.31,1.31,0,0,1-.76.45,2.12,2.12,0,0,0-.38,0l-.52.07-.53,0Z"/><path d="M56.35,325.2a10.51,10.51,0,0,0-.77,2.24c-.2.82-.39,1.57-.57,2.24a1.12,1.12,0,0,1-.54.71,2.73,2.73,0,0,1-.87.31l-1,.12a3.6,3.6,0,0,0-.79.13,3.18,3.18,0,0,0-.67.33l-.71.42a5,5,0,0,1-.64.29c-.2.07-.34.06-.43,0s-.1-.3,0-.63a7.15,7.15,0,0,1,.34-1.16c.16-.44.35-.89.57-1.36s.43-.9.64-1.29a3.34,3.34,0,0,0,.27-1.12c0-.47.08-.87.11-1.19a.88.88,0,0,0-.07-.33.53.53,0,0,1,0-.33,1.58,1.58,0,0,1,.23-.45,4.37,4.37,0,0,0,.32-.55,5,5,0,0,0,.3-1.43,4.56,4.56,0,0,1,.26-1.36.92.92,0,0,1,.19-.33,1,1,0,0,0,.22-.84c0-.21,0-.41,0-.59a3.43,3.43,0,0,1,.18-1l.37-1.1a9.14,9.14,0,0,0,.26-1,1.8,1.8,0,0,0-.06-.88,4.33,4.33,0,0,1-.1-.69.3.3,0,0,0-.07-.24c-.11-.12-.15-.19-.12-.23s0-.1-.15-.19l-.33-.29-.4-.29a3.78,3.78,0,0,0-.43-.26.52.52,0,0,1-.26-.43,2.26,2.26,0,0,1,.54-.38,1.21,1.21,0,0,1,.43-.12,1.79,1.79,0,0,1,.45,0,5.53,5.53,0,0,0,.58.09,6.36,6.36,0,0,0,1,0c.31,0,.7,0,1.16,0a8,8,0,0,1,1,.08l1,.16a3.53,3.53,0,0,0,.92,0,2.92,2.92,0,0,1,.84,0,4.63,4.63,0,0,1,.55.16,1.72,1.72,0,0,0,.59.08,7.86,7.86,0,0,0,1.84-.2,4.14,4.14,0,0,1,1.67-.07l.61.17.64.21.46.15.43.16a2.1,2.1,0,0,1,.57.33c.2.15.4.31.61.5l1,.72a1.87,1.87,0,0,1,.67.93c0,.12.11.3.19.55a2.1,2.1,0,0,1,.12.55,1.53,1.53,0,0,1-.24.9,1.33,1.33,0,0,1,.21.91,3.18,3.18,0,0,1-.33,1,5,5,0,0,1-.64,1c-.25.3-.48.55-.69.76a7.18,7.18,0,0,1-1.12.85c-.4.24-.83.47-1.29.7a4.11,4.11,0,0,0-.73.43,3.18,3.18,0,0,1-.65.4c-.12.05-.18.06-.19,0s-.09,0-.23,0a5.28,5.28,0,0,0-1.34.49,5.73,5.73,0,0,1-1.38.51.78.78,0,0,1-.38.06,1.19,1.19,0,0,0-.38,0,5.46,5.46,0,0,0-1,.26,4.55,4.55,0,0,1-1,.26,5.75,5.75,0,0,1-.88.07A2.65,2.65,0,0,0,56.35,325.2ZM58,317.65c-.09.32-.16.64-.22,1s-.12.65-.19,1-.12.44-.22.72a7.55,7.55,0,0,0-.26.81,1.82,1.82,0,0,0-.07.71.47.47,0,0,0,.34.41.52.52,0,0,0,.33,0,1.53,1.53,0,0,1,.36-.11.89.89,0,0,1,.3.06.58.58,0,0,0,.32,0,10.62,10.62,0,0,0,2.36-.45,1.92,1.92,0,0,0,1.37-1.41l.25-.12.3-.12a4.55,4.55,0,0,0,.88-1.52,6.91,6.91,0,0,0,.43-1.76,1.11,1.11,0,0,0-.23-.6,3,3,0,0,1-.29-.5.88.88,0,0,0-.31-.29,4,4,0,0,0-.55-.31,3.9,3.9,0,0,0-.64-.26,4.14,4.14,0,0,0-.5-.14,1.15,1.15,0,0,0-.62,0,2.27,2.27,0,0,1-.59.12,6.6,6.6,0,0,1-.89,0,.92.92,0,0,0-.73.27,3.93,3.93,0,0,1-.43,1.26A6.69,6.69,0,0,0,58,317.65Z"/><path d="M76.14,314.75a5.37,5.37,0,0,0,1.14-1c.32-.39.63-.79.93-1.18a.68.68,0,0,0,.49-.1,1.63,1.63,0,0,1,.44-.21,1.76,1.76,0,0,1,1,0,2.78,2.78,0,0,0,1,.12,3.66,3.66,0,0,0,1.12-.31,3.08,3.08,0,0,1,1.26-.24.76.76,0,0,1,.45.15.81.81,0,0,0,.41.19.58.58,0,0,0,.5-.07,1,1,0,0,1,.5-.13.9.9,0,0,1,.74.31,5.87,5.87,0,0,0,.61.62,4.05,4.05,0,0,1,0,1.55,5.73,5.73,0,0,0-.07,1.55c0,.35.1.68.16,1a6.53,6.53,0,0,1,.08,1,3.86,3.86,0,0,1-.05.95,4.06,4.06,0,0,0,0,1,2.3,2.3,0,0,0,.1.35.57.57,0,0,1,0,.34,1,1,0,0,1-.31.59.76.76,0,0,0-.28.55,1.37,1.37,0,0,0,.22,1,2.29,2.29,0,0,1,.37.94,1,1,0,0,1,0,.44,1.9,1.9,0,0,0-.07.45,9.64,9.64,0,0,0,0,1.69c.06.62.1,1.2.12,1.73a3.51,3.51,0,0,0,0,.55.74.74,0,0,1,0,.45.46.46,0,0,1-.15.27.88.88,0,0,0-.19.24,1.35,1.35,0,0,0,0,.48,4.27,4.27,0,0,1,0,.59,3.59,3.59,0,0,1,0,.47,2,2,0,0,0,0,.39,1.36,1.36,0,0,0,.09.23.28.28,0,0,1,0,.22,1.35,1.35,0,0,1-.46.67,1.1,1.1,0,0,1-.81.33,1.6,1.6,0,0,1-.61-.33,5.09,5.09,0,0,1-.56-.46,1.79,1.79,0,0,1-.38-1,3.4,3.4,0,0,0-.31-1.07,1.27,1.27,0,0,0-.3-.32,1.89,1.89,0,0,1-.32-.37,2.56,2.56,0,0,1-.28-.77,7.35,7.35,0,0,1-.09-.79c0-.27,0-.53,0-.8a3.55,3.55,0,0,0-.17-.81.79.79,0,0,0-.21-.24,1,1,0,0,1-.24-.28,2.07,2.07,0,0,1-.27-.58.66.66,0,0,0-.45-.38c-.81,0-1.62,0-2.43-.07a13.64,13.64,0,0,0-2.4.07,1.69,1.69,0,0,0-.48.12,1.69,1.69,0,0,1-.48.12,1.27,1.27,0,0,1-.28,0,.75.75,0,0,0-.24,0,2,2,0,0,0-.93.43,3.49,3.49,0,0,0-.69.71,1,1,0,0,0-.16.5,1.87,1.87,0,0,1-.12.57,1.35,1.35,0,0,1-.34.5.59.59,0,0,0-.18.57,2.32,2.32,0,0,0-.63.69c-.18.27-.34.55-.5.84a5.7,5.7,0,0,1-.54.81,1.69,1.69,0,0,1-.7.55,1.74,1.74,0,0,0-.33.18.67.67,0,0,1-.33.1c-.11,0-.18-.06-.19-.1s-.09-.12-.22-.21l-.5-.31a5.65,5.65,0,0,1-.57-.38,4.31,4.31,0,0,1-.5-.43,1.71,1.71,0,0,1-.33-.43c-.18-.39-.22-.68-.1-.85s.26-.38.45-.63l.86-1.25c.32-.46.61-.89.86-1.31a7.27,7.27,0,0,0,.36-.65,2.79,2.79,0,0,1,.4-.59,2.21,2.21,0,0,1,.7-.62,1.4,1.4,0,0,0,.61-.62,1,1,0,0,0,.07-.36,1.16,1.16,0,0,1,.07-.4,3.43,3.43,0,0,1,.86-1.24,3.79,3.79,0,0,0,.89-1.24,1,1,0,0,0,.09-.33,1,1,0,0,1,.09-.32,9.37,9.37,0,0,1,1.36-2.28A16.07,16.07,0,0,0,76.14,314.75Zm4.83-.1a3.62,3.62,0,0,0-.71.7,1.8,1.8,0,0,1-.77.61,3.33,3.33,0,0,1-.33.58,1.28,1.28,0,0,1-.5.45,2.15,2.15,0,0,1-.41.95c-.21.26-.4.52-.59.77a2.25,2.25,0,0,0-.24.3l-.24.33a1.27,1.27,0,0,1-.35.25,1.66,1.66,0,0,0-.31.23,5.75,5.75,0,0,0-.44.76,7.38,7.38,0,0,1-.45.79l-.35.34a.45.45,0,0,0-.1.45.56.56,0,0,0,.41.36,3,3,0,0,0,.71.11,6.77,6.77,0,0,0,.78,0l.62,0h1a7.65,7.65,0,0,0,1,0,2.9,2.9,0,0,0,.83-.18A1.27,1.27,0,0,0,81,322a4.79,4.79,0,0,0,.17-2.22c-.11-.75-.22-1.49-.31-2.23a5.69,5.69,0,0,1-.1-.69,4,4,0,0,1,0-.69,1.71,1.71,0,0,1,.22-.67.94.94,0,0,0,.06-.78Z"/><path d="M104,312.47a2.08,2.08,0,0,0,.55.07,2.59,2.59,0,0,1,.55.07.35.35,0,0,1,.21.07.67.67,0,0,0,.21.1.23.23,0,0,0,.2,0,.38.38,0,0,1,.21,0,3,3,0,0,1,1.27.64,7.68,7.68,0,0,1,1,1.05c.14.23.31.5.52.81a4.79,4.79,0,0,1,.51,1,4.27,4.27,0,0,1,.25,1.19,2.63,2.63,0,0,1-.25,1.24,3.69,3.69,0,0,1-.2.43l-.28.53a6.35,6.35,0,0,1-.52.8,1.83,1.83,0,0,1-.65.58l-.47.31a2.43,2.43,0,0,1-.46.28,4.14,4.14,0,0,0-1,.5,4.74,4.74,0,0,1-1,.53,1.06,1.06,0,0,1-.36.09,1.06,1.06,0,0,0-.36.09,1,1,0,0,0-.38.38.81.81,0,0,1-.52.34,3.28,3.28,0,0,1,1.59.95,5.66,5.66,0,0,1,1.1,1.53,3.19,3.19,0,0,0,.48.87,1.18,1.18,0,0,1,.28.86,1.68,1.68,0,0,1,.4.53,4,4,0,0,1,.25.71c.07.25.14.51.19.77a4,4,0,0,0,.23.71,3.36,3.36,0,0,0,.45.74,5.35,5.35,0,0,0,.51.55l.56.55a3,3,0,0,1,.48.75.91.91,0,0,0,.22-.09.43.43,0,0,1,.26,0,4,4,0,0,0,1.16.59,9.24,9.24,0,0,0,1.56.34,6,6,0,0,0,1.5.09,13.47,13.47,0,0,0,1.47-.19,2.51,2.51,0,0,0,.6-.19,7.09,7.09,0,0,1,.73-.26,1.65,1.65,0,0,1,.63-.08c.19,0,.28.13.28.36a1,1,0,0,1-.31.58,3.57,3.57,0,0,1-.55.52,4.72,4.72,0,0,1-1.35.66,12.58,12.58,0,0,1-1.58.39,15.61,15.61,0,0,1-1.69.23c-.58,0-1.12.08-1.62.1A2.46,2.46,0,0,1,110,336a4.79,4.79,0,0,0-.71-.23c-.46-.07-.87-.15-1.22-.24a4.11,4.11,0,0,1-1-.41,2.33,2.33,0,0,1-.72-.68,1.37,1.37,0,0,0-.86-.53l-1.8-1.6a5.65,5.65,0,0,1-1.41-2,6.1,6.1,0,0,0-.38-.6,2.23,2.23,0,0,1-.31-.64,1.47,1.47,0,0,1-.12-.52,4,4,0,0,0-.09-.62,6,6,0,0,0-.2-.81c-.1-.29-.19-.56-.28-.81a1,1,0,0,0-.1-.21.66.66,0,0,1-.11-.2c0-.14-.09-.31-.14-.5a.88.88,0,0,0-.24-.47,2.72,2.72,0,0,0-.57-.31,5.1,5.1,0,0,0-.67-.24,1.68,1.68,0,0,0-.74,0,3.65,3.65,0,0,1-.67.14,3.12,3.12,0,0,1-.86,0,1.37,1.37,0,0,0-.69.05,1.51,1.51,0,0,0-.8.9,5.24,5.24,0,0,0-.38,1.51,8.13,8.13,0,0,1-.41,1.54c-.18.49-.33,1-.45,1.43a1.59,1.59,0,0,1-.45.74,1,1,0,0,1-.86.22l-.43-.05a1.08,1.08,0,0,1-.39-.15,3.6,3.6,0,0,0-.61.33l-.6.36q-1.14.35-1.29-.18a3.31,3.31,0,0,1,.12-1.65,5.9,5.9,0,0,1,.53-1.41,6.21,6.21,0,0,0,.5-1.18,1.85,1.85,0,0,0,0-.56c0-.18,0-.34,0-.5a3.61,3.61,0,0,1,0-.44.59.59,0,0,1,.13-.36,1.25,1.25,0,0,1,.21-.6,1.26,1.26,0,0,0,.24-.6c0-.23.11-.48.17-.73a4,4,0,0,0,.14-.72c0-.28,0-.54,0-.78a2.67,2.67,0,0,1,.23-.84c.11-.3.23-.61.36-.92a4,4,0,0,0,.26-.91c0-.23.07-.47.09-.71a2.14,2.14,0,0,1,.15-.7.77.77,0,0,1,.29-.45.86.86,0,0,0,.3-.45.69.69,0,0,0,0-.38.5.5,0,0,1,0-.34,2.45,2.45,0,0,0,.14-1.09,2.22,2.22,0,0,0-.22-.66,4.19,4.19,0,0,1-.28-.5.93.93,0,0,1,0-.65c.12,0,.22-.12.31-.29a.61.61,0,0,1,.38-.33,3.42,3.42,0,0,1,.52-.05l.83,0h.86l.65,0a2.74,2.74,0,0,0,.69,0l.87-.07h.84a1.51,1.51,0,0,1,.67.13Zm-5.24,8.8a1.13,1.13,0,0,0,.53-.14.64.64,0,0,1,.5-.07,5.46,5.46,0,0,0,.69.1l.76.11a.57.57,0,0,0,.34,0,.92.92,0,0,1,.45,0,5.34,5.34,0,0,1,1-.62,2.22,2.22,0,0,0,.81-.83,6,6,0,0,1,.37-.6,2.43,2.43,0,0,0,.28-.5,1.73,1.73,0,0,0-.07-1.37c-.21-.38-.4-.71-.58-1a2.61,2.61,0,0,0-.66-.74,1.52,1.52,0,0,0-1-.16,8.17,8.17,0,0,1-1.21,0,7.91,7.91,0,0,0-1.19,0,3.49,3.49,0,0,0-1,.2,1.2,1.2,0,0,0-.65.62q-.18.52-.42,1.14c-.16.41-.31.83-.44,1.26a12.35,12.35,0,0,0-.35,1.29,6.35,6.35,0,0,0-.14,1.28,2.81,2.81,0,0,1,1,.05A3.45,3.45,0,0,0,98.73,321.27Z"/><path d="M117.45,314.75a5.63,5.63,0,0,0,1.14-1c.32-.39.63-.79.93-1.18a.66.66,0,0,0,.48-.1,1.85,1.85,0,0,1,.45-.21,1.72,1.72,0,0,1,1,0,2.78,2.78,0,0,0,1,.12,3.72,3.72,0,0,0,1.13-.31,3,3,0,0,1,1.25-.24.76.76,0,0,1,.45.15.88.88,0,0,0,.42.19.59.59,0,0,0,.5-.07,1,1,0,0,1,1.24.18,6.86,6.86,0,0,0,.6.62,3.86,3.86,0,0,1,0,1.55A6.16,6.16,0,0,0,128,316c0,.35.1.68.16,1a5.47,5.47,0,0,1,.09,1,3.89,3.89,0,0,1-.06.95,4.64,4.64,0,0,0-.05,1,2.35,2.35,0,0,0,.11.35.66.66,0,0,1,0,.34,1,1,0,0,1-.31.59.79.79,0,0,0-.27.55,1.32,1.32,0,0,0,.22,1,2.41,2.41,0,0,1,.36.94,1.13,1.13,0,0,1,0,.44,1.5,1.5,0,0,0-.07.45,9.58,9.58,0,0,0,0,1.69c.06.62.1,1.2.13,1.73a2.62,2.62,0,0,0,.05.55.83.83,0,0,1,0,.45.42.42,0,0,1-.16.27.88.88,0,0,0-.19.24,1.63,1.63,0,0,0,0,.48,3.13,3.13,0,0,1,0,.59,3.59,3.59,0,0,1,0,.47,3.22,3.22,0,0,0,0,.39l.09.23a.29.29,0,0,1,0,.22,1.38,1.38,0,0,1-.47.67,1.07,1.07,0,0,1-.81.33,1.58,1.58,0,0,1-.6-.33,5.44,5.44,0,0,1-.57-.46,1.88,1.88,0,0,1-.38-1,3.16,3.16,0,0,0-.31-1.07,1.43,1.43,0,0,0-.29-.32,1.65,1.65,0,0,1-.33-.37,2.56,2.56,0,0,1-.28-.77,7.29,7.29,0,0,1-.08-.79c0-.27,0-.53,0-.8a3.59,3.59,0,0,0-.18-.81.64.64,0,0,0-.2-.24.83.83,0,0,1-.24-.28,2.5,2.5,0,0,1-.28-.58.66.66,0,0,0-.45-.38c-.8,0-1.61,0-2.43-.07a13.56,13.56,0,0,0-2.39.07,1.68,1.68,0,0,0-.49.12,1.69,1.69,0,0,1-.48.12l-.28,0a.75.75,0,0,0-.24,0,2,2,0,0,0-.93.43,3.49,3.49,0,0,0-.69.71,1,1,0,0,0-.15.5,1.87,1.87,0,0,1-.12.57,1.38,1.38,0,0,1-.35.5.57.57,0,0,0-.17.57,2.35,2.35,0,0,0-.64.69c-.17.27-.34.55-.5.84a6.65,6.65,0,0,1-.53.81,1.71,1.71,0,0,1-.71.55,2.11,2.11,0,0,0-.33.18.64.64,0,0,1-.33.1c-.11,0-.17-.06-.18-.1a.59.59,0,0,0-.23-.21c-.14-.09-.3-.2-.5-.31s-.38-.24-.57-.38a5.34,5.34,0,0,1-.5-.43,1.45,1.45,0,0,1-.32-.43c-.19-.39-.22-.68-.11-.85l.45-.63.86-1.25c.32-.46.61-.89.86-1.31.14-.23.26-.44.37-.65a2.74,2.74,0,0,1,.39-.59,2.24,2.24,0,0,1,.71-.62,1.33,1.33,0,0,0,.6-.62.86.86,0,0,0,.07-.36,1.16,1.16,0,0,1,.07-.4,3.43,3.43,0,0,1,.86-1.24,4,4,0,0,0,.9-1.24,1.32,1.32,0,0,0,.08-.33,1.41,1.41,0,0,1,.09-.32,9.7,9.7,0,0,1,1.36-2.28A16.18,16.18,0,0,0,117.45,314.75Zm4.83-.1a3.15,3.15,0,0,0-.71.7,1.82,1.82,0,0,1-.78.61,4.08,4.08,0,0,1-.32.58,1.44,1.44,0,0,1-.5.45,2.16,2.16,0,0,1-.42.95c-.2.26-.4.52-.58.77a1.73,1.73,0,0,0-.25.3,2.69,2.69,0,0,1-.24.33,1.23,1.23,0,0,1-.34.25,1.19,1.19,0,0,0-.31.23,4.76,4.76,0,0,0-.45.76,7.38,7.38,0,0,1-.45.79l-.34.34a.45.45,0,0,0-.11.45.55.55,0,0,0,.42.36,2.85,2.85,0,0,0,.7.11,6.66,6.66,0,0,0,.78,0l.62,0h1a7.79,7.79,0,0,0,1,0,2.9,2.9,0,0,0,.83-.18,1.19,1.19,0,0,0,.56-.41,4.93,4.93,0,0,0,.18-2.22c-.12-.75-.22-1.49-.31-2.23a5.56,5.56,0,0,1-.11-.69,4,4,0,0,1,0-.69,1.73,1.73,0,0,1,.23-.67,1,1,0,0,0,0-.78Z"/><path d="M150,312.41a.73.73,0,0,1-.16.63.93.93,0,0,1-.57.33.39.39,0,0,0,.24.29.35.35,0,0,1,.24.23,1.63,1.63,0,0,1-.91.81,10.89,10.89,0,0,1-1.33.43,5.5,5.5,0,0,1-1.75,0,3.36,3.36,0,0,1-1.11-.4,1.56,1.56,0,0,0-1-.22.68.68,0,0,0-.29.17,1.15,1.15,0,0,1-.33.21,3,3,0,0,1-.84.39,3.78,3.78,0,0,0-.78.33,7.79,7.79,0,0,0-1.48,1.1,9.08,9.08,0,0,1-1.45,1.14c-.18.37-.36.73-.53,1.09s-.35.76-.54,1.22c-.09.21-.19.42-.29.64a3.54,3.54,0,0,0-.23.64c0,.21-.08.46-.12.76a4.79,4.79,0,0,1-.15.82,1.31,1.31,0,0,1-.23.49.72.72,0,0,0-.12.51.79.79,0,0,0,.3.45.85.85,0,0,1,.29.42.36.36,0,0,1,0,.29.61.61,0,0,0,0,.33,2.31,2.31,0,0,0,.6,1.07,7.69,7.69,0,0,1,.78.93,7.51,7.51,0,0,1,1.29.22c.38.1.78.19,1.19.26a9.05,9.05,0,0,1,1.19-.45c.4-.11.83-.25,1.29-.41a3.87,3.87,0,0,0,1-.54,2.33,2.33,0,0,1,1.05-.43.79.79,0,0,1,.24,0,.37.37,0,0,0,.25,0,.87.87,0,0,0,.48-.21c.14-.11.28-.22.43-.32a2.23,2.23,0,0,1,.48-.26,1.08,1.08,0,0,1,.6,0c.23.4.28.7.13.93a2.43,2.43,0,0,1-.64.64,9.89,9.89,0,0,0-.81.64,1.12,1.12,0,0,0-.4.9,7.7,7.7,0,0,1-.76.72,3.92,3.92,0,0,1-1,.62,4.05,4.05,0,0,1-.5.12l-.47.12c-.48.19-.93.38-1.34.59a3.08,3.08,0,0,1-1.55.27,4.4,4.4,0,0,1-1-.1,2.7,2.7,0,0,1-.71-.24,2.38,2.38,0,0,0-.71-.24,3.09,3.09,0,0,0-1,0,2.72,2.72,0,0,1-.9,0,2.8,2.8,0,0,1-.86-.33c-.3-.17-.59-.35-.86-.53l-.85-.47-.77-.43a2.62,2.62,0,0,1-.74-.78,4.39,4.39,0,0,0-.71-.84,4.53,4.53,0,0,1-.14-1.36c0-.45,0-.9,0-1.36A5.92,5.92,0,0,0,131,323a2.75,2.75,0,0,1-.12-1.17,4.47,4.47,0,0,1,.17-.52,2.68,2.68,0,0,0,.14-.59,8.67,8.67,0,0,1,.15-.87,3.19,3.19,0,0,1,.29-.78,3.72,3.72,0,0,1,.33-.45c.13-.14.26-.27.38-.41a2.36,2.36,0,0,0,.33-.45,1.52,1.52,0,0,0,.17-.62,1.54,1.54,0,0,1,.5-.42,1,1,0,0,0,.47-.41.63.63,0,0,0,.1-.34.58.58,0,0,1,.14-.35,2.47,2.47,0,0,1,.52-.45l.58-.41c.46-.25.94-.49,1.45-.71a6.79,6.79,0,0,0,1.41-.81,2.74,2.74,0,0,0,.81-.12,7.51,7.51,0,0,0,.76-.27l.74-.31a3.67,3.67,0,0,1,.8-.23,7.18,7.18,0,0,1,.82,0,6.28,6.28,0,0,0,.87,0l1.25,0a6.12,6.12,0,0,1,1.16,0,1.48,1.48,0,0,1,.48.15,1.17,1.17,0,0,0,.52.12,1.31,1.31,0,0,0,.5-.1,2.51,2.51,0,0,1,.5-.14,9.44,9.44,0,0,1,1.41,0Z"/><path d="M149.51,328.71a2.85,2.85,0,0,1,.54-1.43,5,5,0,0,0,.7-1.32,4.21,4.21,0,0,0,.19-.95c0-.34.06-.67.07-1a8.26,8.26,0,0,1,.09-1,5.71,5.71,0,0,1,.24-1,1.19,1.19,0,0,1-.14-.68,6.91,6.91,0,0,0,0-.8,2.17,2.17,0,0,0,.27-.55.63.63,0,0,1,.49-.41,3.76,3.76,0,0,0,.34-1.57,8.85,8.85,0,0,1,.17-1.67.8.8,0,0,1,.14-.31,1.23,1.23,0,0,0,.17-.32,4.81,4.81,0,0,0,.24-1.53,4.33,4.33,0,0,1,.28-1.53,4,4,0,0,0,.52-.23l.64-.31a6.48,6.48,0,0,1,.63-.26,1.24,1.24,0,0,1,.55-.07,2,2,0,0,1,.35.19l.41.3a2,2,0,0,1,.33.24,2,2,0,0,0,.33.24,1.26,1.26,0,0,0,.36.12.74.74,0,0,1,.29.12,3,3,0,0,1,.23.24l.38.45.36.47.21.29a1.12,1.12,0,0,1,0,.47,3.52,3.52,0,0,1-.19.51l-.24.52c-.08.17-.14.33-.19.46l-.21.75a5.16,5.16,0,0,1-.27.74c-.12.3-.24.64-.38,1a5.59,5.59,0,0,0-.28,1.24,1,1,0,0,1-.36.73,1.18,1.18,0,0,0-.39.69,2.7,2.7,0,0,0-.07.65c0,.23,0,.46,0,.67s0,.44,0,.64a1.51,1.51,0,0,1-.15.59.67.67,0,0,1-.31.26.81.81,0,0,0-.35.25,4.23,4.23,0,0,0-.36.87,10.68,10.68,0,0,0-.26,1.08,4.87,4.87,0,0,0-.08,1.14,2.94,2.94,0,0,0,.19,1,2.22,2.22,0,0,1-.61,1,3,3,0,0,1-1,.64,3.81,3.81,0,0,1-1.26.24,3.89,3.89,0,0,1-1.37-.22,4.34,4.34,0,0,0-.65-.78A2.48,2.48,0,0,1,149.51,328.71Z"/><path d="M178.34,315.44a7.31,7.31,0,0,1,.51,1.27,8.93,8.93,0,0,1,.28,1.59c.05.46.1.87.16,1.23a5.69,5.69,0,0,1,0,1.32,7.07,7.07,0,0,1-.17,1.16,8.65,8.65,0,0,1-.34,1.12c-.21.62-.41,1.16-.59,1.62s-.4.95-.66,1.48a4.2,4.2,0,0,1-.48.73l-.52.58-.12.24a.49.49,0,0,1-.15.24,6.46,6.46,0,0,1-1.23,1.07,6.37,6.37,0,0,1-1.43.8,2.61,2.61,0,0,1-.5.08,2.56,2.56,0,0,0-.53.09,1.6,1.6,0,0,0-.59.39,1.26,1.26,0,0,1-.62.37l-.5.12-.57.12c-.46.11-1,.23-1.7.34a4.54,4.54,0,0,1-1.88,0,.92.92,0,0,1-.28-.14,1,1,0,0,0-.31-.17,2.24,2.24,0,0,0-.34-.11.94.94,0,0,1-.31-.1,3.19,3.19,0,0,1-.86-.48,3.4,3.4,0,0,0-.87-.48c-.32-.19-.64-.35-1-.5a1.24,1.24,0,0,1-.66-.81,1.27,1.27,0,0,1-.83-.8,5,5,0,0,0-.58-1.1.89.89,0,0,0-.29-.29.57.57,0,0,1-.26-.3,3.36,3.36,0,0,1-.38-1.22,13.87,13.87,0,0,1-.17-1.43,4.24,4.24,0,0,1,.08-1.19c.08-.38.17-.75.28-1.12s.22-.73.34-1.07.24-.68.33-1a1.71,1.71,0,0,1,.52-.93,7.48,7.48,0,0,0,.72-.76,1.06,1.06,0,0,0,.21-.31,1.41,1.41,0,0,1,.2-.35,4,4,0,0,1,.63-.6c.23-.17.44-.35.65-.53s.47-.37.72-.54a3.06,3.06,0,0,0,.62-.53,3.72,3.72,0,0,0,.44-.76,1.66,1.66,0,0,1,.5-.66,2.42,2.42,0,0,1,.84-.44c.31-.1.67-.2,1.09-.31a6.28,6.28,0,0,0,1.15-.4,4.14,4.14,0,0,1,1.23-.33c.41,0,.86-.07,1.34-.08a9.72,9.72,0,0,1,1.43.05,7.32,7.32,0,0,1,1.35.24,3.91,3.91,0,0,1,1.12.48,2.22,2.22,0,0,1,.5.42l.5.51a8.59,8.59,0,0,1,.94,1.12A6.65,6.65,0,0,0,178.34,315.44Zm-7.52-1.55a1.19,1.19,0,0,0-.4.1l-.51.22a5,5,0,0,0-.47.26l-.31.21a4.06,4.06,0,0,0-.74.95,6.07,6.07,0,0,1-.74,1,1.3,1.3,0,0,1-.36.25.8.8,0,0,0-.3.23,3.91,3.91,0,0,0-.84,1.52q-.26.86-.54,1.65c-.2.55-.4,1.17-.58,1.86a5.19,5.19,0,0,0-.17,2,2.77,2.77,0,0,0,.15.53l.23.61c.09.2.17.4.25.6a5.23,5.23,0,0,0,.26.53,6.76,6.76,0,0,0,.54.88,3.4,3.4,0,0,0,.76.8,2.89,2.89,0,0,0,1,.48,2.09,2.09,0,0,0,1.16,0,7,7,0,0,0,.93-.43c.36-.19.7-.38,1-.57a3.11,3.11,0,0,0,.93-.84,6.88,6.88,0,0,0,.55-1.12,1.09,1.09,0,0,1,.19-.33,3.78,3.78,0,0,0,.22-.33,4.14,4.14,0,0,0,.35-.83,5.69,5.69,0,0,1,.34-.86,6.19,6.19,0,0,0,.52-1.79c.07-.58.13-1.27.17-2.07a2.61,2.61,0,0,0-.08-1,3.37,3.37,0,0,1-.19-.86,5.92,5.92,0,0,1,0-.7,1,1,0,0,0-.14-.57.88.88,0,0,0-.63-.42,1.49,1.49,0,0,1-.75-.38,10,10,0,0,0-.58-.86,3,3,0,0,0-.76-.69q-.18,0-.24,0A.35.35,0,0,0,170.82,313.89Z"/><path d="M181.68,329.85a1.27,1.27,0,0,1-1.27-.19,1.77,1.77,0,0,1-.69-1,2.3,2.3,0,0,1,0-.84,3.54,3.54,0,0,1,.2-.91,3.1,3.1,0,0,1,.59-.9,3.84,3.84,0,0,0,.69-1.17c.16-.42.29-.81.4-1.19a2.15,2.15,0,0,1,.46-.92,3.6,3.6,0,0,1,.52-.43.66.66,0,0,0,.31-.5.75.75,0,0,0-.16-.48.79.79,0,0,1-.12-.55,2.4,2.4,0,0,1,.19-.79c.13-.33.25-.61.36-.87a8.69,8.69,0,0,0,.59-1.69,3.63,3.63,0,0,0,.12-.56,3.35,3.35,0,0,1,.12-.5,3,3,0,0,0,.23-.45,3.87,3.87,0,0,1,.29-.62,3.33,3.33,0,0,1,.38-.57,1.16,1.16,0,0,1,.45-.36,2.63,2.63,0,0,1,.6-.16,1.92,1.92,0,0,0,.6-.19c.21-.07.34-.15.38-.24a.83.83,0,0,1,.35-.28,1.54,1.54,0,0,1,.43-.06,1.9,1.9,0,0,0,.46-.07,3.38,3.38,0,0,0,.59-.31.64.64,0,0,1,.72,0,1.22,1.22,0,0,1,.35.62c.11.35.23.67.34,1s.11.35.19.58.16.47.23.71.13.46.2.65a3.8,3.8,0,0,0,.18.44,3,3,0,0,1,.24.72,2.92,2.92,0,0,0,.2.69c.12.23.23.45.35.65s.23.44.34.69.22.5.31.73a7.84,7.84,0,0,0,.35.72,1.48,1.48,0,0,0,.41.5,1,1,0,0,1,.35.5.91.91,0,0,1,0,.61,1.14,1.14,0,0,0,0,.6,1.11,1.11,0,0,0,.45.62,4,4,0,0,1,.62.52.77.77,0,0,1,.21.41c0,.14.13.23.31.28,0-.44.1-.82.15-1.14s.12-.64.19-.95.14-.63.21-1a9.89,9.89,0,0,0,.17-1.12c.23-.29.44-.58.62-.84a1.57,1.57,0,0,0,.24-1.05,1.66,1.66,0,0,0-.12-.42.91.91,0,0,1-.05-.44,2.91,2.91,0,0,1,.14-.63c.07-.18.16-.41.28-.68s.12-.38.17-.57.1-.41.17-.64a4.37,4.37,0,0,1,.19-.45c.06-.11.12-.22.19-.33a1.35,1.35,0,0,0,.17-.34,3.93,3.93,0,0,0,.14-.57,5.7,5.7,0,0,0,.1-1,2.07,2.07,0,0,1,.18-.83,2.51,2.51,0,0,1,.88-1.05,8.78,8.78,0,0,1,1.15-.71,2.83,2.83,0,0,1,1.59.5,2.1,2.1,0,0,1,.79,1.12,1.06,1.06,0,0,1,0,1c-.19.27-.37.56-.56.88a3.68,3.68,0,0,0-.26.59c0,.18-.1.36-.13.53s-.07.35-.11.53a2.6,2.6,0,0,1-.19.63,1.32,1.32,0,0,1-.31.56,1.19,1.19,0,0,0-.27.47,2.69,2.69,0,0,1,.08.79,2,2,0,0,1-.1.57c-.06.17-.11.35-.17.52a5.71,5.71,0,0,0-.16.57,2,2,0,0,0-.07.48,1.63,1.63,0,0,1-.06.45,4.26,4.26,0,0,1-.28.76c-.12.23-.23.45-.35.65a6.9,6.9,0,0,1-.53,1,2.62,2.62,0,0,0-.36,1.21c0,.32,0,.6-.05.84s0,.46,0,.67a3.2,3.2,0,0,1-.1.66c-.06.23-.13.5-.23.82a2.47,2.47,0,0,1-.19.54,2.55,2.55,0,0,0-.18.53,3.39,3.39,0,0,1-.59,1.36,4.4,4.4,0,0,1-1.14.95l-.83.21a3.21,3.21,0,0,1-.81.1,2.25,2.25,0,0,1-.74-.12,1.1,1.1,0,0,1-.58-.5,4,4,0,0,1-.37-.81c-.12-.35-.27-.7-.43-1-.07-.16-.14-.31-.22-.46a2.72,2.72,0,0,1-.19-.47,3,3,0,0,1-.23-.65,4.07,4.07,0,0,0-.22-.76,2.12,2.12,0,0,0-.76-1.14,5.06,5.06,0,0,1-.89-.83,5,5,0,0,0-.11-.62.77.77,0,0,0-.31-.45.3.3,0,0,0-.17-.08.3.3,0,0,1-.17-.12.75.75,0,0,1-.14-.33.47.47,0,0,0-.14-.29,2.91,2.91,0,0,1-.21-.32c-.09-.16-.17-.32-.25-.48a3.5,3.5,0,0,0-.26-.43q-.13-.19-.21-.15t-.33.27l-.31.62-.29.67a2.18,2.18,0,0,1-.24.47,1.76,1.76,0,0,0-.26.71,3.13,3.13,0,0,1-.22.74,6,6,0,0,0-.43.83.93.93,0,0,0,.08.89.63.63,0,0,1-.12.4.6.6,0,0,0-.05.5,7.76,7.76,0,0,0-.4.86c-.12.32-.26.68-.39,1.07-.07.23-.13.46-.18.71a5,5,0,0,1-.17.69,2,2,0,0,1-.29.56.69.69,0,0,1-.5.28,1,1,0,0,1-.69-.1,3.42,3.42,0,0,1-.52-.4l-.48-.48A1.77,1.77,0,0,0,181.68,329.85Z"/><path d="M220.33,314.37a4.24,4.24,0,0,1-1.86.45c-.62,0-1.31,0-2.07-.07l-.67,0-.67.07a4.59,4.59,0,0,0-2.73,1.23,6.36,6.36,0,0,0-1.62,2.63c-.11.4-.21.75-.27,1.07s.08.51.44.56a2,2,0,0,0,.69,0,6.82,6.82,0,0,0,.71-.19l.71-.23a2.35,2.35,0,0,1,.69-.1.51.51,0,0,1,.26.07.55.55,0,0,0,.25.07,3.87,3.87,0,0,0,1.25-.09,2.57,2.57,0,0,1,1.2,0,.76.76,0,0,1,.19.12.78.78,0,0,0,.26.16,4,4,0,0,0,1.07.22,3.07,3.07,0,0,1,1,.23.86.86,0,0,1,.34.26c.12.12.18.21.18.25,0,.26-.15.42-.45.49a5.76,5.76,0,0,1-.76.13,1.69,1.69,0,0,1-.55,0,1.45,1.45,0,0,0-.55,0,8,8,0,0,0-.93.19l-1,.29a7.36,7.36,0,0,0-1.1.5,2.82,2.82,0,0,1-1.14.36,2.48,2.48,0,0,1-.86,0,3.39,3.39,0,0,0-.9,0,2.13,2.13,0,0,0-.33.11,1.7,1.7,0,0,1-.32.1l-.47.09a.52.52,0,0,0-.24.08.74.74,0,0,0-.17.21l-.26.41a4.28,4.28,0,0,0-.35,1.33c0,.47-.09,1-.13,1.5a4.08,4.08,0,0,0,.72.6,2,2,0,0,0,1.07.23,1.65,1.65,0,0,0,.6-.09,2.11,2.11,0,0,1,.6-.12,6.33,6.33,0,0,1,.76,0,4,4,0,0,0,.86,0,8.74,8.74,0,0,0,1.69-.26,5.21,5.21,0,0,1,1.69-.12c.14,0,.39,0,.74,0l1.09.08a7.43,7.43,0,0,1,1,.16c.29.07.43.16.43.27a.6.6,0,0,1-.25.43,4.43,4.43,0,0,1-.59.42,4.9,4.9,0,0,1-.66.31l-.43.15a2.45,2.45,0,0,1-1.13.09,4.84,4.84,0,0,0-1.21,0,4.71,4.71,0,0,0-.86.21l-.76.29-.78.31a2.77,2.77,0,0,1-.91.19c-.46,0-.85.1-1.17.16s-.7.13-1.14.22c-.18,0-.36.1-.52.16l-.52.15a6.91,6.91,0,0,1-2.15.09,12.31,12.31,0,0,0-2.5,0c-.57.07-1.09.16-1.53.26a4.21,4.21,0,0,1-1.37.09l-.46-.05a.65.65,0,0,1-.4-.19.89.89,0,0,1,.31-.48,4.3,4.3,0,0,1,.49-.38,6.33,6.33,0,0,0,.46-.44l.43-.43a2.48,2.48,0,0,0,.35-.67c.09-.26.17-.53.26-.81a7.71,7.71,0,0,1,.27-.77,2.17,2.17,0,0,1,.4-.64,1.8,1.8,0,0,1,0-1.42c.19-.52.37-1.08.53-1.65a1.22,1.22,0,0,0,.07-.41.92.92,0,0,1,.07-.38,1.23,1.23,0,0,1,.31-.61,1.27,1.27,0,0,0,.31-.53,1,1,0,0,0,0-.35,1.3,1.3,0,0,1,0-.34,3.93,3.93,0,0,1,.26-1,4.46,4.46,0,0,0,.26-.85,1.55,1.55,0,0,0,0-.57,1.82,1.82,0,0,1,0-.57,5.19,5.19,0,0,1,.29-1.31,4,4,0,0,0,.26-1.1,2.27,2.27,0,0,0-.1-.83,3.46,3.46,0,0,0-.28-.69,1.87,1.87,0,0,0-.31-.36c-.14-.12-.27-.25-.41-.36a4,4,0,0,1-.36-.33.41.41,0,0,1-.16-.29c0-.25.13-.39.31-.4a.86.86,0,0,0,.52-.22,12.72,12.72,0,0,1,2.36.27,13.49,13.49,0,0,0,2.33.31,2.91,2.91,0,0,0,.93,0,7.9,7.9,0,0,1,.93-.12,5.27,5.27,0,0,1,1.64.2,5.61,5.61,0,0,0,1.81.18c.8-.05,1.56-.07,2.27-.07s1.46,0,2.24-.07a.94.94,0,0,0,.62.15,8.34,8.34,0,0,0,.85-.07,3.51,3.51,0,0,1,.79,0,.56.56,0,0,1,.5.31.73.73,0,0,1-.07.82,1.25,1.25,0,0,1-.76.45,2,2,0,0,0-.37,0l-.52.07-.54,0Z"/><path d="M234.5,316.06a.77.77,0,0,1,.42.36,2.57,2.57,0,0,1,.15.47l.12.48a.62.62,0,0,0,.35.38.93.93,0,0,0,.24.17l.38.23a2.89,2.89,0,0,0,.39.2.39.39,0,0,0,.3,0,.59.59,0,0,0,.38-.31,3.07,3.07,0,0,0,.29-.63,3.22,3.22,0,0,0,.15-.75,1.54,1.54,0,0,0,0-.62,1.72,1.72,0,0,0-.38-.29,4.25,4.25,0,0,0-.48-.26,5.26,5.26,0,0,1-.9-.41,5.34,5.34,0,0,0-.9-.42,1.76,1.76,0,0,1-.43-.22.77.77,0,0,0-.43-.15.4.4,0,0,0-.31.05.71.71,0,0,1-.34.08,2,2,0,0,1-.5,0,4.19,4.19,0,0,0-.61,0c-.2,0-.42.06-.63.1a1.63,1.63,0,0,0-.57.24,2.3,2.3,0,0,0-.64.85c-.13.31-.29.66-.5,1.05a1.45,1.45,0,0,1-.24.31.53.53,0,0,0-.17.41.29.29,0,0,0,.12.24.76.76,0,0,1,.19.32,1.26,1.26,0,0,1,.13.43,1.82,1.82,0,0,0,.11.39l.2.19.18.16a.61.61,0,0,1,.15.24.49.49,0,0,0,.16.21l.6.36a2.66,2.66,0,0,0,.81.33,4.11,4.11,0,0,1,1.19.43c.36.19.71.36,1.05.5a2,2,0,0,1,.61.39,5.21,5.21,0,0,1,.39.45l.36.43a1.19,1.19,0,0,0,.54.31.76.76,0,0,0,.31.07.8.8,0,0,1,.31.07,1.31,1.31,0,0,1,.34.22l.38.33a2.55,2.55,0,0,1,.26.3,2,2,0,0,1,.19.29,1.46,1.46,0,0,1,.14.53q0,.33,0,.54a6.62,6.62,0,0,1,0,1.31,4,4,0,0,1-.24.89,6,6,0,0,1-.43.83,8.45,8.45,0,0,0-.57,1.07c-.3.14-.61.29-.93.46a6,6,0,0,0-.83.54c-.12.09-.28.21-.48.34a2.08,2.08,0,0,1-.56.28,4.54,4.54,0,0,1-1.17.21,4.28,4.28,0,0,0-1.27.24,1.8,1.8,0,0,1-.81,0,3.54,3.54,0,0,0-.85,0,7.3,7.3,0,0,0-.76.15,1.55,1.55,0,0,1-.72,0,3.85,3.85,0,0,1-1.07-.36c-.39-.2-.73-.39-1-.57a.73.73,0,0,1-.28-.19.91.91,0,0,0-.28-.22,1.38,1.38,0,0,0-.48-.19,1.07,1.07,0,0,1-.45-.23c-.13-.11-.26-.22-.37-.33l-.35-.32c-.28-.19-.58-.38-.91-.57a2.22,2.22,0,0,1-.71-.6.94.94,0,0,1-.16-.47,1.42,1.42,0,0,0-.15-.57,1,1,0,0,0-.24-.41.66.66,0,0,1-.21-.35,2,2,0,0,1,.1-1.07c.14-.39.27-.72.38-1a1.74,1.74,0,0,1,1.09.12,2.28,2.28,0,0,1,.74.61,4.51,4.51,0,0,1,.55.84,6,6,0,0,0,.49.81,1.72,1.72,0,0,0,.86.69l1.14.48a3.49,3.49,0,0,0,.39.19l.36.16a5.76,5.76,0,0,1,.78.36,1.75,1.75,0,0,0,.71.23,3.71,3.71,0,0,0,.67-.06l.74-.12a2.39,2.39,0,0,1,.83-.12,1.79,1.79,0,0,0,.79-.15c.3-.12.47-.25.52-.42a2.78,2.78,0,0,1,.31-.65,3.08,3.08,0,0,0-.31-.93,3.54,3.54,0,0,0-.62-.66,1.71,1.71,0,0,0-.4-.22,3,3,0,0,1-.4-.19c-.48-.3-1-.6-1.58-.9a6.52,6.52,0,0,0-1.9-.62,9,9,0,0,1-1.36-.57,2.26,2.26,0,0,1-1-1,.53.53,0,0,1-.12-.28,1.58,1.58,0,0,0-.08-.31,5.53,5.53,0,0,0-.78-1.31,3.29,3.29,0,0,1-.67-1.41,1.2,1.2,0,0,1,0-.5l.09-.5c0-.16.06-.33.09-.52a1.66,1.66,0,0,0,0-.58.6.6,0,0,0,.17-.28,1.53,1.53,0,0,1,.11-.27,1.54,1.54,0,0,0,.19-.44.84.84,0,0,1,.29-.43,2.3,2.3,0,0,0,.4-.43,1.64,1.64,0,0,1,.32-.36.63.63,0,0,1,.24-.09.61.61,0,0,0,.25-.08,1.86,1.86,0,0,0,.31-.26,2.16,2.16,0,0,1,.31-.29,6.86,6.86,0,0,1,1.55-.88,11,11,0,0,1,1.76-.57,1,1,0,0,1,.44-.29,3.57,3.57,0,0,1,.68-.18l.7-.08.59-.07a9.67,9.67,0,0,1,1.71.34c.42.14.82.28,1.2.43s.79.3,1.23.43a9.67,9.67,0,0,0,1.69.35c.27.21.57.45.88.74a5.22,5.22,0,0,1,.81.95,3.91,3.91,0,0,1,.5,1.08,1.79,1.79,0,0,1-.09,1.16,4,4,0,0,0-.28.78,2.49,2.49,0,0,1-.31.77c-.11.19-.23.4-.36.66a2.26,2.26,0,0,1-.43.62,2.73,2.73,0,0,1-1.24.69,4.2,4.2,0,0,1-1.48.13,1.73,1.73,0,0,0-.64-.58l-.86-.5a5.16,5.16,0,0,1-.8-.59,1.5,1.5,0,0,1-.46-.81,3.09,3.09,0,0,1,0-1.24A1.28,1.28,0,0,1,234.5,316.06Z"/><path d="M252.26,328.4c.16-.36.3-.72.41-1s.27-.71.45-1.12a4.27,4.27,0,0,0,.21-.72,2.68,2.68,0,0,1,.24-.76,3.85,3.85,0,0,1,.43-.62,2.65,2.65,0,0,0,.4-.69,2.47,2.47,0,0,0,0-1.33,3.05,3.05,0,0,1,0-1.5c.12-.48.25-1,.4-1.43a6.56,6.56,0,0,0,.29-1.26,3.94,3.94,0,0,0,.07-.77,5.54,5.54,0,0,1,.07-.81,3.11,3.11,0,0,1,.28-.88,2.3,2.3,0,0,0,.24-.81,2.21,2.21,0,0,0-.36-1.43,7.31,7.31,0,0,0-.88-1.09.47.47,0,0,1,.22-.33c.13-.08.23-.11.29-.08a4.14,4.14,0,0,1,.94.27,4.29,4.29,0,0,0,1,.28,3.46,3.46,0,0,0,.91,0,3.69,3.69,0,0,1,1.05,0l1.41.14q.84.06,1.62.06a12.35,12.35,0,0,0,1.73,0,8,8,0,0,1,1.62,0,3.33,3.33,0,0,1,1.07.31,1.83,1.83,0,0,0,1.07.18,3.15,3.15,0,0,0,1.12.84,4.92,4.92,0,0,1,1.15.74,5.75,5.75,0,0,1,1.24,1.4,6,6,0,0,0,1.24,1.4,1,1,0,0,0,.14.51,1,1,0,0,1,.11.95,1.33,1.33,0,0,0-.07.43.84.84,0,0,0,.2.5.72.72,0,0,1,.14.57,5.58,5.58,0,0,1-.62,2.38,21.24,21.24,0,0,1-1.17,2.07.63.63,0,0,0-.53.31c-.11.18-.24.39-.4.62a3.46,3.46,0,0,1-.81.81,4.32,4.32,0,0,0-.85.81A6.1,6.1,0,0,0,267,328a10.32,10.32,0,0,1-1.43.83l-.57.26c-.2.08-.39.17-.57.26a6.42,6.42,0,0,0-.66.24,4.12,4.12,0,0,1-.58.21,1,1,0,0,1-.43,0,.88.88,0,0,0-.43,0,2.72,2.72,0,0,0-.87.36,2.36,2.36,0,0,1-.82.33,2.44,2.44,0,0,1-1-.07c-.32-.09-.63-.18-.93-.25a7.65,7.65,0,0,1-1.17.06l-1.21-.06c-.41,0-.85,0-1.31,0a14.48,14.48,0,0,0-1.48.18,1.54,1.54,0,0,0-.43.14,2.07,2.07,0,0,1-.43.13,4.5,4.5,0,0,1-.85.07H251a3.18,3.18,0,0,1-.41,0,3.56,3.56,0,0,1-.47-.05,1.12,1.12,0,0,1-.39-.12.32.32,0,0,1-.21-.22.4.4,0,0,1,.12-.36,1.39,1.39,0,0,1,.38-.28,3.82,3.82,0,0,1,.46-.21,1.86,1.86,0,0,0,.38-.15,3.08,3.08,0,0,0,.71-.54A2,2,0,0,1,252.26,328.4Zm9.17-13.34a1.62,1.62,0,0,0-.4.65,6.55,6.55,0,0,0-.2.82c-.06.28-.11.58-.16.87a6.13,6.13,0,0,1-.21.87l-.27.53a2.52,2.52,0,0,0-.21.54,7.31,7.31,0,0,0-.21,1.27,7.2,7.2,0,0,1-.2,1.31,3,3,0,0,1-.26.74,2.62,2.62,0,0,0-.26.74,1.79,1.79,0,0,0,0,.73,1.75,1.75,0,0,1,0,.72,2.66,2.66,0,0,1-.19.52,2.66,2.66,0,0,0-.19.52,1.33,1.33,0,0,0,.35,1.36,2.82,2.82,0,0,0,1.24.6,3.77,3.77,0,0,0,2.29-.15,5.8,5.8,0,0,0,1.67-1c.3-.34.61-.71.93-1.12a4.83,4.83,0,0,0,.76-1.32,5.69,5.69,0,0,0,.21-.75c.07-.31.15-.61.24-.91a4,4,0,0,1,.26-.71,4.9,4.9,0,0,0,.26-.67,4,4,0,0,0,.29-1.91,5.06,5.06,0,0,0-.36-1.61,2.18,2.18,0,0,0-.33-.44c-.15-.16-.29-.32-.43-.49a4.32,4.32,0,0,1-.43-.55,3.59,3.59,0,0,0-.33-.41,2.83,2.83,0,0,0-1.15-.64,3.45,3.45,0,0,1-1.23-.64,1.88,1.88,0,0,0-.86.21A3.26,3.26,0,0,1,261.43,315.06Z"/><path d="M290.94,314.37a4.24,4.24,0,0,1-1.86.45c-.62,0-1.31,0-2.07-.07l-.67,0-.67.07a4.59,4.59,0,0,0-2.73,1.23,6.36,6.36,0,0,0-1.62,2.63c-.11.4-.2.75-.27,1.07s.08.51.45.56a1.94,1.94,0,0,0,.68,0,6.82,6.82,0,0,0,.71-.19l.71-.23a2.35,2.35,0,0,1,.69-.1.48.48,0,0,1,.26.07.55.55,0,0,0,.25.07,3.85,3.85,0,0,0,1.25-.09,2.57,2.57,0,0,1,1.2,0,.76.76,0,0,1,.19.12.89.89,0,0,0,.26.16,4,4,0,0,0,1.07.22,3.07,3.07,0,0,1,1,.23.86.86,0,0,1,.34.26c.12.12.18.21.18.25,0,.26-.15.42-.45.49a5.76,5.76,0,0,1-.76.13,1.69,1.69,0,0,1-.55,0,1.45,1.45,0,0,0-.55,0,8,8,0,0,0-.93.19l-1,.29a7.36,7.36,0,0,0-1.1.5,2.82,2.82,0,0,1-1.14.36,2.48,2.48,0,0,1-.86,0,3.39,3.39,0,0,0-.9,0,2.13,2.13,0,0,0-.33.11,1.7,1.7,0,0,1-.32.1l-.47.09a.52.52,0,0,0-.24.08.74.74,0,0,0-.17.21l-.26.41a4.28,4.28,0,0,0-.35,1.33c0,.47-.09,1-.13,1.5a4.08,4.08,0,0,0,.72.6,2,2,0,0,0,1.07.23,1.65,1.65,0,0,0,.6-.09,2.11,2.11,0,0,1,.6-.12,6.33,6.33,0,0,1,.76,0,4.1,4.1,0,0,0,.87,0,8.86,8.86,0,0,0,1.69-.26,5.12,5.12,0,0,1,1.68-.12c.14,0,.39,0,.75,0l1.08.08a7.43,7.43,0,0,1,1,.16c.29.07.43.16.43.27a.6.6,0,0,1-.25.43,4.43,4.43,0,0,1-.59.42,5.44,5.44,0,0,1-.65.31l-.44.15a2.45,2.45,0,0,1-1.13.09,4.84,4.84,0,0,0-1.21,0,4.71,4.71,0,0,0-.86.21l-.76.29-.78.31a2.77,2.77,0,0,1-.91.19c-.46,0-.85.1-1.17.16s-.7.13-1.14.22c-.18,0-.36.1-.52.16l-.51.15a7,7,0,0,1-2.16.09,12.31,12.31,0,0,0-2.5,0c-.57.07-1.08.16-1.53.26a4.17,4.17,0,0,1-1.36.09l-.47-.05a.65.65,0,0,1-.4-.19.89.89,0,0,1,.31-.48,5.41,5.41,0,0,1,.49-.38,6.33,6.33,0,0,0,.46-.44c.15-.14.29-.29.43-.43a2.22,2.22,0,0,0,.35-.67c.09-.26.18-.53.26-.81a7.71,7.71,0,0,1,.27-.77,2.4,2.4,0,0,1,.4-.64,1.8,1.8,0,0,1,0-1.42c.19-.52.37-1.08.53-1.65a1.22,1.22,0,0,0,.07-.41.92.92,0,0,1,.07-.38,1.23,1.23,0,0,1,.31-.61,1.27,1.27,0,0,0,.31-.53,1.37,1.37,0,0,0,0-.35,1,1,0,0,1,0-.34,3.93,3.93,0,0,1,.26-1,4.46,4.46,0,0,0,.26-.85,1.36,1.36,0,0,0,0-.57,1.82,1.82,0,0,1,0-.57,5.67,5.67,0,0,1,.29-1.31,4,4,0,0,0,.26-1.1,2.27,2.27,0,0,0-.1-.83,3.46,3.46,0,0,0-.28-.69,1.87,1.87,0,0,0-.31-.36c-.14-.12-.27-.25-.41-.36a4,4,0,0,1-.36-.33.41.41,0,0,1-.16-.29c0-.25.13-.39.31-.4a.83.83,0,0,0,.52-.22,12.72,12.72,0,0,1,2.36.27,13.49,13.49,0,0,0,2.33.31,2.91,2.91,0,0,0,.93,0,7.9,7.9,0,0,1,.93-.12,5.27,5.27,0,0,1,1.64.2,5.61,5.61,0,0,0,1.81.18c.8-.05,1.56-.07,2.27-.07s1.46,0,2.24-.07a.94.94,0,0,0,.62.15,8.34,8.34,0,0,0,.85-.07,3.51,3.51,0,0,1,.79,0,.56.56,0,0,1,.5.31.73.73,0,0,1-.07.82,1.25,1.25,0,0,1-.76.45,2,2,0,0,0-.37,0l-.52.07-.54,0Z"/><path d="M308.15,304.44a15.21,15.21,0,0,0,3.77.73c1.23.06,2.56.08,4,0a15.66,15.66,0,0,0,1.83-.1c.6-.07,1.2-.12,1.81-.16s1.21,0,1.81,0a8.44,8.44,0,0,1,1.79.28,4.32,4.32,0,0,1,.68.26l.64.29a5.73,5.73,0,0,1,1.22.6,3.21,3.21,0,0,1,.78,1,11.63,11.63,0,0,1,1.2.69,4.12,4.12,0,0,1,.88.76,3.83,3.83,0,0,1,.6.95,9,9,0,0,1,.45,1.26,5,5,0,0,1,.14,1.67,7.87,7.87,0,0,1-.31,1.62,9.47,9.47,0,0,1-.59,1.46,10.86,10.86,0,0,1-.69,1.21c-.25.32-.51.63-.77.91a7.31,7.31,0,0,1-.95.85,1.52,1.52,0,0,0-.34.38,1.72,1.72,0,0,1-.31.34,4.54,4.54,0,0,1-.52.3l-.59.29a1,1,0,0,0-.38.29.57.57,0,0,1-.31.23c-.5.18-1,.34-1.51.48s-1,.3-1.52.48a2.66,2.66,0,0,0-.52.19,1.88,1.88,0,0,1-.45.16,1,1,0,0,1-.45,0,1.79,1.79,0,0,0-.51-.07,2.93,2.93,0,0,0-.68.19,2.29,2.29,0,0,1-.8.19,6.86,6.86,0,0,1-1.11,0,5.74,5.74,0,0,0-1.17,0l-.83.07a1.81,1.81,0,0,0-.58.16,1.31,1.31,0,0,0-.44.34,3.66,3.66,0,0,0-.39.64c-.05.14-.09.29-.14.47s-.09.35-.14.53a9.12,9.12,0,0,0-.38,1.33,4.92,4.92,0,0,0-.07,1.39c0,.14,0,.27,0,.4a.66.66,0,0,0,0,.29,1.47,1.47,0,0,0,.26.55l.4.5a3.62,3.62,0,0,1,.36.54,1.33,1.33,0,0,1,.16.65,2.2,2.2,0,0,1-1.5.4c-.61,0-1.24-.05-1.88-.05s-1.08,0-1.52-.05a6.57,6.57,0,0,0-1.45.05,3.92,3.92,0,0,0-.74.22,3.33,3.33,0,0,1-.74.23,2.21,2.21,0,0,1-.57,0,1.36,1.36,0,0,0-.6,0,4,4,0,0,0-.79.19l-.75.25a4.54,4.54,0,0,1-.74.23,2.23,2.23,0,0,1-.72.05.87.87,0,0,1,.07-.84,2.74,2.74,0,0,1,.65-.61c.28-.18.56-.35.85-.51a1.42,1.42,0,0,0,.6-.59,6.75,6.75,0,0,1,.59-1.17,6.17,6.17,0,0,0,.58-1.24,8.76,8.76,0,0,0,.38-1.38,6.15,6.15,0,0,1,.42-1.38,1.84,1.84,0,0,1,.37-.52,1.07,1.07,0,0,0,.32-.52,3,3,0,0,0,.08-1.08,3,3,0,0,1,.12-1.12,1,1,0,0,1,.24-.38.87.87,0,0,0,.24-.38,1.9,1.9,0,0,0,0-.79,3.11,3.11,0,0,1,0-.8,2.73,2.73,0,0,1,.14-.58,5.08,5.08,0,0,0,.18-.59,1.05,1.05,0,0,0,0-.31,1.37,1.37,0,0,1,0-.35,3.78,3.78,0,0,1,.38-.75,3.27,3.27,0,0,0,.38-.87c.25-.8.51-1.67.77-2.6a8.69,8.69,0,0,0,.33-2.88,2.23,2.23,0,0,0-.09-.39c0-.13-.06-.25-.08-.37a3.6,3.6,0,0,1,0-.82,1.21,1.21,0,0,0-.12-.69,3,3,0,0,0-.42-.57,5.47,5.47,0,0,1-.53-.76,1.83,1.83,0,0,1-.26-.74C307.68,304.73,307.83,304.56,308.15,304.44Zm10,14.55a2.57,2.57,0,0,0,.75-.52,1.17,1.17,0,0,1,.83-.31,1.51,1.51,0,0,0,.4-.65,3.41,3.41,0,0,1,.33-.73,1.07,1.07,0,0,0,.69-.58c.11-.28.23-.58.34-.9a1.86,1.86,0,0,1,.19-.33,1.5,1.5,0,0,0,.19-.32,10,10,0,0,0,.65-1.88,5.21,5.21,0,0,0,0-2,2.69,2.69,0,0,0-.29-1,3.76,3.76,0,0,0-.54-.72,7.45,7.45,0,0,0-.65-.61,5.46,5.46,0,0,1-.66-.62,3.6,3.6,0,0,1-.77-.25,2.11,2.11,0,0,0-1-.16,2.18,2.18,0,0,0-.67.1c-.22.07-.44.13-.67.18a9.12,9.12,0,0,0-.79,2,11.52,11.52,0,0,1-.8,2.12,1,1,0,0,1-.22.38,1.14,1.14,0,0,0-.23.34.82.82,0,0,0,.06.43.94.94,0,0,1,.05.43,2.55,2.55,0,0,1-.12.44,3.52,3.52,0,0,0-.16.39,6.59,6.59,0,0,0-.22,1,6.67,6.67,0,0,1-.26,1,14.29,14.29,0,0,1-.48,1.44,2,2,0,0,0,0,1.42,6.49,6.49,0,0,0,2,.27A4.64,4.64,0,0,0,318.15,319Z"/><path d="M335.73,314.75a5.63,5.63,0,0,0,1.14-1c.32-.39.63-.79.93-1.18a.66.66,0,0,0,.48-.1,1.85,1.85,0,0,1,.45-.21,1.72,1.72,0,0,1,1,0,2.78,2.78,0,0,0,1,.12,3.59,3.59,0,0,0,1.12-.31,3.08,3.08,0,0,1,1.26-.24.76.76,0,0,1,.45.15.88.88,0,0,0,.42.19.56.56,0,0,0,.49-.07,1,1,0,0,1,.5-.13.92.92,0,0,1,.75.31,6.86,6.86,0,0,0,.6.62,3.86,3.86,0,0,1,0,1.55,5.73,5.73,0,0,0-.06,1.55c0,.35.09.68.15,1a5.47,5.47,0,0,1,.09,1,3.89,3.89,0,0,1-.06.95,4.64,4.64,0,0,0-.05,1,2.35,2.35,0,0,0,.11.35.66.66,0,0,1,0,.34,1,1,0,0,1-.31.59.84.84,0,0,0-.28.55,1.37,1.37,0,0,0,.23,1,2.41,2.41,0,0,1,.36.94,1.13,1.13,0,0,1,0,.44,1.5,1.5,0,0,0-.07.45,9.58,9.58,0,0,0,0,1.69c.06.62.1,1.2.13,1.73a2.62,2.62,0,0,0,.05.55.83.83,0,0,1,0,.45.47.47,0,0,1-.16.27.69.69,0,0,0-.18.24,1.31,1.31,0,0,0,0,.48,3.13,3.13,0,0,1,.05.59,3.59,3.59,0,0,1,0,.47,3,3,0,0,0,0,.39c0,.07.05.15.08.23a.29.29,0,0,1,0,.22,1.38,1.38,0,0,1-.47.67,1.07,1.07,0,0,1-.81.33,1.52,1.52,0,0,1-.6-.33,6.79,6.79,0,0,1-.57-.46,1.88,1.88,0,0,1-.38-1,3.4,3.4,0,0,0-.31-1.07,1.43,1.43,0,0,0-.29-.32,1.65,1.65,0,0,1-.33-.37,2.56,2.56,0,0,1-.28-.77,7.29,7.29,0,0,1-.08-.79c0-.27,0-.53-.05-.8a3.59,3.59,0,0,0-.18-.81.64.64,0,0,0-.2-.24.83.83,0,0,1-.24-.28,2.5,2.5,0,0,1-.28-.58.66.66,0,0,0-.45-.38c-.8,0-1.61,0-2.43-.07a13.67,13.67,0,0,0-2.4.07,1.69,1.69,0,0,0-.48.12,1.69,1.69,0,0,1-.48.12l-.28,0a.75.75,0,0,0-.24,0,2,2,0,0,0-.93.43,3.49,3.49,0,0,0-.69.71,1,1,0,0,0-.15.5,1.87,1.87,0,0,1-.12.57,1.38,1.38,0,0,1-.35.5.57.57,0,0,0-.17.57,2.35,2.35,0,0,0-.64.69c-.17.27-.34.55-.5.84a6.65,6.65,0,0,1-.53.81,1.71,1.71,0,0,1-.71.55l-.33.18a.63.63,0,0,1-.32.1c-.12,0-.18-.06-.19-.1a.59.59,0,0,0-.23-.21c-.14-.09-.3-.2-.5-.31s-.38-.24-.57-.38a5.34,5.34,0,0,1-.5-.43,1.71,1.71,0,0,1-.33-.43c-.18-.39-.21-.68-.1-.85l.45-.63.86-1.25c.32-.46.61-.89.86-1.31.14-.23.26-.44.37-.65a2.74,2.74,0,0,1,.39-.59,2.24,2.24,0,0,1,.71-.62,1.33,1.33,0,0,0,.6-.62.86.86,0,0,0,.07-.36,1.16,1.16,0,0,1,.07-.4,3.43,3.43,0,0,1,.86-1.24,4,4,0,0,0,.9-1.24,1.32,1.32,0,0,0,.08-.33A1.41,1.41,0,0,1,333,319a9.7,9.7,0,0,1,1.36-2.28A16.18,16.18,0,0,0,335.73,314.75Zm4.83-.1a3.15,3.15,0,0,0-.71.7,1.82,1.82,0,0,1-.78.61,4.08,4.08,0,0,1-.32.58,1.44,1.44,0,0,1-.5.45,2.16,2.16,0,0,1-.42.95c-.2.26-.4.52-.58.77a1.73,1.73,0,0,0-.25.3,2.69,2.69,0,0,1-.24.33,1.23,1.23,0,0,1-.34.25,1.19,1.19,0,0,0-.31.23,4.76,4.76,0,0,0-.45.76,7.38,7.38,0,0,1-.45.79l-.34.34a.45.45,0,0,0-.11.45.55.55,0,0,0,.42.36,2.85,2.85,0,0,0,.7.11,6.66,6.66,0,0,0,.78,0l.62,0h1a7.79,7.79,0,0,0,1,0,2.9,2.9,0,0,0,.83-.18,1.19,1.19,0,0,0,.56-.41,4.93,4.93,0,0,0,.18-2.22c-.12-.75-.22-1.49-.31-2.23a5.56,5.56,0,0,1-.11-.69,4,4,0,0,1,0-.69,1.73,1.73,0,0,1,.23-.67,1,1,0,0,0,.05-.78Z"/><path d="M363.55,312.47a2.13,2.13,0,0,0,.55.07,2.68,2.68,0,0,1,.56.07.32.32,0,0,1,.2.07.67.67,0,0,0,.21.1.26.26,0,0,0,.21,0,.34.34,0,0,1,.2,0,3,3,0,0,1,1.28.64,8.33,8.33,0,0,1,1,1.05c.14.23.32.5.52.81a4.81,4.81,0,0,1,.52,1,3.94,3.94,0,0,1,.24,1.19,2.74,2.74,0,0,1-.24,1.24c-.05.11-.12.26-.21.43l-.27.53a6.35,6.35,0,0,1-.52.8,1.94,1.94,0,0,1-.66.58l-.46.31a2.54,2.54,0,0,1-.47.28,4.08,4.08,0,0,0-.94.5,4.74,4.74,0,0,1-1,.53,1.19,1.19,0,0,1-.36.09,1.18,1.18,0,0,0-.37.09,1.06,1.06,0,0,0-.38.38.79.79,0,0,1-.51.34,3.25,3.25,0,0,1,1.58.95,5.71,5.71,0,0,1,1.11,1.53,2.73,2.73,0,0,0,.48.87,1.13,1.13,0,0,1,.27.86,1.43,1.43,0,0,1,.4.53,5,5,0,0,1,.26.71c.07.25.13.51.19.77a4,4,0,0,0,.22.71,3.36,3.36,0,0,0,.45.74,4.51,4.51,0,0,0,.52.55l.55.55a2.76,2.76,0,0,1,.48.75,1,1,0,0,0,.23-.09.41.41,0,0,1,.26,0,3.91,3.91,0,0,0,1.15.59,9.61,9.61,0,0,0,1.57.34,6,6,0,0,0,1.5.09,13,13,0,0,0,1.46-.19,2.56,2.56,0,0,0,.61-.19,6.93,6.93,0,0,1,.72-.26,1.7,1.7,0,0,1,.64-.08c.18,0,.28.13.28.36a1,1,0,0,1-.31.58,3.57,3.57,0,0,1-.56.52,4.79,4.79,0,0,1-1.34.66,13.19,13.19,0,0,1-1.59.39,15.28,15.28,0,0,1-1.69.23c-.57,0-1.11.08-1.62.1a2.5,2.5,0,0,1-.88-.15,4.71,4.71,0,0,0-.7-.23q-.69-.11-1.23-.24a4.2,4.2,0,0,1-1-.41,2.47,2.47,0,0,1-.73-.68,1.32,1.32,0,0,0-.86-.53l-1.79-1.6a5.8,5.8,0,0,1-1.42-2,4.67,4.67,0,0,0-.38-.6,2.53,2.53,0,0,1-.31-.64,1.72,1.72,0,0,1-.12-.52,5.56,5.56,0,0,0-.08-.62,8.13,8.13,0,0,0-.21-.81c-.09-.29-.18-.56-.28-.81a.67.67,0,0,0-.1-.21.62.62,0,0,1-.1-.2c0-.14-.09-.31-.14-.5a1,1,0,0,0-.24-.47,3.38,3.38,0,0,0-.57-.31,5.67,5.67,0,0,0-.67-.24,1.67,1.67,0,0,0-.74,0,3.92,3.92,0,0,1-.68.14,3.12,3.12,0,0,1-.86,0,1.39,1.39,0,0,0-.69.05,1.5,1.5,0,0,0-.79.9,4.93,4.93,0,0,0-.38,1.51,9,9,0,0,1-.41,1.54,11.14,11.14,0,0,0-.45,1.43,1.59,1.59,0,0,1-.45.74,1,1,0,0,1-.86.22l-.43-.05a1.05,1.05,0,0,1-.4-.15,3.63,3.63,0,0,0-.6.33l-.61.36q-1.14.35-1.29-.18a3.57,3.57,0,0,1,.12-1.65,5.93,5.93,0,0,1,.54-1.41,6.94,6.94,0,0,0,.5-1.18,2.24,2.24,0,0,0,.05-.56c0-.18,0-.34-.05-.5a2.39,2.39,0,0,1,0-.44.61.61,0,0,1,.14-.36,1.08,1.08,0,0,1,.21-.6,1.51,1.51,0,0,0,.24-.6c0-.23.1-.48.17-.73a5.06,5.06,0,0,0,.14-.72c0-.28,0-.54,0-.78a2.62,2.62,0,0,1,.22-.84c.12-.3.24-.61.37-.92a4,4,0,0,0,.25-.91,4.18,4.18,0,0,0,.09-.71,1.93,1.93,0,0,1,.16-.7.73.73,0,0,1,.29-.45.84.84,0,0,0,.29-.45.8.8,0,0,0,0-.38.4.4,0,0,1,0-.34,2.6,2.6,0,0,0,.14-1.09,2.22,2.22,0,0,0-.23-.66c-.1-.17-.19-.33-.27-.5a.88.88,0,0,1,0-.65.5.5,0,0,0,.31-.29.58.58,0,0,1,.38-.33,3.25,3.25,0,0,1,.51-.05l.83,0h.86l.66,0a2.76,2.76,0,0,0,.69,0l.86-.07h.84a1.56,1.56,0,0,1,.68.13Zm-5.24,8.8a1.17,1.17,0,0,0,.54-.14.64.64,0,0,1,.5-.07,5.46,5.46,0,0,0,.69.1c.23,0,.48.06.75.11a.61.61,0,0,0,.35,0,.9.9,0,0,1,.45,0,5.3,5.3,0,0,1,1-.62,2.08,2.08,0,0,0,.81-.83,6.1,6.1,0,0,1,.38-.6,2.43,2.43,0,0,0,.28-.5,1.77,1.77,0,0,0-.07-1.37c-.21-.38-.41-.71-.59-1a2.76,2.76,0,0,0-.65-.74,1.55,1.55,0,0,0-1-.16,8.21,8.21,0,0,1-1.21,0,7.91,7.91,0,0,0-1.19,0,3.48,3.48,0,0,0-1,.2,1.21,1.21,0,0,0-.66.62c-.11.35-.25.73-.41,1.14s-.31.83-.45,1.26a12.28,12.28,0,0,0-.34,1.29,5.7,5.7,0,0,0-.14,1.28,2.75,2.75,0,0,1,1,.05A3.48,3.48,0,0,0,358.31,321.27Z"/><path d="M377,314.75a5.37,5.37,0,0,0,1.14-1c.32-.39.63-.79.93-1.18a.64.64,0,0,0,.48-.1,1.85,1.85,0,0,1,.45-.21,1.76,1.76,0,0,1,1,0,2.78,2.78,0,0,0,1,.12,3.66,3.66,0,0,0,1.12-.31,3.08,3.08,0,0,1,1.26-.24.76.76,0,0,1,.45.15.81.81,0,0,0,.41.19.58.58,0,0,0,.5-.07,1,1,0,0,1,.5-.13.9.9,0,0,1,.74.31,6.86,6.86,0,0,0,.6.62,3.87,3.87,0,0,1,0,1.55,5.73,5.73,0,0,0-.07,1.55c.05.35.1.68.16,1a6.53,6.53,0,0,1,.08,1,3.86,3.86,0,0,1-.05.95,4.06,4.06,0,0,0-.05,1,2.3,2.3,0,0,0,.1.35.57.57,0,0,1,0,.34,1,1,0,0,1-.31.59.76.76,0,0,0-.28.55,1.37,1.37,0,0,0,.22,1,2.29,2.29,0,0,1,.37.94,1,1,0,0,1,0,.44,1.9,1.9,0,0,0-.07.45,9.64,9.64,0,0,0,0,1.69c.06.62.1,1.2.12,1.73a3.51,3.51,0,0,0,.05.55.74.74,0,0,1,0,.45.46.46,0,0,1-.15.27.88.88,0,0,0-.19.24,1.35,1.35,0,0,0,0,.48,4.27,4.27,0,0,1,.05.59,2.42,2.42,0,0,1,0,.47,3,3,0,0,0,0,.39,1.36,1.36,0,0,0,.09.23.28.28,0,0,1,0,.22,1.35,1.35,0,0,1-.46.67,1.1,1.1,0,0,1-.81.33,1.6,1.6,0,0,1-.61-.33,5.09,5.09,0,0,1-.56-.46,1.79,1.79,0,0,1-.38-1,3.4,3.4,0,0,0-.31-1.07,1.27,1.27,0,0,0-.3-.32,1.89,1.89,0,0,1-.32-.37,2.56,2.56,0,0,1-.28-.77,5.46,5.46,0,0,1-.09-.79c0-.27,0-.53,0-.8a3.55,3.55,0,0,0-.17-.81.79.79,0,0,0-.21-.24,1,1,0,0,1-.24-.28,2.5,2.5,0,0,1-.28-.58c0-.16-.19-.29-.44-.38-.81,0-1.62,0-2.43-.07a13.64,13.64,0,0,0-2.4.07,1.61,1.61,0,0,0-.48.12,1.68,1.68,0,0,1-.49.12,1.24,1.24,0,0,1-.27,0,.75.75,0,0,0-.24,0,1.92,1.92,0,0,0-.93.43,3.49,3.49,0,0,0-.69.71.93.93,0,0,0-.16.5,1.87,1.87,0,0,1-.12.57,1.35,1.35,0,0,1-.34.5.57.57,0,0,0-.18.57,2.32,2.32,0,0,0-.63.69c-.18.27-.34.55-.5.84a5.7,5.7,0,0,1-.54.81,1.69,1.69,0,0,1-.7.55,1.74,1.74,0,0,0-.33.18.7.7,0,0,1-.33.1c-.12,0-.18-.06-.19-.1s-.09-.12-.22-.21l-.5-.31a5.65,5.65,0,0,1-.57-.38,4.31,4.31,0,0,1-.5-.43,1.71,1.71,0,0,1-.33-.43c-.18-.39-.22-.68-.1-.85s.26-.38.44-.63l.87-1.25c.32-.46.6-.89.86-1.31a7.27,7.27,0,0,0,.36-.65,2.79,2.79,0,0,1,.4-.59,2.21,2.21,0,0,1,.7-.62,1.4,1.4,0,0,0,.61-.62,1,1,0,0,0,.07-.36,1.44,1.44,0,0,1,.06-.4,3.59,3.59,0,0,1,.87-1.24,3.79,3.79,0,0,0,.89-1.24,1,1,0,0,0,.09-.33,1,1,0,0,1,.09-.32,9.37,9.37,0,0,1,1.36-2.28A16.07,16.07,0,0,0,377,314.75Zm4.83-.1a3.37,3.37,0,0,0-.71.7,1.8,1.8,0,0,1-.77.61,3.33,3.33,0,0,1-.33.58,1.36,1.36,0,0,1-.5.45,2.27,2.27,0,0,1-.41.95c-.21.26-.41.52-.59.77a2.25,2.25,0,0,0-.24.3l-.24.33a1.27,1.27,0,0,1-.35.25,1.39,1.39,0,0,0-.31.23,7,7,0,0,0-.45.76c-.16.32-.31.58-.44.79l-.35.34a.45.45,0,0,0-.1.45.56.56,0,0,0,.41.36,2.94,2.94,0,0,0,.71.11,6.54,6.54,0,0,0,.77,0l.63,0h1a7.65,7.65,0,0,0,1,0,2.9,2.9,0,0,0,.83-.18,1.27,1.27,0,0,0,.57-.41,4.79,4.79,0,0,0,.17-2.22c-.11-.75-.22-1.49-.31-2.23a5.69,5.69,0,0,1-.1-.69,4,4,0,0,1,0-.69,1.71,1.71,0,0,1,.22-.67.91.91,0,0,0,0-.78Z"/><path d="M406.17,321.78a.18.18,0,0,0,.12.19l.26.11a1.26,1.26,0,0,1,.26.13.2.2,0,0,1,.08.23,4.47,4.47,0,0,0,.88.71,3.41,3.41,0,0,1,.88.77,1,1,0,0,1,.14.4.76.76,0,0,0,.14.39,1.63,1.63,0,0,1,.27,1.43,4,4,0,0,1-.74,1.42,6.26,6.26,0,0,1-1.26,1.2,6.83,6.83,0,0,1-1.27.78,4.12,4.12,0,0,1-1,.38l-1.19.24a1.25,1.25,0,0,0-.31.1l-.31.14a7.3,7.3,0,0,1-2.17.16,15.15,15.15,0,0,0-2.24,0,6.75,6.75,0,0,0-.71.1,1.38,1.38,0,0,1-.74-.06,1.09,1.09,0,0,1-.35-.16,1,1,0,0,0-.34-.16.93.93,0,0,0-.52,0,2.71,2.71,0,0,1-.55.12,2.6,2.6,0,0,1-.79,0,3.11,3.11,0,0,0-.86,0,1.48,1.48,0,0,0-.45.12,1.66,1.66,0,0,1-.45.12,10.87,10.87,0,0,1-1.4.12c-.47,0-.88,0-1.22,0a.92.92,0,0,1-.38-.07,1.09,1.09,0,0,0-.35-.07,2.56,2.56,0,0,0-.44.06l-.62.06a1.31,1.31,0,0,1-.54-.05.29.29,0,0,1-.22-.31c0-.09.06-.18.19-.27a2.88,2.88,0,0,1,.43-.26l.48-.24a2.35,2.35,0,0,0,.38-.23,6.19,6.19,0,0,0,.53-.48,8.14,8.14,0,0,0,.64-.67,6.07,6.07,0,0,0,.55-.73,2,2,0,0,0,.31-.63.54.54,0,0,0,0-.31.66.66,0,0,1,0-.28,5.12,5.12,0,0,1,.33-1c.17-.4.32-.74.43-1a4,4,0,0,0,.11-.52,1.92,1.92,0,0,1,.1-.48,3.65,3.65,0,0,1,.38-.68,6.17,6.17,0,0,0,.39-.6,2.32,2.32,0,0,0,.28-.67,2.91,2.91,0,0,0,0-.92,2.19,2.19,0,0,0-.1-.34,1.51,1.51,0,0,1-.1-.38,2,2,0,0,1,.36-1.14,2.72,2.72,0,0,0,.46-1.14.54.54,0,0,0-.07-.29.65.65,0,0,1-.06-.29A2.74,2.74,0,0,1,394,316a8,8,0,0,0,.19-.78,2.24,2.24,0,0,0-.16-1.1,5.85,5.85,0,0,0-.5-1,1.63,1.63,0,0,0-.26-.27,2.76,2.76,0,0,1-.29-.3,1.31,1.31,0,0,1-.23-.36,1,1,0,0,1,0-.55,2.58,2.58,0,0,1,1.08,0,2.5,2.5,0,0,1,.81.36,5.19,5.19,0,0,1,1.57,0,6,6,0,0,1,1.4.42,4.35,4.35,0,0,1,.95,0c.31,0,.62.06.95.11a.71.71,0,0,1,.32.07.93.93,0,0,0,.33.07,2.07,2.07,0,0,0,.76-.16,3.47,3.47,0,0,1,.76-.22.88.88,0,0,1,.51,0,1.15,1.15,0,0,0,1-.05.86.86,0,0,1,.38-.1,5.3,5.3,0,0,1,1.54-.05,4.85,4.85,0,0,1,1.36.32,1,1,0,0,0,.55,0,.89.89,0,0,1,.59.09,3.78,3.78,0,0,0,.88.41,2.6,2.6,0,0,1,.81.45,2.76,2.76,0,0,1,.43.47,1.14,1.14,0,0,0,.53.39.37.37,0,0,1,.26.28.61.61,0,0,0,.26.34,1.91,1.91,0,0,1,.71,1,3.18,3.18,0,0,1,.22,1.27,1.6,1.6,0,0,1-.29.68,6.51,6.51,0,0,0-.43.6,3.09,3.09,0,0,0-.21.41,1.24,1.24,0,0,1-.24.38,2.29,2.29,0,0,1-.36.21,3.75,3.75,0,0,0-.44.24,2.37,2.37,0,0,0-.48.41.86.86,0,0,1-.45.31,3,3,0,0,0-.46.26,1.65,1.65,0,0,1-.43.23c-.37.11-.7.23-1,.34A1.61,1.61,0,0,0,406.17,321.78ZM398,328.44a2.15,2.15,0,0,0,1.31-.4,4.06,4.06,0,0,1,1.14-.57,2.84,2.84,0,0,1,.76-.1,1.45,1.45,0,0,0,.65-.14,1.09,1.09,0,0,0,.4-.33,2.67,2.67,0,0,0,.26-.32,4.08,4.08,0,0,0,.26-.76,8.89,8.89,0,0,0,.22-1.07c.09-.69,0-1.13-.36-1.31a3.53,3.53,0,0,0-1.36-.35,13.63,13.63,0,0,0-1.78-.08,6,6,0,0,0-1.64.26c-.09.18-.19.37-.31.57s-.23.39-.34.6l-.38.57a3,3,0,0,0-.34.6,1.76,1.76,0,0,0-.16.83,2.4,2.4,0,0,1-.16.93,3.65,3.65,0,0,1,.18.41.82.82,0,0,0,.24.38,1.08,1.08,0,0,1,.69.1A1.43,1.43,0,0,0,398,328.44Zm4.83-8.17a.79.79,0,0,1,.55-.3,1.58,1.58,0,0,0,.66-.19,2.07,2.07,0,0,0,.43-.31,5.37,5.37,0,0,0,.46-.48,3.8,3.8,0,0,0,.42-.57c.11-.19.2-.36.27-.5a1.36,1.36,0,0,0,.11-1.08,4,4,0,0,0-.42-.95,2.31,2.31,0,0,0-.31-.43,1.28,1.28,0,0,0-.41-.37.57.57,0,0,0-.26,0,.48.48,0,0,1-.29,0l-1-.13-1.09-.14a2,2,0,0,0-1.67.39,4.3,4.3,0,0,0-.81,1.57c-.18.56-.35,1.1-.5,1.64s-.29,1.11-.43,1.71a1.72,1.72,0,0,0,.91.36,4.65,4.65,0,0,0,1.05,0l1.14-.18A4.89,4.89,0,0,1,402.79,320.27Z"/><path d="M425.72,312.47a2,2,0,0,0,.55.07,2.59,2.59,0,0,1,.55.07.35.35,0,0,1,.21.07.62.62,0,0,0,.2.1.26.26,0,0,0,.21,0,.38.38,0,0,1,.21,0,3,3,0,0,1,1.27.64,8.36,8.36,0,0,1,1,1.05c.14.23.31.5.52.81a5.29,5.29,0,0,1,.51,1,3.94,3.94,0,0,1,.24,1.19,2.5,2.5,0,0,1-.24,1.24,3.69,3.69,0,0,1-.2.43c-.1.17-.19.35-.28.53a6.35,6.35,0,0,1-.52.8,1.83,1.83,0,0,1-.65.58l-.47.31a2.43,2.43,0,0,1-.46.28,3.94,3.94,0,0,0-.95.5,4.74,4.74,0,0,1-.95.53,1.12,1.12,0,0,1-.36.09,1.06,1.06,0,0,0-.36.09,1,1,0,0,0-.38.38.81.81,0,0,1-.52.34,3.33,3.33,0,0,1,1.59.95,5.66,5.66,0,0,1,1.1,1.53,2.94,2.94,0,0,0,.48.87,1.18,1.18,0,0,1,.28.86,1.52,1.52,0,0,1,.39.53,4,4,0,0,1,.26.71c.07.25.13.51.19.77a3.29,3.29,0,0,0,.23.71,2.74,2.74,0,0,0,.45.74,5.35,5.35,0,0,0,.51.55l.55.55a2.78,2.78,0,0,1,.49.75.91.91,0,0,0,.22-.09.42.42,0,0,1,.26,0,3.91,3.91,0,0,0,1.15.59,9.61,9.61,0,0,0,1.57.34,6,6,0,0,0,1.5.09,13.47,13.47,0,0,0,1.47-.19,2.51,2.51,0,0,0,.6-.19,6.93,6.93,0,0,1,.72-.26,1.72,1.72,0,0,1,.64-.08c.19,0,.28.13.28.36a1,1,0,0,1-.31.58,3.57,3.57,0,0,1-.55.52,4.72,4.72,0,0,1-1.35.66,12.58,12.58,0,0,1-1.58.39,16,16,0,0,1-1.69.23c-.58,0-1.12.08-1.62.1a2.42,2.42,0,0,1-.88-.15,4.79,4.79,0,0,0-.71-.23c-.46-.07-.87-.15-1.22-.24a4.11,4.11,0,0,1-1-.41,2.33,2.33,0,0,1-.72-.68,1.37,1.37,0,0,0-.87-.53l-1.79-1.6a5.65,5.65,0,0,1-1.41-2,6.1,6.1,0,0,0-.38-.6,2.23,2.23,0,0,1-.31-.64,1.47,1.47,0,0,1-.12-.52,4,4,0,0,0-.09-.62,6.08,6.08,0,0,0-.21-.81q-.14-.44-.27-.81a1.06,1.06,0,0,0-.11-.21.93.93,0,0,1-.1-.2c-.05-.14-.09-.31-.14-.5a.88.88,0,0,0-.24-.47,2.72,2.72,0,0,0-.57-.31,5.67,5.67,0,0,0-.67-.24,1.68,1.68,0,0,0-.74,0,3.83,3.83,0,0,1-.67.14,3.19,3.19,0,0,1-.87,0,1.34,1.34,0,0,0-.68.05,1.48,1.48,0,0,0-.8.9,5.24,5.24,0,0,0-.38,1.51,9,9,0,0,1-.41,1.54,13,13,0,0,0-.45,1.43,1.59,1.59,0,0,1-.45.74,1,1,0,0,1-.86.22l-.43-.05a1.12,1.12,0,0,1-.4-.15,4.09,4.09,0,0,0-.6.33l-.6.36c-.76.23-1.19.17-1.3-.18a3.57,3.57,0,0,1,.12-1.65,6.4,6.4,0,0,1,.54-1.41,6.21,6.21,0,0,0,.5-1.18,2.24,2.24,0,0,0,.05-.56c0-.18,0-.34-.05-.5a3.77,3.77,0,0,1,0-.44.61.61,0,0,1,.14-.36,1.08,1.08,0,0,1,.21-.6,1.51,1.51,0,0,0,.24-.6c.05-.23.1-.48.17-.73a4,4,0,0,0,.14-.72c0-.28,0-.54.05-.78a2.42,2.42,0,0,1,.23-.84c.11-.3.23-.61.36-.92a4.63,4.63,0,0,0,.26-.91,5.51,5.51,0,0,0,.08-.71,2.16,2.16,0,0,1,.16-.7.73.73,0,0,1,.29-.45.79.79,0,0,0,.29-.45.61.61,0,0,0,0-.38.4.4,0,0,1,0-.34,2.6,2.6,0,0,0,.14-1.09,2,2,0,0,0-.23-.66c-.1-.17-.19-.33-.27-.5a.93.93,0,0,1,0-.65c.12,0,.22-.12.31-.29a.58.58,0,0,1,.38-.33,3.27,3.27,0,0,1,.52-.05l.82,0h.87l.65,0a2.74,2.74,0,0,0,.69,0l.86-.07h.85a1.51,1.51,0,0,1,.67.13Zm-5.24,8.8a1.13,1.13,0,0,0,.53-.14.64.64,0,0,1,.5-.07,5.46,5.46,0,0,0,.69.1l.76.11a.57.57,0,0,0,.34,0,.92.92,0,0,1,.45,0,5.66,5.66,0,0,1,1-.62,2.08,2.08,0,0,0,.81-.83c.12-.21.25-.41.38-.6a2.43,2.43,0,0,0,.28-.5,1.73,1.73,0,0,0-.07-1.37c-.21-.38-.4-.71-.59-1a2.6,2.6,0,0,0-.65-.74,1.54,1.54,0,0,0-1-.16,8.06,8.06,0,0,1-1.2,0,7.92,7.92,0,0,0-1.19,0,3.49,3.49,0,0,0-1,.2,1.16,1.16,0,0,0-.65.62q-.18.52-.42,1.14t-.45,1.26c-.13.43-.25.86-.34,1.29a6.35,6.35,0,0,0-.14,1.28,2.81,2.81,0,0,1,1,.05A3.42,3.42,0,0,0,420.48,321.27Z"/><path d="M432.17,328.71a2.75,2.75,0,0,1,.53-1.43,5,5,0,0,0,.71-1.32,5.71,5.71,0,0,0,.19-.95c0-.34,0-.67.06-1s0-.67.09-1a5.71,5.71,0,0,1,.24-1,1.19,1.19,0,0,1-.14-.68,6.91,6.91,0,0,0,0-.8,1.88,1.88,0,0,0,.27-.55.63.63,0,0,1,.49-.41A3.76,3.76,0,0,0,435,318a8.85,8.85,0,0,1,.17-1.67.8.8,0,0,1,.14-.31,1.23,1.23,0,0,0,.17-.32,4.81,4.81,0,0,0,.25-1.53,4.32,4.32,0,0,1,.27-1.53,4,4,0,0,0,.52-.23l.64-.31c.22-.1.43-.19.63-.26a1.27,1.27,0,0,1,.56-.07,1.93,1.93,0,0,1,.34.19l.41.3a2,2,0,0,1,.33.24,2.52,2.52,0,0,0,.33.24,1.26,1.26,0,0,0,.36.12.9.9,0,0,1,.3.12l.22.24.38.45.36.47a2.77,2.77,0,0,1,.21.29,1.12,1.12,0,0,1,0,.47,2.64,2.64,0,0,1-.19.51l-.24.52c-.08.17-.14.33-.19.46s-.14.5-.21.75a5.16,5.16,0,0,1-.27.74c-.12.3-.24.64-.38,1a5.59,5.59,0,0,0-.28,1.24,1,1,0,0,1-.36.73,1.18,1.18,0,0,0-.39.69,2.7,2.7,0,0,0-.07.65c0,.23,0,.46,0,.67a3.42,3.42,0,0,1,0,.64,1.51,1.51,0,0,1-.15.59.67.67,0,0,1-.31.26.81.81,0,0,0-.35.25,4.87,4.87,0,0,0-.36.87,10.68,10.68,0,0,0-.26,1.08,5.47,5.47,0,0,0-.08,1.14,2.94,2.94,0,0,0,.19,1,2.22,2.22,0,0,1-.61,1,2.86,2.86,0,0,1-1,.64,3.76,3.76,0,0,1-1.26.24,3.84,3.84,0,0,1-1.36-.22,4.87,4.87,0,0,0-.66-.78A2.33,2.33,0,0,1,432.17,328.71Z"/><path d="M454.09,316.06a.77.77,0,0,1,.42.36,2,2,0,0,1,.15.47l.12.48a.62.62,0,0,0,.35.38.93.93,0,0,0,.24.17l.38.23a2.89,2.89,0,0,0,.39.2.39.39,0,0,0,.3,0,.59.59,0,0,0,.38-.31,3.07,3.07,0,0,0,.29-.63,3.22,3.22,0,0,0,.15-.75,1.54,1.54,0,0,0,0-.62,1.72,1.72,0,0,0-.38-.29,4.25,4.25,0,0,0-.48-.26,5.26,5.26,0,0,1-.9-.41,5.62,5.62,0,0,0-.89-.42,1.64,1.64,0,0,1-.44-.22.77.77,0,0,0-.43-.15.4.4,0,0,0-.31.05.71.71,0,0,1-.34.08,2,2,0,0,1-.5,0,4.19,4.19,0,0,0-.61,0c-.2,0-.41.06-.63.1a1.63,1.63,0,0,0-.57.24,2.3,2.3,0,0,0-.64.85c-.13.31-.29.66-.5,1.05a1.45,1.45,0,0,1-.24.31.53.53,0,0,0-.17.41.29.29,0,0,0,.12.24.76.76,0,0,1,.19.32,1.26,1.26,0,0,1,.13.43.62.62,0,0,0,.32.58l.17.16a.61.61,0,0,1,.15.24.49.49,0,0,0,.16.21l.6.36a2.66,2.66,0,0,0,.81.33,4.11,4.11,0,0,1,1.19.43c.36.19.71.36,1,.5a2,2,0,0,1,.61.39,5.21,5.21,0,0,1,.39.45l.36.43a1.19,1.19,0,0,0,.54.31.76.76,0,0,0,.31.07.8.8,0,0,1,.31.07,1.31,1.31,0,0,1,.34.22l.38.33a2.55,2.55,0,0,1,.26.3,1.43,1.43,0,0,1,.19.29,1.46,1.46,0,0,1,.14.53q0,.33,0,.54a7.49,7.49,0,0,1,0,1.31,4,4,0,0,1-.24.89,6,6,0,0,1-.43.83,8.45,8.45,0,0,0-.57,1.07c-.3.14-.61.29-.93.46a6,6,0,0,0-.83.54c-.12.09-.28.21-.48.34a2.19,2.19,0,0,1-.55.28,4.71,4.71,0,0,1-1.18.21,4.28,4.28,0,0,0-1.27.24,1.8,1.8,0,0,1-.81,0,3.54,3.54,0,0,0-.85,0,7.3,7.3,0,0,0-.76.15,1.55,1.55,0,0,1-.72,0,3.85,3.85,0,0,1-1.07-.36c-.39-.2-.73-.39-1-.57a.73.73,0,0,1-.28-.19,1,1,0,0,0-.27-.22,1.5,1.5,0,0,0-.49-.19,1.07,1.07,0,0,1-.45-.23l-.38-.33-.34-.32c-.28-.19-.58-.38-.91-.57a2.22,2.22,0,0,1-.71-.6.94.94,0,0,1-.16-.47,1.42,1.42,0,0,0-.15-.57,1,1,0,0,0-.24-.41.66.66,0,0,1-.21-.35,2,2,0,0,1,.1-1.07c.14-.39.27-.72.38-1a1.74,1.74,0,0,1,1.09.12,2.28,2.28,0,0,1,.74.61,4.51,4.51,0,0,1,.55.84,6,6,0,0,0,.49.81,1.72,1.72,0,0,0,.86.69l1.14.48.39.19.36.16a5.76,5.76,0,0,1,.78.36,1.75,1.75,0,0,0,.71.23,3.71,3.71,0,0,0,.67-.06l.74-.12a2.39,2.39,0,0,1,.83-.12,1.79,1.79,0,0,0,.79-.15c.3-.12.47-.25.52-.42a2.78,2.78,0,0,1,.31-.65,3.08,3.08,0,0,0-.31-.93,3.23,3.23,0,0,0-.62-.66,1.71,1.71,0,0,0-.4-.22,3,3,0,0,1-.4-.19c-.48-.3-1-.6-1.58-.9a6.52,6.52,0,0,0-1.9-.62,9.44,9.44,0,0,1-1.36-.57,2.26,2.26,0,0,1-1-1,.53.53,0,0,1-.12-.28,1.58,1.58,0,0,0-.08-.31,5.53,5.53,0,0,0-.78-1.31,3.29,3.29,0,0,1-.67-1.41,1.2,1.2,0,0,1,0-.5c0-.17.05-.34.09-.5s.06-.33.09-.52a1.66,1.66,0,0,0,0-.58.6.6,0,0,0,.17-.28,1.53,1.53,0,0,1,.11-.27,1.54,1.54,0,0,0,.19-.44.84.84,0,0,1,.29-.43,2.3,2.3,0,0,0,.4-.43,1.64,1.64,0,0,1,.32-.36.62.62,0,0,1,.25-.09.62.62,0,0,0,.24-.08,1.86,1.86,0,0,0,.31-.26,2.16,2.16,0,0,1,.31-.29,6.86,6.86,0,0,1,1.55-.88,11,11,0,0,1,1.76-.57,1,1,0,0,1,.44-.29,3.57,3.57,0,0,1,.68-.18l.7-.08.59-.07a9.67,9.67,0,0,1,1.71.34c.42.14.82.28,1.2.43s.79.3,1.23.43a9.67,9.67,0,0,0,1.69.35c.27.21.57.45.88.74a5.22,5.22,0,0,1,.81.95,3.91,3.91,0,0,1,.5,1.08,1.79,1.79,0,0,1-.09,1.16,3.41,3.41,0,0,0-.28.78,2.49,2.49,0,0,1-.31.77c-.11.19-.23.4-.36.66a2.26,2.26,0,0,1-.43.62,2.78,2.78,0,0,1-1.24.69,4.2,4.2,0,0,1-1.48.13,1.73,1.73,0,0,0-.64-.58l-.86-.5a5.16,5.16,0,0,1-.8-.59,1.5,1.5,0,0,1-.46-.81,3.09,3.09,0,0,1,.05-1.24A1.28,1.28,0,0,1,454.09,316.06Z"/><path d="M467.68,314.75a5.57,5.57,0,0,0,1.13-1c.33-.39.64-.79.94-1.18a.66.66,0,0,0,.48-.1,1.69,1.69,0,0,1,.45-.21,1.72,1.72,0,0,1,1,0,2.78,2.78,0,0,0,1,.12,3.59,3.59,0,0,0,1.12-.31,3.08,3.08,0,0,1,1.26-.24.76.76,0,0,1,.45.15.85.85,0,0,0,.41.19.58.58,0,0,0,.5-.07,1,1,0,0,1,.5-.13.9.9,0,0,1,.74.31c.18.2.38.41.61.62a4.05,4.05,0,0,1,0,1.55,6.16,6.16,0,0,0-.07,1.55c.05.35.1.68.16,1a6.53,6.53,0,0,1,.08,1,3.43,3.43,0,0,1-.05.95,4.06,4.06,0,0,0-.05,1,2.3,2.3,0,0,0,.1.35.57.57,0,0,1,0,.34,1,1,0,0,1-.31.59.8.8,0,0,0-.28.55,1.37,1.37,0,0,0,.23,1,2.41,2.41,0,0,1,.36.94,1,1,0,0,1,0,.44,1.86,1.86,0,0,0-.06.45,8.71,8.71,0,0,0,0,1.69c.06.62.1,1.2.12,1.73a3.51,3.51,0,0,0,.05.55.84.84,0,0,1,0,.45.53.53,0,0,1-.16.27.88.88,0,0,0-.19.24,1.35,1.35,0,0,0,0,.48,4.27,4.27,0,0,1,.05.59,3.59,3.59,0,0,1,0,.47,2,2,0,0,0,0,.39,1.36,1.36,0,0,0,.09.23.34.34,0,0,1,0,.22,1.45,1.45,0,0,1-.47.67,1.07,1.07,0,0,1-.81.33,1.52,1.52,0,0,1-.6-.33,4.54,4.54,0,0,1-.57-.46,1.79,1.79,0,0,1-.38-1,3.4,3.4,0,0,0-.31-1.07,1.43,1.43,0,0,0-.29-.32,1.65,1.65,0,0,1-.33-.37,2.56,2.56,0,0,1-.28-.77,7.29,7.29,0,0,1-.08-.79c0-.27,0-.53-.06-.8a3.55,3.55,0,0,0-.17-.81.64.64,0,0,0-.2-.24.85.85,0,0,1-.25-.28,2.41,2.41,0,0,1-.27-.58.66.66,0,0,0-.45-.38c-.81,0-1.62,0-2.43-.07a13.64,13.64,0,0,0-2.4.07,1.69,1.69,0,0,0-.48.12,1.69,1.69,0,0,1-.48.12,1.27,1.27,0,0,1-.28,0,.75.75,0,0,0-.24,0,2,2,0,0,0-.93.43,3.49,3.49,0,0,0-.69.71,1.14,1.14,0,0,0-.16.5,1.87,1.87,0,0,1-.12.57,1.35,1.35,0,0,1-.34.5.57.57,0,0,0-.17.57,2.23,2.23,0,0,0-.64.69c-.17.27-.34.55-.5.84a5.7,5.7,0,0,1-.54.81,1.69,1.69,0,0,1-.7.55,1.74,1.74,0,0,0-.33.18.64.64,0,0,1-.33.1c-.11,0-.18-.06-.19-.1s-.08-.12-.22-.21l-.5-.31a5.65,5.65,0,0,1-.57-.38,5.34,5.34,0,0,1-.5-.43,1.71,1.71,0,0,1-.33-.43c-.18-.39-.22-.68-.1-.85s.26-.38.45-.63l.86-1.25c.32-.46.61-.89.86-1.31a7.27,7.27,0,0,0,.36-.65,3.23,3.23,0,0,1,.4-.59,2.14,2.14,0,0,1,.71-.62,1.43,1.43,0,0,0,.6-.62.86.86,0,0,0,.07-.36,1.16,1.16,0,0,1,.07-.4,3.43,3.43,0,0,1,.86-1.24,4,4,0,0,0,.9-1.24,1.32,1.32,0,0,0,.08-.33,1,1,0,0,1,.09-.32,9.7,9.7,0,0,1,1.36-2.28A16.18,16.18,0,0,0,467.68,314.75Zm4.82-.1a3.32,3.32,0,0,0-.7.7,1.89,1.89,0,0,1-.78.61,3.33,3.33,0,0,1-.33.58,1.28,1.28,0,0,1-.5.45,2.15,2.15,0,0,1-.41.95c-.21.26-.4.52-.59.77a2.25,2.25,0,0,0-.24.3l-.24.33a1.23,1.23,0,0,1-.34.25,1.19,1.19,0,0,0-.31.23,4.76,4.76,0,0,0-.45.76,7.38,7.38,0,0,1-.45.79l-.35.34a.47.47,0,0,0-.1.45.56.56,0,0,0,.41.36,3,3,0,0,0,.71.11,6.71,6.71,0,0,0,.78,0l.62,0h1a7.81,7.81,0,0,0,1,0,2.83,2.83,0,0,0,.82-.18,1.22,1.22,0,0,0,.57-.41,4.93,4.93,0,0,0,.18-2.22c-.12-.75-.22-1.49-.32-2.23a5.69,5.69,0,0,1-.1-.69,4,4,0,0,1,0-.69,1.58,1.58,0,0,1,.23-.67,1,1,0,0,0,.05-.78Z"/><path d="M493.22,316.06a.77.77,0,0,1,.42.36,2,2,0,0,1,.15.47l.12.48a.65.65,0,0,0,.35.38,1.16,1.16,0,0,0,.24.17l.38.23a3,3,0,0,0,.4.2.37.37,0,0,0,.29,0,.57.57,0,0,0,.38-.31,3.07,3.07,0,0,0,.29-.63,3.85,3.85,0,0,0,.16-.75,1.72,1.72,0,0,0,0-.62,1.49,1.49,0,0,0-.38-.29,3,3,0,0,0-.48-.26,5.26,5.26,0,0,1-.9-.41,5.62,5.62,0,0,0-.89-.42,1.6,1.6,0,0,1-.43-.22.8.8,0,0,0-.43-.15.39.39,0,0,0-.31.05.74.74,0,0,1-.35.08,2,2,0,0,1-.5,0,4.06,4.06,0,0,0-.6,0c-.21,0-.42.06-.64.1a1.63,1.63,0,0,0-.57.24,2.3,2.3,0,0,0-.64.85,9.58,9.58,0,0,1-.5,1.05,1,1,0,0,1-.24.31.57.57,0,0,0-.17.41.29.29,0,0,0,.12.24.76.76,0,0,1,.19.32,1.55,1.55,0,0,1,.14.43,1.39,1.39,0,0,0,.1.39,1.8,1.8,0,0,0,.21.19l.17.16a.78.78,0,0,1,.16.24.41.41,0,0,0,.15.21l.6.36a2.66,2.66,0,0,0,.81.33,4,4,0,0,1,1.19.43c.36.19.71.36,1.05.5a1.89,1.89,0,0,1,.61.39,3.91,3.91,0,0,1,.39.45c.12.15.24.29.37.43a1.1,1.1,0,0,0,.53.31.8.8,0,0,0,.31.07.76.76,0,0,1,.31.07,1.35,1.35,0,0,1,.35.22,4.29,4.29,0,0,0,.38.33,2.48,2.48,0,0,1,.25.3,1.43,1.43,0,0,1,.19.29,1.46,1.46,0,0,1,.14.53c0,.22,0,.4,0,.54a7.33,7.33,0,0,1,0,1.31,3.15,3.15,0,0,1-.24.89,5,5,0,0,1-.43.83c-.17.28-.36.63-.57,1.07-.3.14-.61.29-.93.46a6.65,6.65,0,0,0-.83.54,4.51,4.51,0,0,1-.48.34,2.19,2.19,0,0,1-.55.28,4.54,4.54,0,0,1-1.17.21,4.34,4.34,0,0,0-1.28.24,1.8,1.8,0,0,1-.81,0,3.47,3.47,0,0,0-.84,0,6.8,6.8,0,0,0-.76.15,1.6,1.6,0,0,1-.73,0,3.85,3.85,0,0,1-1.07-.36c-.39-.2-.73-.39-1-.57a.73.73,0,0,1-.28-.19,1,1,0,0,0-.27-.22,1.35,1.35,0,0,0-.49-.19,1,1,0,0,1-.44-.23,4.29,4.29,0,0,1-.38-.33l-.35-.32c-.27-.19-.58-.38-.91-.57a2.34,2.34,0,0,1-.71-.6.85.85,0,0,1-.15-.47,1.62,1.62,0,0,0-.16-.57.82.82,0,0,0-.24-.41.82.82,0,0,1-.21-.35,1.94,1.94,0,0,1,.11-1.07c.14-.39.26-.72.38-1a1.71,1.71,0,0,1,1.08.12,2.18,2.18,0,0,1,.74.61,5.11,5.11,0,0,1,.56.84,7.23,7.23,0,0,0,.48.81,1.72,1.72,0,0,0,.86.69l1.14.48.39.19.37.16a6.21,6.21,0,0,1,.77.36,1.8,1.8,0,0,0,.71.23,3.71,3.71,0,0,0,.67-.06l.74-.12a2.39,2.39,0,0,1,.83-.12,1.77,1.77,0,0,0,.79-.15c.3-.12.47-.25.52-.42a3.26,3.26,0,0,1,.31-.65,2.82,2.82,0,0,0-.31-.93,3.23,3.23,0,0,0-.62-.66,1.71,1.71,0,0,0-.4-.22,2.36,2.36,0,0,1-.39-.19c-.49-.3-1-.6-1.59-.9a6.43,6.43,0,0,0-1.9-.62,9.44,9.44,0,0,1-1.36-.57,2.18,2.18,0,0,1-1-1,.65.65,0,0,1-.13-.28,1.58,1.58,0,0,0-.08-.31,5.21,5.21,0,0,0-.78-1.31,3.41,3.41,0,0,1-.67-1.41,1.05,1.05,0,0,1,0-.5c0-.17.05-.34.08-.5a3.74,3.74,0,0,0,.09-.52,1.66,1.66,0,0,0,0-.58.63.63,0,0,0,.18-.28,1,1,0,0,1,.1-.27,1.31,1.31,0,0,0,.19-.44.84.84,0,0,1,.29-.43,2,2,0,0,0,.4-.43,1.45,1.45,0,0,1,.33-.36.63.63,0,0,1,.24-.09.62.62,0,0,0,.24-.08,1.53,1.53,0,0,0,.31-.26,2.16,2.16,0,0,1,.31-.29,7.09,7.09,0,0,1,1.55-.88,11.28,11.28,0,0,1,1.76-.57,1,1,0,0,1,.45-.29,3.28,3.28,0,0,1,.67-.18l.71-.08.58-.07a9.48,9.48,0,0,1,1.71.34c.43.14.83.28,1.21.43s.78.3,1.22.43a9.88,9.88,0,0,0,1.69.35,10.49,10.49,0,0,1,.88.74,5.22,5.22,0,0,1,.81.95,3.64,3.64,0,0,1,.5,1.08,1.79,1.79,0,0,1-.09,1.16,4,4,0,0,0-.27.78,3.1,3.1,0,0,1-.31.77,7.45,7.45,0,0,0-.37.66,2.26,2.26,0,0,1-.43.62,2.73,2.73,0,0,1-1.24.69,4.18,4.18,0,0,1-1.48.13,1.73,1.73,0,0,0-.64-.58l-.86-.5a4.64,4.64,0,0,1-.79-.59,1.52,1.52,0,0,1-.47-.81,3.09,3.09,0,0,1,.05-1.24A1.31,1.31,0,0,1,493.22,316.06Z"/><path class="cls-1" d="M215.46,156l-.21-8.19a8.72,8.72,0,0,0-.44-3.07,10.28,10.28,0,0,1-.43-1.22c0-.63,1-1.12,2.92-1.47a28.51,28.51,0,0,1,4.46-.52c1,0,1.58.25,1.67.74q2.73,12.16,4.59,16.89c.15.35.3.52.46.52s.29-.13.41-.39q2.9-8.19,5.11-16.2a1.35,1.35,0,0,1,.86-.8,11.81,11.81,0,0,1,2.41-.54,23,23,0,0,1,3.4-.26c1.12,0,1.69.23,1.69.69,0,0-.05.25-.13.67s-.18.93-.26,1.54-.19,1.34-.31,2.21a67.87,67.87,0,0,0-.49,6.86c-.08,2.59-.11,5.18-.11,7.78l.08,4.54a16.35,16.35,0,0,0,.42,4.44,11.25,11.25,0,0,1,.41,1.52c0,.13-.1.28-.31.46a6.4,6.4,0,0,1-4.07,1.08q-1.72,0-2-1.17a10.86,10.86,0,0,1-.13-1.93q0-1.32.26-8.12c.18-4.53.26-7.83.26-9.9s-.11-3.09-.34-3.09c0,0-.05,0-.05,0s0,0-.13.06a5,5,0,0,0-.67,1.35q-.54,1.29-2.14,6.41t-2.9,9.55q-1.31,4.44-1.43,4.78a1.8,1.8,0,0,1-1.82,1.17,1.28,1.28,0,0,1-1-.48q-1.39-6.41-4.94-18.31l-1.21-3.95c-.06-.14-.12-.21-.17-.21s-.25.1-.31.3q-.16,2.82-.17,11.07t.61,10.41a.83.83,0,0,1,0,.26c0,.61-.48,1.05-1.43,1.32a9.17,9.17,0,0,1-2.58.41c-.76,0-1.14-.17-1.14-.52,0,0,.07-.26.21-.69a28.37,28.37,0,0,0,.85-6.41Q215.47,161.45,215.46,156Z"/><path class="cls-1" d="M251.1,153.74a.29.29,0,0,0,.09-.21.71.71,0,0,0-.09-.31,10.8,10.8,0,0,1-1.47-5.19,5.33,5.33,0,0,1,1.76-4.12,6.48,6.48,0,0,1,4.57-1.6,6.32,6.32,0,0,1,2.29.43,3.15,3.15,0,0,1,2.12,3.21c0,2.1-1.44,4.49-4.33,7.14a.24.24,0,0,0-.08.18,93.11,93.11,0,0,0,6.27,12,13.07,13.07,0,0,0,.7-4.38,4.11,4.11,0,0,0-.74-2.42.46.46,0,0,1-.08-.26c0-.41.59-.61,1.77-.61a3,3,0,0,1,2.32.65,3.24,3.24,0,0,1,.54,2.08,13.72,13.72,0,0,1-2.47,8c1.42,2,2.54,3.11,3.38,3.25a.54.54,0,0,1,.41.5c0,.25-.19.45-.63.63a9,9,0,0,1-3.2.86,3.83,3.83,0,0,1-2.56-.69q-.3-.3-1-1.08a11.13,11.13,0,0,1-5.94,1.69,11.41,11.41,0,0,1-7.3-2.28,7.85,7.85,0,0,1-2.88-6.56q0-5.76,6.11-10.65Zm4.25,16.33a7.69,7.69,0,0,0,3.59-.82,76.84,76.84,0,0,1-4-7.71q-2.08-4.51-2.21-4.72c-.09-.15-.16-.22-.22-.22l-.26.13a9,9,0,0,0-2.64,6.89,7.22,7.22,0,0,0,1.45,4.61A5.14,5.14,0,0,0,255.35,170.07Zm-.95-20c0,.18.14.26.26.26a.46.46,0,0,0,.34-.17,5.33,5.33,0,0,0,1.95-3.81,1.77,1.77,0,0,0-.48-1.36,1.72,1.72,0,0,0-1.27-.46,1.51,1.51,0,0,0-1.28.65,3.23,3.23,0,0,0-.48,1.93A6.17,6.17,0,0,0,254.4,150.1Z"/><path class="cls-1" d="M271.37,165.09l.26-7.67h-2.9c-.23,0-.35-.08-.35-.26a3.19,3.19,0,0,1,.74-1.79,2,2,0,0,1,1.6-1h.91c-.05-2.25-.11-3.87-.17-4.85a11.41,11.41,0,0,0-.87-4.07l-.21-.44a.77.77,0,0,1-.18-.52c0-.2.16-.37.48-.52s.79-.31,1.41-.52a36.27,36.27,0,0,1,4-.8,41,41,0,0,1,6.61-.5c2.38,0,3.68.18,3.89.52a3.13,3.13,0,0,1,.33,1.63c0,.74-.1,1.1-.31,1.1l-.3,0a9.26,9.26,0,0,0-2.12-.17,23.56,23.56,0,0,0-5.59.78l-.82.3a.81.81,0,0,0-.52.61,60.18,60.18,0,0,0-.35,7.49h7c.26,0,.39.08.39.26a3.46,3.46,0,0,1-.69,1.82,2,2,0,0,1-1.56,1l-5.16-.05.31,13a2.39,2.39,0,0,1-.31,1.38,5.15,5.15,0,0,1-2.79,1.63,12.81,12.81,0,0,1-3.27.54c-.23,0-.35-.15-.35-.44a1,1,0,0,1,.05-.34Q271,172.46,271.37,165.09Z"/><path class="cls-1" d="M249.89,235.42h-96c-4,0-4.05,0-4,4.13.1,9.71.24,19.43.33,29.15a38.93,38.93,0,0,1-.26,4.45c-.46,4.3-1.79,5.86-6.13,6.27-3.73.36-7.51.25-11.27.27-6,0-12.07,0-18.11-.06s-9.25-3.15-9.44-9.27c0-1.64,0-3.29-.06-4.94-.2-15.36-.22-30.72-.63-46.08-.61-22.57-.29-45.15-.38-67.72,0-11.61,4.16-21.92,9.82-31.73,2.1-3.64,5.79-5.89,9-8.52,1-.78,2.85-1.25,2.28-2.83s-2.3-1.79-3.8-1.91c-4.05-.33-8.13-.34-12.11-1.38-2.8-.74-5.64-1.34-8.43-2.12a11,11,0,0,1-7.43-14.28,32.78,32.78,0,0,1,2.16-5.95c1.35-2.39,3.1-3.93,6.14-4,4.45,0,8.9-.5,13.36-.74a14.13,14.13,0,0,1,3,.08c4.2.71,6.15,3,6.39,7.41a96.15,96.15,0,0,1-.65,13.14c-.14,1.64.3,1.88,1.79,1.63,2.31-.37,3.43-1.77,4.29-3.82q8.91-21.37,18-42.68c2.26-5.25,4.5-10.54,7.81-15.26,2.49-3.55,5.48-6.46,10-7.22,1-.17,1.36-1,1.84-1.68a32,32,0,0,1,4.8-5.77,6,6,0,0,1,6.31-1.41,12.33,12.33,0,0,0,4.17.53H317.52a12.1,12.1,0,0,0,4.18-.51A6,6,0,0,1,328,24,30.36,30.36,0,0,1,333,30a2.83,2.83,0,0,0,1.92,1.55c3.89.63,6.62,3.06,8.93,6,4.35,5.57,6.86,12.13,9.59,18.53,5.69,13.33,11.21,26.74,16.72,40.15.94,2.29,2.23,3.85,4.79,4.28,1.34.23,1.65-.13,1.57-1.42-.24-4-.5-8-.52-12,0-6.74,2.88-9.34,9.63-8.9,4.61.29,9.23.57,13.84.8a5.22,5.22,0,0,1,3.25,1.13c3.88,3.19,5.94,12.88,3.66,17.29a10.83,10.83,0,0,1-7.23,5.88c-6,1.52-12,3.2-18.22,3.16a10,10,0,0,0-2.11.19c-1.38.28-3.14.46-3.58,1.86s1.27,2.19,2.31,2.85c9.27,5.85,13.23,15.17,16.43,25A51.9,51.9,0,0,1,396.43,153c-.14,14.11.11,28.23-.22,42.33-.26,11-.17,21.95-.38,32.92-.2,10.65-.26,21.3-.43,31.94-.06,4.07-.22,8.15-.39,12.22a7.44,7.44,0,0,1-6.09,6.85,33.15,33.15,0,0,1-7,.43q-11.64,0-23.28-.07a16.68,16.68,0,0,1-3.73-.44,5.31,5.31,0,0,1-4.41-4.61,33.08,33.08,0,0,1-.36-4.44c0-10.43,0-20.85.05-31.28,0-3.4,0-3.43-3.36-3.43Zm.33-135.25c14,0,27.91,0,41.86,0,20.76-.07,41.53.29,62.29-.32,3.7-.11,4.47-1.11,3.4-4.61-3.58-11.77-7.44-23.45-11.91-34.91-2.1-5.4-4.11-10.85-7.35-15.72A5,5,0,0,0,334,42.14c-14.79-.1-29.59-.43-44.39-.38-27.11.08-54.22-.37-81.33.26-12.15.28-24.3.11-36.45.14-9.44,0-9.52,0-13.45,8.74-6.51,14.54-11.4,29.68-16.14,44.86-.81,2.57.22,4,2.88,4,4.93.15,9.86.34,14.8.34Q205.08,100.21,250.22,100.17Zm-.26,29.5v0H185.77q-9.28,0-18.58.08c-1.07,0-2.53-.17-3,.73s.76,1.75,1.34,2.52c4.41,5.9,8.8,11.82,13.34,17.62a9,9,0,0,1,1.31,9.69c-1.13,2.75-2.34,5.47-3.41,8.25-1.32,3.43-3,6.75-3.37,10.47-.3,3.08.18,3.57,3.28,3.62,9.71.14,19.43.33,29.14.35q41.11.06,82.23,0c11,0,22.07-.25,33.11-.34,6.41-.05,7.1-.92,5.13-7.07-1.7-5.31-4-10.37-6.12-15.52a8.38,8.38,0,0,1,1-8.86q6.36-8.29,12.59-16.71c.95-1.28,3-2.73,2.38-4s-3.13-.81-4.83-.81Zm.31,62H184.43c-8.8,0-8.8,0-10.78,8.72-1.44,6.35.55,8.91,7,8.93h139a19.31,19.31,0,0,0,3-.18c3.22-.55,4.19-1.74,4.37-5.06.17-3.15-1.13-6-1.89-8.91-.7-2.72-2.14-3.58-5-3.56C296.83,191.72,273.55,191.67,250.27,191.67ZM384,133a21.91,21.91,0,0,0-1-6.73c-.38-1.11-.93-1.91-2.39-1.63-9.93,1.91-20,2.93-30,4.18a5,5,0,0,0-4.05,2.64c-5,8.15-10,16.33-15.64,24-.44.59-1.37,1.12-.91,2s1.49.76,2.31.9a4.83,4.83,0,0,0,1.4-.14l23.76-3c6.05-.77,12.13-1.43,18.16-2.38,4.38-.69,6.57-3,7.13-7.21S383.6,137.24,384,133ZM168,158.44a3.8,3.8,0,0,0,2.37-.84c.51-.53-.06-1-.4-1.41-6.17-7.74-11-16.39-16.17-24.75a5,5,0,0,0-4-2.66c-9.57-1-19.12-2.11-28.58-3.88-2.9-.54-3.45-.51-4.2,3-1.17,5.47-.07,10.9.44,16.35s2.51,7.85,8,8.74c5.25.84,10.54,1.4,15.82,2.07Zm-10.42,20.4-.14-.27c-6.49-.34-13-.65-19.46-1-5.78-.32-11.56-.62-17.33-1.09-3.65-.3-6.41,1.45-6.89,5.08q-.93,7.1-1.44,14.24c-.27,3.75.61,4.63,4.42,5.05.7.07,1.41,0,2.11.09,5,.25,10,.66,15,1.27,5.58.67,11.1,1.6,16.66,2.69a43.43,43.43,0,0,0-6.08-3.33c-1.89-.83-2.52-1.89-2-4,1.13-4.39,2.07-8.84,2.89-13.3a3.4,3.4,0,0,1,3-3.06C151.39,180.47,154.47,179.63,157.57,178.84ZM350,204.63a246.23,246.23,0,0,1,26.86-3.42c2.95-.2,6,.09,8.87-.83,1.46-.46,2.58-1.15,2.44-2.94-.4-5.38-.59-10.79-1.52-16.12a5.78,5.78,0,0,0-6.41-4.94c-4.29.33-8.59.55-12.88.8l-24.45,1.45c3.16,1,6.33,1.88,9.53,2.62a3.16,3.16,0,0,1,2.69,2.79q1.38,7,3,14a2.42,2.42,0,0,1-1.49,3.19C354.35,202.3,352.16,203.49,350,204.63ZM250.08,31h67c.7,0,1.41,0,2.11,0,1.44,0,1.66-.72,1.51-2-.28-2.29-1.92-2.06-3.5-2.06H183.16l-1.65,0a1.6,1.6,0,0,0-1.59,1.12c-.88,2.11-.34,2.88,2.17,2.88Z"/><path class="cls-1" d="M124,196a8.07,8.07,0,0,1-8.1-8,8.2,8.2,0,0,1,8.21-7.74,7.89,7.89,0,0,1,8,8.08A7.81,7.81,0,0,1,124,196Z"/><path class="cls-1" d="M376.29,196a7.86,7.86,0,0,1-8-7.81,8,8,0,0,1,8.13-8,8.24,8.24,0,0,1,8.12,8.09A8.12,8.12,0,0,1,376.29,196Z"/></svg>