<svg id="Capa_1" data-name="Capa 1" xmlns="http://www.w3.org/2000/svg" viewBox="0 0 705.91 144.59"><defs><style>.cls-1{fill:#fff;}</style></defs><path class="cls-1" d="M394.11,90.56l-.26-9.78a10.59,10.59,0,0,0-.52-3.67,13,13,0,0,1-.52-1.45c0-.76,1.17-1.35,3.49-1.76a33.57,33.57,0,0,1,5.33-.62c1.23,0,1.89.29,2,.88q3.27,14.53,5.49,20.18c.17.41.35.62.54.62s.36-.16.49-.47q3.47-9.78,6.11-19.35a1.67,1.67,0,0,1,1-1,14.34,14.34,0,0,1,2.87-.64,26.75,26.75,0,0,1,4.07-.31c1.34,0,2,.27,2,.82q0,.06-.15.81c-.1.5-.21,1.11-.31,1.83s-.23,1.61-.36,2.64c-.31,2.38-.51,5.12-.6,8.2s-.13,6.19-.13,9.29l.11,5.43a19.82,19.82,0,0,0,.49,5.3,13.54,13.54,0,0,1,.49,1.82q0,.22-.36.54a7.68,7.68,0,0,1-4.87,1.29c-1.38,0-2.15-.46-2.33-1.39a12.66,12.66,0,0,1-.15-2.31q0-1.57.31-9.7T418.68,86c0-2.47-.14-3.7-.41-3.7q-.06,0-.06,0s0,0-.15.07a5.89,5.89,0,0,0-.8,1.61c-.43,1-1.29,3.59-2.56,7.66s-2.44,7.87-3.47,11.4-1.6,5.45-1.71,5.72a2.14,2.14,0,0,1-2.17,1.4,1.51,1.51,0,0,1-1.24-.57q-1.67-7.66-5.9-21.89L398.76,83c-.07-.18-.14-.26-.21-.26s-.29.12-.36.36q-.21,3.36-.2,13.22t.72,12.44a.8.8,0,0,1,.05.31c0,.73-.57,1.25-1.71,1.58a11.07,11.07,0,0,1-3.07.49c-.92,0-1.38-.21-1.38-.62,0,0,.09-.31.26-.83a34,34,0,0,0,1-7.65Q394.11,97,394.11,90.56Z"/><path class="cls-1" d="M436.69,87.82a.4.4,0,0,0,.1-.26.94.94,0,0,0-.1-.36A12.83,12.83,0,0,1,434.93,81,6.39,6.39,0,0,1,437,76.07a7.82,7.82,0,0,1,5.46-1.91,7.48,7.48,0,0,1,2.74.52,3.74,3.74,0,0,1,2.54,3.82q0,3.78-5.18,8.54a.29.29,0,0,0-.1.21,112.69,112.69,0,0,0,7.5,14.38,15.87,15.87,0,0,0,.83-5.22,4.87,4.87,0,0,0-.88-2.9.54.54,0,0,1-.1-.31c0-.49.7-.73,2.12-.73s2.33.26,2.77.78a3.86,3.86,0,0,1,.64,2.48,16.45,16.45,0,0,1-2.95,9.63q2.54,3.61,4,3.88a.63.63,0,0,1,.49.59c0,.3-.23.54-.75.75a11,11,0,0,1-3.83,1,4.56,4.56,0,0,1-3.05-.83c-.24-.24-.64-.67-1.19-1.3a13.18,13.18,0,0,1-7.09,2,13.65,13.65,0,0,1-8.72-2.71,9.41,9.41,0,0,1-3.44-7.84q0-6.88,7.3-12.73Zm5.07,19.5a9.34,9.34,0,0,0,4.29-1,91.24,91.24,0,0,1-4.81-9.21q-2.49-5.38-2.64-5.64c-.1-.17-.19-.26-.26-.26l-.31.16a10.82,10.82,0,0,0-3.16,8.22,8.59,8.59,0,0,0,1.74,5.51A6.14,6.14,0,0,0,441.76,107.32Zm-1.14-23.85c.07.21.17.31.31.31a.59.59,0,0,0,.41-.21A6.39,6.39,0,0,0,443.67,79a1.94,1.94,0,0,0-2.1-2.17,1.81,1.81,0,0,0-1.52.77,3.9,3.9,0,0,0-.57,2.31A7.44,7.44,0,0,0,440.62,83.47Z"/><path class="cls-1" d="M460.9,101.37l.31-9.16h-3.47c-.27,0-.41-.1-.41-.31a3.8,3.8,0,0,1,.88-2.14,2.42,2.42,0,0,1,1.91-1.22h1.09q-.1-4-.21-5.79a13.61,13.61,0,0,0-1-4.87l-.26-.51a1,1,0,0,1-.21-.62c0-.25.19-.45.57-.63a17.72,17.72,0,0,1,1.68-.62,39.71,39.71,0,0,1,4.74-1,48.3,48.3,0,0,1,7.89-.6c2.84,0,4.39.21,4.65.62a3.76,3.76,0,0,1,.39,1.94q0,1.32-.36,1.32l-.36,0a11.28,11.28,0,0,0-2.54-.21,24.44,24.44,0,0,0-3.67.31,26,26,0,0,0-3,.62l-1,.37a1,1,0,0,0-.62.72,73.33,73.33,0,0,0-.41,9h8.38c.31,0,.47.1.47.31a4.09,4.09,0,0,1-.83,2.17,2.3,2.3,0,0,1-1.87,1.25l-6.15-.06.36,15.53a2.92,2.92,0,0,1-.36,1.65,6.09,6.09,0,0,1-3.34,1.94,15.4,15.4,0,0,1-3.9.65c-.28,0-.42-.17-.42-.52a1.47,1.47,0,0,1,.05-.41C460.28,110.46,460.62,107.24,460.9,101.37Z"/><path class="cls-1" d="M188.49,50.84c.54.43,1.11.85,1.69,1.27a4.86,4.86,0,0,1,1.4,1.53.87.87,0,0,0,0,.54,1,1,0,0,0,.25.38l.33.33a1,1,0,0,1,.24.43,2.12,2.12,0,0,1-.07,1.1,6.72,6.72,0,0,0-.26,1.21,3.2,3.2,0,0,0-.09.62,4.09,4.09,0,0,1-.1.61c-.1.52-.17,1-.22,1.49a3.47,3.47,0,0,0,.19,1.5,5.69,5.69,0,0,0,.65,1.32,2.51,2.51,0,0,0,.95,1,.39.39,0,0,0,.3.09.65.65,0,0,1,.3.06.88.88,0,0,1,.35.34.82.82,0,0,0,.47.33,1.4,1.4,0,0,1,1.15-.17,3.67,3.67,0,0,0,1.27.13.67.67,0,0,0,.34-.09.52.52,0,0,1,.29-.09l1.78-.15a8.26,8.26,0,0,0,1.77-.34,3.43,3.43,0,0,0,.85-.37l.9-.52c.4-.25.8-.51,1.21-.79a1.55,1.55,0,0,1,1.4-.15,1.94,1.94,0,0,1-.22,1.14,2.7,2.7,0,0,1-.68.75c-.27.21-.55.41-.85.61a3.51,3.51,0,0,0-.75.67,3.19,3.19,0,0,0-1.08.51c-.27.21-.58.43-.93.65a3.88,3.88,0,0,1-.58.23,1.35,1.35,0,0,0-.54.26,1.46,1.46,0,0,0-.52.41,2.54,2.54,0,0,1-.49.44,1.73,1.73,0,0,1-.69.25,7.34,7.34,0,0,0-.73.13,21.24,21.24,0,0,1-2.12.5,17.19,17.19,0,0,1-2.26.26,11.25,11.25,0,0,1-2.25-.11,8,8,0,0,1-2.13-.62,2.72,2.72,0,0,1-.91-.57l-.77-.77c-.32-.27-.66-.59-1-1a5.12,5.12,0,0,1-.84-1.06,4.67,4.67,0,0,1-.21-.71c-.06-.28-.13-.55-.2-.82s-.17-.58-.28-.92a3.32,3.32,0,0,1-.17-1.06,7.92,7.92,0,0,1,.17-2c.13-.68.26-1.35.37-2a11.55,11.55,0,0,0,.17-1.9,3.52,3.52,0,0,0-.37-1.62,1.85,1.85,0,0,0-.32-.43,3,3,0,0,1-.39-.47,8.13,8.13,0,0,0-.9-.95,2.38,2.38,0,0,0-1.34-.54,6.56,6.56,0,0,0-1.34,0,2,2,0,0,0-1.08.32,1.11,1.11,0,0,0-.58,1,11.87,11.87,0,0,1-.21,1.36,8,8,0,0,1-.5,1.57,3,3,0,0,0-.21,1.6c.05.25.13.55.23.89a5,5,0,0,0,.3.83,3.23,3.23,0,0,0,.37.63.57.57,0,0,1,.07.67.72.72,0,0,1-.74.22c-.35,0-.7-.08-1.05-.11l-1.06,0a5.33,5.33,0,0,0-.8,0,7.28,7.28,0,0,0-.78.07l-1,.13c-.2,0-.36.05-.47.08a1.32,1.32,0,0,0-.3.09l-.26.11-.39.13a1.44,1.44,0,0,0-.41.21,2.24,2.24,0,0,1-.37.2,5.93,5.93,0,0,1-1.38.24c-.5,0-1,.06-1.42.06a9.31,9.31,0,0,1-1.29,0,5,5,0,0,1-1.17-.24.74.74,0,0,1,.41-.6,1.54,1.54,0,0,0,.56-.41,5.27,5.27,0,0,0,2-.84,3,3,0,0,0,1.28-1.62,2.7,2.7,0,0,0,.15-.73c0-.26.06-.51.11-.76.13-.65.25-1.31.38-2a18.31,18.31,0,0,1,.48-2,1.25,1.25,0,0,1,.19-.34,1.32,1.32,0,0,0,.18-.33,5.45,5.45,0,0,0,.29-1.33,5.7,5.7,0,0,1,.24-1.32c.12-.32.25-.63.37-.91a7,7,0,0,0,.3-.88c.07-.32.14-.63.2-.93a2.24,2.24,0,0,1,.36-.82c.05-.43.1-.82.15-1.2a6.77,6.77,0,0,0,0-1.3,11,11,0,0,0,.77-1A3.06,3.06,0,0,0,175,41a1.9,1.9,0,0,0,0-.79,3,3,0,0,1-.1-.82A13.88,13.88,0,0,1,175,37.7q.14-.77.21-1.74a1.67,1.67,0,0,0-.92-.91,7.67,7.67,0,0,1-1.32-.69,1,1,0,0,1-.3-.15c-.12-.07-.26-.15-.39-.24a1.64,1.64,0,0,1-.34-.28.48.48,0,0,1-.13-.26.59.59,0,0,1,.32-.43,1.69,1.69,0,0,1,.63-.22,3.54,3.54,0,0,1,.73,0l.64,0,1.78.38c.58.12,1.17.23,1.78.31a16.48,16.48,0,0,0,1.94.17,19.16,19.16,0,0,0,2.33-.07,5.73,5.73,0,0,0,.84-.13,3.61,3.61,0,0,1,.8-.13c.42,0,.84-.07,1.25-.13a4.35,4.35,0,0,1,1.25,0,8.66,8.66,0,0,0,2.05,0,7.07,7.07,0,0,1,1.9,0,3.11,3.11,0,0,1,.91.28l.86.43a8.16,8.16,0,0,0,.86.39,3,3,0,0,0,.87.2,6.91,6.91,0,0,1,1.29,1A9.58,9.58,0,0,1,196,36.9a11.4,11.4,0,0,1,.78,1.45,13.85,13.85,0,0,1,.56,1.38,3.12,3.12,0,0,1,.23,1.32,7,7,0,0,1-.19,1.25,9.8,9.8,0,0,1-.75,1.94,13,13,0,0,1-1,1.62q-.54.78-1.11,1.53A17,17,0,0,0,193.48,49a2.11,2.11,0,0,1-.57.13,1.77,1.77,0,0,0-.55.13,1.84,1.84,0,0,0-.7.54,1.52,1.52,0,0,1-.79.5.64.64,0,0,1-.39,0,1.27,1.27,0,0,0-.39,0,5.83,5.83,0,0,0-.77.28A3,3,0,0,1,188.49,50.84Zm-2.2-3.17a12.16,12.16,0,0,1,1.3-1.39,4.91,4.91,0,0,0,1.12-1.52,5.64,5.64,0,0,0,.32-1c.08-.39.16-.76.24-1.1a6.06,6.06,0,0,0,0-2,4.86,4.86,0,0,0-.53-1.53,4,4,0,0,0-.93-1.15,6.76,6.76,0,0,0-1.23-.86c-.35-.2-.7-.42-1.06-.66a1.57,1.57,0,0,0-1.33-.13,2.5,2.5,0,0,0-.91,1.09c-.24.49-.45.95-.65,1.37l-.24.53c-.09.17-.16.32-.21.44a2.53,2.53,0,0,0,0,.55,1.59,1.59,0,0,1,0,.57.5.5,0,0,1-.37.36.44.44,0,0,0-.34.35.64.64,0,0,0,.21.47.66.66,0,0,1,.2.5,2.82,2.82,0,0,1-.31,1,3.49,3.49,0,0,0-.36,1.15,6.39,6.39,0,0,1-.24,1.09l-.33,1a9.82,9.82,0,0,0-.3,1.06,3.7,3.7,0,0,0-.1,1.1,7,7,0,0,0,1.61.12,9.43,9.43,0,0,0,1.68-.23,8.41,8.41,0,0,0,1.54-.5A4.32,4.32,0,0,0,186.29,47.67Z"/><path class="cls-1" d="M217.24,43.35a4.63,4.63,0,0,1-2,.48c-.68,0-1.42,0-2.24-.07a6.29,6.29,0,0,0-.73,0l-.73.07a4.88,4.88,0,0,0-2.94,1.32,6.79,6.79,0,0,0-1.76,2.86c-.12.42-.22.8-.29,1.15s.08.55.48.6a1.89,1.89,0,0,0,.75,0,5.78,5.78,0,0,0,.76-.21l.77-.24a2.65,2.65,0,0,1,.74-.11.57.57,0,0,1,.28.08.68.68,0,0,0,.28.07,3.87,3.87,0,0,0,1.34-.09,2.65,2.65,0,0,1,1.31,0,.49.49,0,0,1,.2.13,1,1,0,0,0,.28.17,4.56,4.56,0,0,0,1.16.24,3.47,3.47,0,0,1,1.08.24.93.93,0,0,1,.37.28c.13.14.19.23.19.28,0,.27-.16.45-.48.52a5.84,5.84,0,0,1-.82.15,2,2,0,0,1-.6,0,1.74,1.74,0,0,0-.6,0,9.82,9.82,0,0,0-1,.2c-.33.09-.68.2-1.05.32a7.57,7.57,0,0,0-1.19.54,3.23,3.23,0,0,1-1.23.39,3,3,0,0,1-.94,0,3.09,3.09,0,0,0-1,0,1.9,1.9,0,0,0-.36.12A2,2,0,0,1,207,53a4.29,4.29,0,0,1-.51.09.47.47,0,0,0-.26.09.92.92,0,0,0-.18.23l-.28.44a4.64,4.64,0,0,0-.38,1.44q-.08.77-.15,1.62a5.41,5.41,0,0,0,.79.66,2.17,2.17,0,0,0,1.15.24,2,2,0,0,0,.66-.09,2.27,2.27,0,0,1,.65-.14,5.66,5.66,0,0,1,.82.06,4.67,4.67,0,0,0,.93,0,9.31,9.31,0,0,0,1.83-.28,5.45,5.45,0,0,1,1.83-.13c.15,0,.41,0,.8,0l1.17.09a7.51,7.51,0,0,1,1.07.17c.31.07.46.17.46.3a.65.65,0,0,1-.28.46,4.41,4.41,0,0,1-.63.45,3.76,3.76,0,0,1-.71.33l-.47.17a2.74,2.74,0,0,1-1.23.1,4.67,4.67,0,0,0-1.3,0,4.81,4.81,0,0,0-.94.22l-.82.32-.84.33a3.15,3.15,0,0,1-1,.21c-.5,0-.92.1-1.27.17l-1.23.24a4.1,4.1,0,0,0-.56.17l-.56.16a7.77,7.77,0,0,1-2.33.1,13,13,0,0,0-2.71,0,13.29,13.29,0,0,0-1.66.28,4.52,4.52,0,0,1-1.47.09l-.5-.06a.66.66,0,0,1-.43-.2,1,1,0,0,1,.33-.52,6.31,6.31,0,0,1,.53-.41l.5-.47.47-.47a2.56,2.56,0,0,0,.37-.72c.1-.29.19-.58.28-.88a8.21,8.21,0,0,1,.3-.84,2.43,2.43,0,0,1,.43-.69,1.94,1.94,0,0,1,0-1.53c.21-.57.4-1.17.57-1.79a1.42,1.42,0,0,0,.08-.45,1.14,1.14,0,0,1,.07-.41,1.32,1.32,0,0,1,.34-.65,1.37,1.37,0,0,0,.33-.58,1.14,1.14,0,0,0,0-.37,1.53,1.53,0,0,1,0-.37,4.21,4.21,0,0,1,.28-1.07,4.41,4.41,0,0,0,.28-.91,1.39,1.39,0,0,0,0-.61,2.17,2.17,0,0,1,0-.62,6,6,0,0,1,.32-1.42,4.7,4.7,0,0,0,.28-1.19,2.7,2.7,0,0,0-.11-.9,3.72,3.72,0,0,0-.3-.74,1.69,1.69,0,0,0-.34-.39l-.45-.4a4.74,4.74,0,0,1-.39-.35.48.48,0,0,1-.17-.32c0-.27.14-.41.34-.43a.91.91,0,0,0,.56-.24,14.71,14.71,0,0,1,2.55.3,15.77,15.77,0,0,0,2.52.34,3.13,3.13,0,0,0,1,0,9.32,9.32,0,0,1,1-.13,5.86,5.86,0,0,1,1.77.22,5.68,5.68,0,0,0,1.95.19c.88-.05,1.7-.08,2.47-.08s1.58,0,2.42-.07a1,1,0,0,0,.67.17c.3,0,.6,0,.92-.08a4.1,4.1,0,0,1,.85,0,.63.63,0,0,1,.54.34.81.81,0,0,1-.07.89,1.41,1.41,0,0,1-.82.49,2.41,2.41,0,0,0-.41,0l-.56.07a3.86,3.86,0,0,1-.58,0Z"/><path class="cls-1" d="M226.64,55.06a11.66,11.66,0,0,0-.84,2.42c-.21.9-.42,1.71-.62,2.43a1.21,1.21,0,0,1-.57.76,3.32,3.32,0,0,1-1,.34c-.34.06-.69.1-1,.13a3.17,3.17,0,0,0-.86.15,3.36,3.36,0,0,0-.72.35l-.77.45a5,5,0,0,1-.69.31c-.21.08-.37.07-.47,0s-.11-.33,0-.69a8.72,8.72,0,0,1,.37-1.25c.17-.47.38-1,.62-1.47s.46-1,.69-1.4a3.83,3.83,0,0,0,.29-1.22c.05-.5.09-.93.12-1.28a.9.9,0,0,0-.08-.36.6.6,0,0,1,0-.35,1.6,1.6,0,0,1,.25-.49,5.08,5.08,0,0,0,.35-.59,5.38,5.38,0,0,0,.32-1.55,5.26,5.26,0,0,1,.28-1.47,1.27,1.27,0,0,1,.2-.36,1.41,1.41,0,0,0,.21-.35,1.26,1.26,0,0,0,0-.56c0-.22,0-.44,0-.63a3.67,3.67,0,0,1,.2-1.1c.14-.42.27-.81.39-1.2a7.05,7.05,0,0,0,.28-1.12,1.76,1.76,0,0,0-.05-1,4.12,4.12,0,0,1-.11-.74.38.38,0,0,0-.08-.27c-.12-.12-.17-.2-.13-.24s0-.1-.17-.2a3.29,3.29,0,0,0-.35-.32l-.43-.32c-.15-.1-.31-.19-.47-.28a.56.56,0,0,1-.28-.46,2.52,2.52,0,0,1,.58-.41,1.23,1.23,0,0,1,.47-.13,1.59,1.59,0,0,1,.48,0c.18,0,.39.07.64.1a5.48,5.48,0,0,0,1.13,0c.34,0,.76,0,1.25,0a7.61,7.61,0,0,1,1.1.09l1.1.17a4.1,4.1,0,0,0,1,0,3.1,3.1,0,0,1,.92,0,5.47,5.47,0,0,1,.59.16,1.76,1.76,0,0,0,.64.1,8.61,8.61,0,0,0,2-.23,4.47,4.47,0,0,1,1.81-.07c.2,0,.42.11.65.19l.69.22.51.17.46.16a2.68,2.68,0,0,1,.62.36c.21.16.43.34.65.54l1.06.78a2,2,0,0,1,.73,1q.08.18.21.6a2.55,2.55,0,0,1,.13.59,1.6,1.6,0,0,1-.26,1,1.38,1.38,0,0,1,.22,1,3.49,3.49,0,0,1-.35,1.08,6.18,6.18,0,0,1-.69,1c-.28.32-.53.59-.75.82a7.1,7.1,0,0,1-1.21.91c-.44.26-.9.52-1.4.77a4.1,4.1,0,0,0-.78.46,3.73,3.73,0,0,1-.71.43c-.13.05-.2.06-.21,0s-.09,0-.24,0a5.44,5.44,0,0,0-1.46.52,5.94,5.94,0,0,1-1.49.56.91.91,0,0,1-.41.06,1.39,1.39,0,0,0-.41,0,5.41,5.41,0,0,0-1.1.29,5.2,5.2,0,0,1-1.1.27,6.76,6.76,0,0,1-.95.08A3.09,3.09,0,0,0,226.64,55.06Zm1.83-8.17a10.44,10.44,0,0,0-.25,1c-.06.35-.13.7-.2,1a6.52,6.52,0,0,1-.24.78,6.38,6.38,0,0,0-.28.88,2.1,2.1,0,0,0-.08.76.5.5,0,0,0,.37.45.55.55,0,0,0,.36,0,1.82,1.82,0,0,1,.39-.11,1,1,0,0,1,.32.06.82.82,0,0,0,.35,0,11.86,11.86,0,0,0,2.56-.49,2.07,2.07,0,0,0,1.47-1.53l.28-.13.32-.13a4.89,4.89,0,0,0,.95-1.64,7.34,7.34,0,0,0,.46-1.9,1.16,1.16,0,0,0-.24-.65,3.3,3.3,0,0,1-.32-.55,1,1,0,0,0-.33-.31c-.18-.11-.38-.23-.6-.34a5.24,5.24,0,0,0-.69-.28l-.54-.15a1.33,1.33,0,0,0-.67,0,2.58,2.58,0,0,1-.63.13,5.23,5.23,0,0,1-1,0,1,1,0,0,0-.79.3,4.65,4.65,0,0,1-.46,1.36A6.51,6.51,0,0,0,228.47,46.89Z"/><path class="cls-1" d="M248,43.76a6.07,6.07,0,0,0,1.24-1.12c.34-.42.68-.85,1-1.27a.7.7,0,0,0,.52-.11,1.8,1.8,0,0,1,.49-.22,1.82,1.82,0,0,1,1.06,0,2.85,2.85,0,0,0,1.07.14,4.28,4.28,0,0,0,1.21-.34,3.33,3.33,0,0,1,1.36-.26.74.74,0,0,1,.48.17,1,1,0,0,0,.45.2.67.67,0,0,0,.54-.07,1,1,0,0,1,.54-.15,1,1,0,0,1,.8.33,5.93,5.93,0,0,0,.66.67,4.33,4.33,0,0,1,0,1.68,6.28,6.28,0,0,0-.07,1.68c.05.37.11.73.17,1.08a6.38,6.38,0,0,1,.09,1.08,3.63,3.63,0,0,1-.06,1,4.21,4.21,0,0,0-.05,1.06,1.82,1.82,0,0,0,.11.38.67.67,0,0,1,0,.37,1,1,0,0,1-.34.63.91.91,0,0,0-.3.6,1.44,1.44,0,0,0,.25,1,2.52,2.52,0,0,1,.39,1,1.15,1.15,0,0,1,0,.48,1.81,1.81,0,0,0-.07.49,10.21,10.21,0,0,0,0,1.83c.07.67.11,1.29.14,1.86a3,3,0,0,0,.05.6.83.83,0,0,1,0,.48.45.45,0,0,1-.17.3,1,1,0,0,0-.2.26,1.35,1.35,0,0,0,0,.52,3.66,3.66,0,0,1,.05.64,4.07,4.07,0,0,1,0,.5,2.37,2.37,0,0,0,0,.43,2.34,2.34,0,0,0,.09.24.32.32,0,0,1,0,.25,1.54,1.54,0,0,1-.5.72,1.19,1.19,0,0,1-.88.36,1.89,1.89,0,0,1-.65-.36,6.76,6.76,0,0,1-.62-.5,2,2,0,0,1-.41-1,3.55,3.55,0,0,0-.33-1.16,1.31,1.31,0,0,0-.32-.35,1.9,1.9,0,0,1-.35-.4,2.65,2.65,0,0,1-.3-.84,6.13,6.13,0,0,1-.09-.85L255,57a4.08,4.08,0,0,0-.19-.88.77.77,0,0,0-.22-.26.86.86,0,0,1-.26-.3,2.87,2.87,0,0,1-.3-.63c-.05-.18-.21-.31-.49-.41-.87,0-1.74,0-2.62-.08a15,15,0,0,0-2.6.08,1.88,1.88,0,0,0-.52.13,2.32,2.32,0,0,1-.52.13,1,1,0,0,1-.3,0l-.26,0a2,2,0,0,0-1,.46,3.75,3.75,0,0,0-.74.77,1,1,0,0,0-.17.54,2.15,2.15,0,0,1-.13.61,1.49,1.49,0,0,1-.37.54.62.62,0,0,0-.19.62,2.71,2.71,0,0,0-.69.74c-.19.3-.37.61-.54.92a7.74,7.74,0,0,1-.58.87,1.82,1.82,0,0,1-.76.6,1.55,1.55,0,0,0-.36.19.66.66,0,0,1-.35.11c-.13,0-.2-.06-.21-.11s-.09-.13-.24-.23l-.54-.33c-.21-.13-.42-.26-.62-.41a6.28,6.28,0,0,1-.54-.47,1.87,1.87,0,0,1-.35-.46c-.2-.43-.24-.73-.11-.92s.28-.41.48-.69.59-.84.93-1.34.66-1,.94-1.42c.15-.25.28-.48.39-.71a2.82,2.82,0,0,1,.43-.63,2.24,2.24,0,0,1,.76-.67,1.49,1.49,0,0,0,.65-.67,1.1,1.1,0,0,0,.08-.4,1.32,1.32,0,0,1,.07-.42,3.71,3.71,0,0,1,.94-1.35,4,4,0,0,0,1-1.34,1.69,1.69,0,0,0,.1-.35,1.35,1.35,0,0,1,.09-.36,10.69,10.69,0,0,1,1.47-2.46A16.63,16.63,0,0,0,248,43.76Zm5.23-.11a3.7,3.7,0,0,0-.77.76,2,2,0,0,1-.84.65,4.36,4.36,0,0,1-.35.64,1.56,1.56,0,0,1-.54.48,2.47,2.47,0,0,1-.45,1c-.22.28-.44.56-.63.84a2.61,2.61,0,0,0-.27.31,3.56,3.56,0,0,1-.26.36,1.5,1.5,0,0,1-.37.28,1.31,1.31,0,0,0-.34.24,6,6,0,0,0-.48.82,7.83,7.83,0,0,1-.48.86l-.38.37a.5.5,0,0,0-.11.49.62.62,0,0,0,.45.39,3.39,3.39,0,0,0,.76.11,5.82,5.82,0,0,0,.84,0c.28,0,.5,0,.67,0l1.07,0a7.17,7.17,0,0,0,1,0,3.06,3.06,0,0,0,.9-.18,1.34,1.34,0,0,0,.61-.45,5.34,5.34,0,0,0,.19-2.41c-.13-.8-.24-1.61-.34-2.4a5,5,0,0,1-.11-.75,3,3,0,0,1,0-.74,1.85,1.85,0,0,1,.24-.73,1,1,0,0,0,.06-.84Z"/><path class="cls-1" d="M278.14,41.3a2.46,2.46,0,0,0,.6.07,2.39,2.39,0,0,1,.59.08.41.41,0,0,1,.23.07.76.76,0,0,0,.22.11.31.31,0,0,0,.23,0,.41.41,0,0,1,.22,0,3.32,3.32,0,0,1,1.38.69,7.8,7.8,0,0,1,1,1.14c.15.25.34.54.56.88a4.69,4.69,0,0,1,.56,1.12,4.17,4.17,0,0,1,.26,1.28,2.77,2.77,0,0,1-.26,1.34,4.47,4.47,0,0,1-.22.47l-.3.58a8.29,8.29,0,0,1-.56.86,2.06,2.06,0,0,1-.71.63l-.5.34a3.3,3.3,0,0,1-.5.29,4.85,4.85,0,0,0-1,.54,5.6,5.6,0,0,1-1,.58,1.59,1.59,0,0,1-.39.1,1.3,1.3,0,0,0-.39.09,1.15,1.15,0,0,0-.41.41.87.87,0,0,1-.56.37,3.58,3.58,0,0,1,1.72,1A6.17,6.17,0,0,1,280.08,56a3,3,0,0,0,.52.93,1.26,1.26,0,0,1,.3.93,1.72,1.72,0,0,1,.43.58,5.35,5.35,0,0,1,.28.77c.07.27.14.55.2.83a4.64,4.64,0,0,0,.25.77,3.93,3.93,0,0,0,.48.8,8,8,0,0,0,.56.6c.2.18.4.38.6.59a2.9,2.9,0,0,1,.52.81.91.91,0,0,0,.24-.1.48.48,0,0,1,.28,0,4.22,4.22,0,0,0,1.25.64,10.73,10.73,0,0,0,1.7.37,6.45,6.45,0,0,0,1.62.09,12.88,12.88,0,0,0,1.58-.2,2.58,2.58,0,0,0,.66-.21,8.11,8.11,0,0,1,.78-.28,2.26,2.26,0,0,1,.69-.09q.3,0,.3.39a1,1,0,0,1-.34.64,4.82,4.82,0,0,1-.59.56,5.49,5.49,0,0,1-1.46.7,13,13,0,0,1-1.71.43,15.79,15.79,0,0,1-1.83.25c-.62,0-1.21.08-1.75.11a2.59,2.59,0,0,1-.95-.17,5.48,5.48,0,0,0-.77-.24c-.5-.08-.94-.16-1.32-.26a4.24,4.24,0,0,1-1.1-.45,2.72,2.72,0,0,1-.79-.73,1.43,1.43,0,0,0-.93-.58l-1.94-1.73a6.3,6.3,0,0,1-1.53-2.18,5.47,5.47,0,0,0-.41-.65,2.43,2.43,0,0,1-.33-.69,1.58,1.58,0,0,1-.13-.56c0-.2-.05-.43-.1-.68a6.94,6.94,0,0,0-.22-.87c-.1-.31-.2-.6-.3-.88a.76.76,0,0,0-.11-.22.8.8,0,0,1-.11-.23,5.55,5.55,0,0,1-.15-.54,1,1,0,0,0-.26-.5,3.21,3.21,0,0,0-.62-.34,5.08,5.08,0,0,0-.73-.26,1.8,1.8,0,0,0-.8,0,4.42,4.42,0,0,1-.72.15,3.31,3.31,0,0,1-.94,0,1.58,1.58,0,0,0-.74.05,1.62,1.62,0,0,0-.86,1,5.49,5.49,0,0,0-.41,1.64,9,9,0,0,1-.45,1.66,14.24,14.24,0,0,0-.48,1.55,1.72,1.72,0,0,1-.49.8,1.09,1.09,0,0,1-.93.25l-.47-.06a1.11,1.11,0,0,1-.42-.17,4.88,4.88,0,0,0-.66.36l-.65.39c-.82.25-1.29.19-1.4-.19a3.79,3.79,0,0,1,.13-1.79,7,7,0,0,1,.58-1.53,6.81,6.81,0,0,0,.54-1.27,2.21,2.21,0,0,0,.06-.61c0-.19,0-.37-.06-.54a4.47,4.47,0,0,1,0-.47.64.64,0,0,1,.15-.39,1.23,1.23,0,0,1,.23-.65,1.55,1.55,0,0,0,.26-.65c.05-.25.11-.51.18-.79a3.82,3.82,0,0,0,.15-.78q0-.45.06-.84a2.62,2.62,0,0,1,.24-.91l.39-1a4.36,4.36,0,0,0,.28-1,6.31,6.31,0,0,0,.1-.76,2.25,2.25,0,0,1,.16-.77.84.84,0,0,1,.32-.48.9.9,0,0,0,.32-.49.8.8,0,0,0,0-.41.48.48,0,0,1,0-.37,2.72,2.72,0,0,0,.15-1.18,2.19,2.19,0,0,0-.24-.71q-.16-.27-.3-.54a1,1,0,0,1,0-.71.55.55,0,0,0,.34-.31.63.63,0,0,1,.41-.36,3.83,3.83,0,0,1,.56,0l.89,0q.48,0,.93,0l.71,0a3.25,3.25,0,0,0,.75,0,9.23,9.23,0,0,1,.93-.07c.32,0,.63,0,.91,0a1.61,1.61,0,0,1,.73.15Zm-5.67,9.51a1.22,1.22,0,0,0,.58-.15.71.71,0,0,1,.54-.08,6.46,6.46,0,0,0,.75.11l.82.12a.68.68,0,0,0,.37,0,1,1,0,0,1,.48,0,6.65,6.65,0,0,1,1.07-.67,2.25,2.25,0,0,0,.87-.89c.13-.23.27-.45.41-.66a2.16,2.16,0,0,0,.3-.54,1.84,1.84,0,0,0-.07-1.47c-.23-.41-.44-.78-.64-1.1a3,3,0,0,0-.7-.8,1.7,1.7,0,0,0-1.12-.17,9.6,9.6,0,0,1-1.31,0,9.21,9.21,0,0,0-1.28,0,3.57,3.57,0,0,0-1.1.23,1.2,1.2,0,0,0-.71.67q-.19.55-.45,1.23c-.18.45-.34.9-.49,1.36a13.74,13.74,0,0,0-.37,1.4,6.62,6.62,0,0,0-.15,1.38,3.25,3.25,0,0,1,1.12.05A3.66,3.66,0,0,0,272.47,50.81Z"/><path class="cls-1" d="M292.72,43.76A5.76,5.76,0,0,0,294,42.64c.35-.42.69-.85,1-1.27a.71.71,0,0,0,.52-.11A1.67,1.67,0,0,1,296,41a1.82,1.82,0,0,1,1.06,0,2.8,2.8,0,0,0,1.06.14,4.26,4.26,0,0,0,1.22-.34,3.3,3.3,0,0,1,1.36-.26.74.74,0,0,1,.48.17,1,1,0,0,0,.45.2.67.67,0,0,0,.54-.07,1,1,0,0,1,.54-.15,1,1,0,0,1,.8.33,5.93,5.93,0,0,0,.66.67,4.33,4.33,0,0,1,0,1.68,6.28,6.28,0,0,0-.07,1.68c0,.37.1.73.17,1.08a6.38,6.38,0,0,1,.09,1.08,4,4,0,0,1-.06,1,4.21,4.21,0,0,0-.05,1.06,1.82,1.82,0,0,0,.11.38.67.67,0,0,1,0,.37,1.08,1.08,0,0,1-.34.63.91.91,0,0,0-.3.6,1.48,1.48,0,0,0,.24,1,2.41,2.41,0,0,1,.4,1,1.15,1.15,0,0,1,0,.48,1.85,1.85,0,0,0-.08.49,10.27,10.27,0,0,0,0,1.83c.07.67.11,1.29.13,1.86a3.05,3.05,0,0,0,.06.6.83.83,0,0,1,0,.48.45.45,0,0,1-.17.3,1,1,0,0,0-.2.26,1.35,1.35,0,0,0,0,.52,5,5,0,0,1,.05.64,4.07,4.07,0,0,1,0,.5,2.37,2.37,0,0,0,0,.43,1.17,1.17,0,0,0,.09.24.37.37,0,0,1,0,.25,1.54,1.54,0,0,1-.5.72,1.19,1.19,0,0,1-.88.36,1.89,1.89,0,0,1-.65-.36,6.76,6.76,0,0,1-.62-.5,2,2,0,0,1-.41-1,3.55,3.55,0,0,0-.33-1.16,1.31,1.31,0,0,0-.32-.35,2,2,0,0,1-.36-.4,2.89,2.89,0,0,1-.29-.84,8.2,8.2,0,0,1-.1-.85c0-.29,0-.57-.05-.86a4.08,4.08,0,0,0-.19-.88.77.77,0,0,0-.22-.26.86.86,0,0,1-.26-.3,2.87,2.87,0,0,1-.3-.63c-.05-.18-.21-.31-.49-.41-.87,0-1.74,0-2.63-.08a14.86,14.86,0,0,0-2.59.08,1.88,1.88,0,0,0-.52.13,2.32,2.32,0,0,1-.52.13,1,1,0,0,1-.3,0l-.26,0a2,2,0,0,0-1,.46,4.12,4.12,0,0,0-.75.77,1.14,1.14,0,0,0-.16.54,2.55,2.55,0,0,1-.13.61,1.41,1.41,0,0,1-.38.54.63.63,0,0,0-.18.62,2.56,2.56,0,0,0-.69.74c-.19.3-.37.61-.54.92a7.74,7.74,0,0,1-.58.87,1.78,1.78,0,0,1-.77.6,1.7,1.7,0,0,0-.35.19.66.66,0,0,1-.35.11c-.13,0-.2-.06-.21-.11s-.09-.13-.24-.23l-.54-.33c-.21-.13-.42-.26-.62-.41a5.06,5.06,0,0,1-.54-.47,1.87,1.87,0,0,1-.35-.46c-.2-.43-.24-.73-.11-.92s.28-.41.48-.69.58-.84.93-1.34.66-1,.93-1.42c.15-.25.28-.48.4-.71a2.82,2.82,0,0,1,.43-.63,2.24,2.24,0,0,1,.76-.67,1.49,1.49,0,0,0,.65-.67,1.1,1.1,0,0,0,.08-.4,1.32,1.32,0,0,1,.07-.42,3.81,3.81,0,0,1,.93-1.35,3.93,3.93,0,0,0,1-1.34,1.69,1.69,0,0,0,.1-.35,1.35,1.35,0,0,1,.09-.36,10.69,10.69,0,0,1,1.47-2.46A16.63,16.63,0,0,0,292.72,43.76Zm5.22-.11a3.91,3.91,0,0,0-.76.76,2,2,0,0,1-.84.65,4.36,4.36,0,0,1-.35.64,1.56,1.56,0,0,1-.54.48,2.47,2.47,0,0,1-.45,1c-.23.28-.44.56-.64.84a2.51,2.51,0,0,0-.26.31,3.56,3.56,0,0,1-.26.36,1.5,1.5,0,0,1-.37.28,1.16,1.16,0,0,0-.34.24,5.09,5.09,0,0,0-.48.82,9.72,9.72,0,0,1-.49.86l-.37.37a.5.5,0,0,0-.11.49.6.6,0,0,0,.45.39,3.39,3.39,0,0,0,.76.11,5.82,5.82,0,0,0,.84,0c.27,0,.5,0,.67,0l1.06,0a7.31,7.31,0,0,0,1.05,0,3,3,0,0,0,.89-.18,1.37,1.37,0,0,0,.62-.45,5.34,5.34,0,0,0,.19-2.41c-.13-.8-.24-1.61-.34-2.4a5,5,0,0,1-.11-.75,3,3,0,0,1,0-.74,1.7,1.7,0,0,1,.24-.73,1,1,0,0,0,.06-.84Z"/><path class="cls-1" d="M327.93,41.22a.78.78,0,0,1-.17.69,1.07,1.07,0,0,1-.61.36c.05.17.13.28.26.31a.4.4,0,0,1,.26.25,1.82,1.82,0,0,1-1,.87,11,11,0,0,1-1.44.47,5.65,5.65,0,0,1-.95.07,5.82,5.82,0,0,1-1-.07,3.86,3.86,0,0,1-1.19-.43,1.69,1.69,0,0,0-1.08-.24.7.7,0,0,0-.32.18,1.16,1.16,0,0,1-.36.23,3.5,3.5,0,0,1-.91.43,3.86,3.86,0,0,0-.84.35,8.2,8.2,0,0,0-1.6,1.19,9.42,9.42,0,0,1-1.57,1.23c-.2.4-.39.79-.57,1.18s-.39.83-.58,1.32c-.1.23-.21.46-.32.69a3.55,3.55,0,0,0-.24.69,6.75,6.75,0,0,0-.13.82,6.88,6.88,0,0,1-.17.9,1.46,1.46,0,0,1-.24.52.71.71,0,0,0-.13.56.83.83,0,0,0,.31.48.92.92,0,0,1,.32.45.44.44,0,0,1,0,.32.59.59,0,0,0,0,.35,2.5,2.5,0,0,0,.65,1.16,7.23,7.23,0,0,1,.84,1,8.64,8.64,0,0,1,1.4.24c.41.11.84.2,1.29.28a9.09,9.09,0,0,1,1.28-.49c.44-.12.9-.27,1.4-.44a4.33,4.33,0,0,0,1.1-.58,2.46,2.46,0,0,1,1.14-.47.73.73,0,0,1,.26.06.4.4,0,0,0,.26,0,1,1,0,0,0,.52-.23l.47-.35a2.61,2.61,0,0,1,.52-.28,1.09,1.09,0,0,1,.65,0c.25.42.3.76.14,1A2.82,2.82,0,0,1,325,57a9.52,9.52,0,0,0-.88.69,1.21,1.21,0,0,0-.43,1,7.83,7.83,0,0,1-.82.78,3.92,3.92,0,0,1-1.12.67,4.27,4.27,0,0,1-.54.13,4.5,4.5,0,0,0-.5.13,14.21,14.21,0,0,0-1.46.64,3.56,3.56,0,0,1-1.68.3,4.58,4.58,0,0,1-1.08-.12,2.44,2.44,0,0,1-.76-.26,2.8,2.8,0,0,0-.77-.26,3.62,3.62,0,0,0-1,0,3.15,3.15,0,0,1-1,0,2.89,2.89,0,0,1-.93-.35c-.33-.19-.64-.38-.94-.58l-.91-.5-.84-.47a2.79,2.79,0,0,1-.8-.84,4.71,4.71,0,0,0-.76-.91,4.69,4.69,0,0,1-.15-1.48q0-.72,0-1.47a6.28,6.28,0,0,0-.25-1.38,3.22,3.22,0,0,1-.13-1.27c.05-.17.11-.36.19-.56a3.06,3.06,0,0,0,.15-.63c.05-.35.1-.67.17-1a2.94,2.94,0,0,1,.31-.84,2.8,2.8,0,0,1,.36-.49l.41-.44a2.9,2.9,0,0,0,.35-.49,1.66,1.66,0,0,0,.19-.67,1.45,1.45,0,0,1,.54-.45,1.12,1.12,0,0,0,.5-.44.69.69,0,0,0,.11-.38.61.61,0,0,1,.15-.37,2.86,2.86,0,0,1,.56-.48l.64-.45c.49-.28,1-.53,1.56-.77a7.2,7.2,0,0,0,1.53-.87,3.29,3.29,0,0,0,.88-.13c.29-.09.56-.19.82-.3l.8-.34a4.22,4.22,0,0,1,.86-.24,8.48,8.48,0,0,1,.89,0,7.26,7.26,0,0,0,.94,0l1.36,0a7.13,7.13,0,0,1,1.25,0,1.76,1.76,0,0,1,.52.17,1.18,1.18,0,0,0,.56.13,1.58,1.58,0,0,0,.54-.11,3.16,3.16,0,0,1,.54-.15,8.66,8.66,0,0,1,1.53,0Z"/><path class="cls-1" d="M327.41,58.86a3.08,3.08,0,0,1,.57-1.55,5.24,5.24,0,0,0,.77-1.43,4.82,4.82,0,0,0,.2-1c0-.36.07-.72.08-1.08a9.83,9.83,0,0,1,.09-1.08,5.66,5.66,0,0,1,.26-1.06,1.35,1.35,0,0,1-.15-.75,7.88,7.88,0,0,0,0-.86,1.93,1.93,0,0,0,.3-.59.67.67,0,0,1,.52-.45,4,4,0,0,0,.38-1.7,9.65,9.65,0,0,1,.18-1.81,1,1,0,0,1,.15-.33,1.58,1.58,0,0,0,.19-.34,5.3,5.3,0,0,0,.26-1.66,4.61,4.61,0,0,1,.3-1.66,5.16,5.16,0,0,0,.56-.24l.69-.34a4.92,4.92,0,0,1,.69-.27,1.29,1.29,0,0,1,.59-.08,1.8,1.8,0,0,1,.38.21l.44.31a2.36,2.36,0,0,1,.36.26,2.11,2.11,0,0,0,.35.26,1.46,1.46,0,0,0,.39.14.61.61,0,0,1,.32.13l.24.26c.14.15.28.31.41.48s.27.34.39.51a3.09,3.09,0,0,1,.23.31,1.32,1.32,0,0,1,0,.51,4.74,4.74,0,0,1-.2.56c-.09.18-.18.37-.26.55a4.64,4.64,0,0,0-.21.51c-.07.27-.15.54-.22.8a7.17,7.17,0,0,1-.3.8c-.13.33-.26.7-.41,1.12a5.81,5.81,0,0,0-.3,1.34,1.22,1.22,0,0,1-.39.79,1.28,1.28,0,0,0-.43.74,3.29,3.29,0,0,0-.08.71c0,.25,0,.49,0,.73s0,.46,0,.69a1.72,1.72,0,0,1-.16.63.67.67,0,0,1-.34.28.87.87,0,0,0-.37.28,4.55,4.55,0,0,0-.4.93c-.11.38-.2.77-.28,1.18a6.37,6.37,0,0,0-.09,1.23,3.12,3.12,0,0,0,.21,1.1,2.35,2.35,0,0,1-.66,1,3.12,3.12,0,0,1-1.1.69,4,4,0,0,1-1.36.26,3.84,3.84,0,0,1-1.47-.24,5.1,5.1,0,0,0-.71-.84A2.63,2.63,0,0,1,327.41,58.86Z"/><path class="cls-1" d="M358.59,44.5a9,9,0,0,1,.55,1.38,9.22,9.22,0,0,1,.3,1.72c.05.5.11.94.17,1.32a6.11,6.11,0,0,1,0,1.44,8.44,8.44,0,0,1-.19,1.25,8.17,8.17,0,0,1-.37,1.21c-.22.67-.44,1.26-.63,1.75s-.44,1-.71,1.61a4.38,4.38,0,0,1-.53.78l-.55.63a1.13,1.13,0,0,0-.13.27,1.06,1.06,0,0,1-.17.26A8,8,0,0,1,355,59.27a6.59,6.59,0,0,1-1.54.86,2.54,2.54,0,0,1-.54.09,4.15,4.15,0,0,0-.58.1,1.76,1.76,0,0,0-.64.43,1.44,1.44,0,0,1-.67.39,4.31,4.31,0,0,1-.54.13,6.19,6.19,0,0,0-.62.13c-.49.12-1.11.25-1.84.37a5.09,5.09,0,0,1-2,0,.71.71,0,0,1-.3-.15,1.56,1.56,0,0,0-.34-.18,1.73,1.73,0,0,0-.37-.11,1.7,1.7,0,0,1-.34-.12,3.6,3.6,0,0,1-.93-.52,4.3,4.3,0,0,0-.93-.52c-.35-.2-.7-.38-1-.54a1.29,1.29,0,0,1-.71-.88,1.34,1.34,0,0,1-.9-.85,5.24,5.24,0,0,0-.63-1.2,1.08,1.08,0,0,0-.32-.32.64.64,0,0,1-.28-.31,3.87,3.87,0,0,1-.41-1.33c-.1-.61-.16-1.12-.19-1.54a5,5,0,0,1,.1-1.29c.08-.41.18-.81.3-1.21s.23-.79.37-1.16.25-.73.35-1.08a2,2,0,0,1,.56-1,7.69,7.69,0,0,0,.79-.82,1,1,0,0,0,.22-.33,1.49,1.49,0,0,1,.22-.38,4.19,4.19,0,0,1,.68-.65c.24-.19.48-.38.7-.58s.51-.39.79-.58a3.51,3.51,0,0,0,.67-.57,4,4,0,0,0,.46-.82,1.8,1.8,0,0,1,.55-.71,2.44,2.44,0,0,1,.91-.49l1.17-.33a7.11,7.11,0,0,0,1.25-.43,4.15,4.15,0,0,1,1.33-.36c.44,0,.93-.08,1.45-.09a13.3,13.3,0,0,1,1.55.06,8.27,8.27,0,0,1,1.45.26,4.36,4.36,0,0,1,1.22.52,2.57,2.57,0,0,1,.54.45c.18.2.36.38.54.56a8.62,8.62,0,0,1,1,1.21A6.45,6.45,0,0,0,358.59,44.5Zm-8.13-1.67a1.12,1.12,0,0,0-.43.11,5.55,5.55,0,0,0-.56.24,4,4,0,0,0-.51.28l-.33.22a4.22,4.22,0,0,0-.8,1,6.13,6.13,0,0,1-.81,1.1,1.28,1.28,0,0,1-.39.28.76.76,0,0,0-.31.24A4.22,4.22,0,0,0,345.4,48c-.18.62-.38,1.22-.58,1.79s-.43,1.27-.63,2A5.79,5.79,0,0,0,344,53.9a3.72,3.72,0,0,0,.17.58c.09.24.17.45.24.65s.2.44.28.66a5,5,0,0,0,.28.57,6.75,6.75,0,0,0,.58,1,3.74,3.74,0,0,0,.82.86,3,3,0,0,0,1.05.52,2.18,2.18,0,0,0,1.24,0,8.34,8.34,0,0,0,1-.47c.4-.21.76-.42,1.08-.62a3,3,0,0,0,1-.91,7.16,7.16,0,0,0,.6-1.21,1.43,1.43,0,0,1,.2-.36,2.71,2.71,0,0,0,.24-.35,4.59,4.59,0,0,0,.38-.9,6.21,6.21,0,0,1,.37-.93,6.91,6.91,0,0,0,.56-1.94c.07-.62.14-1.36.19-2.23a2.7,2.7,0,0,0-.1-1,4.42,4.42,0,0,1-.2-.93,7,7,0,0,1,0-.77,1.2,1.2,0,0,0-.15-.61,1,1,0,0,0-.69-.45,1.57,1.57,0,0,1-.8-.41q-.3-.48-.63-.93a3,3,0,0,0-.83-.75.37.37,0,0,1-.26,0A.35.35,0,0,0,350.46,42.83Z"/><path class="cls-1" d="M362.2,60.09a1.38,1.38,0,0,1-1.38-.2,1.94,1.94,0,0,1-.74-1.1,2.76,2.76,0,0,1,0-.92,3.87,3.87,0,0,1,.22-1,3.26,3.26,0,0,1,.63-1,4,4,0,0,0,.75-1.27c.17-.45.32-.88.43-1.29a2.43,2.43,0,0,1,.5-1,4,4,0,0,1,.56-.46.76.76,0,0,0,.34-.54.88.88,0,0,0-.17-.53.79.79,0,0,1-.13-.59,2.59,2.59,0,0,1,.2-.86c.14-.35.27-.66.4-.93a10.43,10.43,0,0,0,.63-1.83,5.51,5.51,0,0,0,.13-.62,3.06,3.06,0,0,1,.13-.54,2.1,2.1,0,0,0,.24-.48,5.86,5.86,0,0,1,.32-.67,3.92,3.92,0,0,1,.41-.62,1.43,1.43,0,0,1,.48-.39,4,4,0,0,1,.66-.17,2,2,0,0,0,.65-.2c.22-.08.36-.16.41-.26a.79.79,0,0,1,.37-.3,1.5,1.5,0,0,1,.47-.08,1.77,1.77,0,0,0,.5-.07,3.66,3.66,0,0,0,.64-.34.7.7,0,0,1,.78,0,1.29,1.29,0,0,1,.37.67c.13.37.25.72.38,1,.05.17.11.38.2.63s.17.5.24.76.15.5.23.71a3.38,3.38,0,0,0,.18.47,2.47,2.47,0,0,1,.26.78,3.29,3.29,0,0,0,.23.75c.12.25.25.48.37.71a7.28,7.28,0,0,1,.37.74c.13.28.24.54.34.79a6.79,6.79,0,0,0,.37.78,1.63,1.63,0,0,0,.45.54,1,1,0,0,1,.37.54.91.91,0,0,1,0,.65,1.25,1.25,0,0,0,0,.66,1.18,1.18,0,0,0,.48.67,4.62,4.62,0,0,1,.67.56,1,1,0,0,1,.23.44q0,.22.33.3c.05-.47.11-.88.17-1.23s.13-.69.2-1,.15-.69.23-1.05.13-.76.19-1.21l.67-.91a1.9,1.9,0,0,0,.26-1.14,2.54,2.54,0,0,0-.13-.45.87.87,0,0,1-.06-.48,2.54,2.54,0,0,1,.15-.67q.11-.3.3-.75a4,4,0,0,0,.18-.62c.05-.21.12-.44.19-.69a4.8,4.8,0,0,1,.21-.48c.06-.12.13-.24.2-.36a1.43,1.43,0,0,0,.19-.37,3.84,3.84,0,0,0,.15-.61,7,7,0,0,0,.11-1.09,2.23,2.23,0,0,1,.19-.89A2.66,2.66,0,0,1,381,40a9.1,9.1,0,0,1,1.25-.76,2.9,2.9,0,0,1,1.71.54,2.21,2.21,0,0,1,.86,1.21,1.13,1.13,0,0,1,0,1.1,10.38,10.38,0,0,0-.59.95,3.89,3.89,0,0,0-.29.64,4.71,4.71,0,0,0-.14.57l-.12.58a2.93,2.93,0,0,1-.2.67,1.61,1.61,0,0,1-.34.62,1.23,1.23,0,0,0-.29.5,3.73,3.73,0,0,1,.09.86,2.44,2.44,0,0,1-.11.62c-.07.18-.13.37-.19.56s-.12.39-.17.61a1.86,1.86,0,0,0-.07.52,1.53,1.53,0,0,1-.08.49,4,4,0,0,1-.29.82c-.13.25-.25.48-.38.71a7,7,0,0,1-.58,1,2.86,2.86,0,0,0-.39,1.31c0,.34,0,.65-.05.91s0,.5,0,.73a3.62,3.62,0,0,1-.11.7c-.06.25-.15.55-.25.9a3.06,3.06,0,0,1-.2.58,2.86,2.86,0,0,0-.21.58,3.59,3.59,0,0,1-.63,1.47,5,5,0,0,1-1.23,1l-.9.22a3.77,3.77,0,0,1-.87.11,2.32,2.32,0,0,1-.8-.13,1.31,1.31,0,0,1-.64-.54,5.17,5.17,0,0,1-.39-.88c-.14-.38-.29-.76-.47-1.13a4,4,0,0,0-.24-.51,2.37,2.37,0,0,1-.2-.5,3,3,0,0,1-.25-.71,4.43,4.43,0,0,0-.24-.82,2.32,2.32,0,0,0-.82-1.23,5.57,5.57,0,0,1-1-.9,4.26,4.26,0,0,0-.11-.67.79.79,0,0,0-.34-.48.4.4,0,0,0-.18-.1.25.25,0,0,1-.19-.13.93.93,0,0,1-.15-.35A.53.53,0,0,0,370,52a2,2,0,0,1-.22-.33l-.28-.53a4,4,0,0,0-.28-.46c-.1-.14-.17-.19-.22-.17s-.25.1-.36.3-.22.42-.33.67-.22.49-.32.73a3.09,3.09,0,0,1-.26.5,1.86,1.86,0,0,0-.28.77,3.06,3.06,0,0,1-.24.8,9.55,9.55,0,0,0-.47.89,1,1,0,0,0,.09,1,.65.65,0,0,1-.13.43.7.7,0,0,0-.05.54,10.21,10.21,0,0,0-.43.93c-.14.35-.28.74-.43,1.16-.07.25-.14.5-.19.77a7.29,7.29,0,0,1-.18.74,2,2,0,0,1-.32.62.77.77,0,0,1-.54.29,1,1,0,0,1-.75-.11,3.21,3.21,0,0,1-.56-.43c-.17-.16-.35-.33-.52-.52A2,2,0,0,0,362.2,60.09Z"/><path class="cls-1" d="M404,43.35a4.63,4.63,0,0,1-2,.48c-.68,0-1.42,0-2.24-.07a6.29,6.29,0,0,0-.73,0l-.73.07a4.88,4.88,0,0,0-2.94,1.32,6.79,6.79,0,0,0-1.76,2.86c-.12.42-.22.8-.29,1.15s.08.55.48.6a1.89,1.89,0,0,0,.75,0,6.24,6.24,0,0,0,.76-.21l.77-.24a2.65,2.65,0,0,1,.74-.11.57.57,0,0,1,.28.08.68.68,0,0,0,.28.07,3.87,3.87,0,0,0,1.34-.09,2.65,2.65,0,0,1,1.31,0,.49.49,0,0,1,.2.13,1,1,0,0,0,.28.17,4.56,4.56,0,0,0,1.16.24,3.47,3.47,0,0,1,1.08.24.93.93,0,0,1,.37.28c.13.14.19.23.19.28,0,.27-.16.45-.48.52a5.84,5.84,0,0,1-.82.15,2,2,0,0,1-.6,0,1.74,1.74,0,0,0-.6,0,9.82,9.82,0,0,0-1,.2c-.33.09-.68.2-1.05.32a7.57,7.57,0,0,0-1.19.54,3.28,3.28,0,0,1-1.23.39,3,3,0,0,1-.94,0,3.15,3.15,0,0,0-1,0,2.06,2.06,0,0,0-.35.12,2,2,0,0,1-.35.11l-.51.09a.47.47,0,0,0-.26.09.92.92,0,0,0-.18.23l-.28.44a4.64,4.64,0,0,0-.38,1.44q-.08.77-.15,1.62a5.41,5.41,0,0,0,.79.66,2.14,2.14,0,0,0,1.15.24,2,2,0,0,0,.66-.09,2.27,2.27,0,0,1,.65-.14,5.76,5.76,0,0,1,.82.06,4.67,4.67,0,0,0,.93,0,9.31,9.31,0,0,0,1.83-.28,5.43,5.43,0,0,1,1.83-.13c.15,0,.41,0,.8,0l1.17.09a7.13,7.13,0,0,1,1.06.17c.31.07.47.17.47.3a.65.65,0,0,1-.28.46,5.06,5.06,0,0,1-.63.45,4.08,4.08,0,0,1-.71.33l-.47.17a2.74,2.74,0,0,1-1.23.1,4.67,4.67,0,0,0-1.3,0,4.81,4.81,0,0,0-.94.22l-.82.32-.83.33a3.28,3.28,0,0,1-1,.21c-.5,0-.92.1-1.27.17l-1.23.24a4.1,4.1,0,0,0-.56.17l-.56.16a7.77,7.77,0,0,1-2.33.1,13,13,0,0,0-2.71,0,13.29,13.29,0,0,0-1.66.28,4.52,4.52,0,0,1-1.47.09l-.5-.06a.66.66,0,0,1-.43-.2,1,1,0,0,1,.34-.52,4.92,4.92,0,0,1,.52-.41l.5-.47.47-.47a2.56,2.56,0,0,0,.37-.72c.1-.29.19-.58.28-.88a8.21,8.21,0,0,1,.3-.84,2.43,2.43,0,0,1,.43-.69,1.94,1.94,0,0,1,0-1.53c.21-.57.4-1.17.57-1.79a1.42,1.42,0,0,0,.08-.45,1.14,1.14,0,0,1,.07-.41,1.32,1.32,0,0,1,.34-.65,1.37,1.37,0,0,0,.33-.58,1.14,1.14,0,0,0,0-.37,1.53,1.53,0,0,1,0-.37,4.21,4.21,0,0,1,.28-1.07,4.41,4.41,0,0,0,.28-.91,1.39,1.39,0,0,0,0-.61,1.86,1.86,0,0,1,0-.62,6,6,0,0,1,.32-1.42,4.7,4.7,0,0,0,.28-1.19,2.46,2.46,0,0,0-.11-.9,3.72,3.72,0,0,0-.3-.74,1.69,1.69,0,0,0-.34-.39l-.45-.4a4.74,4.74,0,0,1-.39-.35.48.48,0,0,1-.17-.32c0-.27.14-.41.34-.43a.91.91,0,0,0,.56-.24,14.71,14.71,0,0,1,2.55.3,15.77,15.77,0,0,0,2.52.34,3.13,3.13,0,0,0,1,0,9.32,9.32,0,0,1,1-.13,5.86,5.86,0,0,1,1.77.22,5.66,5.66,0,0,0,2,.19c.87-.05,1.7-.08,2.47-.08s1.57,0,2.42-.07a1,1,0,0,0,.67.17c.3,0,.6,0,.92-.08a4.1,4.1,0,0,1,.85,0,.63.63,0,0,1,.54.34.81.81,0,0,1-.07.89,1.41,1.41,0,0,1-.82.49,2.41,2.41,0,0,0-.41,0l-.56.07a3.86,3.86,0,0,1-.58,0Z"/><path class="cls-1" d="M419.34,45.18a.84.84,0,0,1,.45.39,2.91,2.91,0,0,1,.16.5c0,.17.08.35.13.52a.66.66,0,0,0,.38.41,1.15,1.15,0,0,0,.26.19l.41.24.43.23a.42.42,0,0,0,.31.05.63.63,0,0,0,.41-.33,3.14,3.14,0,0,0,.32-.69,3.77,3.77,0,0,0,.17-.81,2,2,0,0,0,0-.67,1.52,1.52,0,0,0-.41-.31,3.56,3.56,0,0,0-.52-.28,6.66,6.66,0,0,1-1-.45,5.75,5.75,0,0,0-1-.45,1.9,1.9,0,0,1-.47-.24.82.82,0,0,0-.46-.17.49.49,0,0,0-.34.06.84.84,0,0,1-.37.09,3,3,0,0,1-.54,0,3.7,3.7,0,0,0-.66,0,5.65,5.65,0,0,0-.68.11,1.66,1.66,0,0,0-.62.26,2.45,2.45,0,0,0-.69.91q-.21.51-.54,1.14a1.62,1.62,0,0,1-.26.34.58.58,0,0,0-.19.44.39.39,0,0,0,.13.27.67.67,0,0,1,.21.33,2,2,0,0,1,.15.47,1.8,1.8,0,0,0,.11.43l.22.2a1.72,1.72,0,0,1,.19.17.78.78,0,0,1,.17.26.41.41,0,0,0,.16.22l.66.4a2.78,2.78,0,0,0,.87.35,4.83,4.83,0,0,1,1.29.47,10.62,10.62,0,0,0,1.14.54,2,2,0,0,1,.65.43,6.2,6.2,0,0,1,.43.48,5.71,5.71,0,0,0,.39.47,1.22,1.22,0,0,0,.58.33.88.88,0,0,0,.33.08.9.9,0,0,1,.34.07,1.29,1.29,0,0,1,.37.24l.41.36a2.14,2.14,0,0,1,.28.32,1.7,1.7,0,0,1,.21.31,2,2,0,0,1,.15.58c0,.24,0,.43,0,.58a7.62,7.62,0,0,1,0,1.41,4.06,4.06,0,0,1-.26,1,6.47,6.47,0,0,1-.47.9,11.52,11.52,0,0,0-.62,1.16c-.32.15-.66.31-1,.5a6.1,6.1,0,0,0-.9.58c-.12.1-.3.22-.52.37a2.09,2.09,0,0,1-.6.3,4.38,4.38,0,0,1-1.26.22,5,5,0,0,0-1.38.26,2,2,0,0,1-.88,0,4.13,4.13,0,0,0-.91,0,8,8,0,0,0-.83.17,1.82,1.82,0,0,1-.78,0,3.81,3.81,0,0,1-1.15-.39,12.23,12.23,0,0,1-1.12-.62.75.75,0,0,1-.3-.2,1.22,1.22,0,0,0-.3-.24,1.89,1.89,0,0,0-.52-.21,1.18,1.18,0,0,1-.49-.24l-.41-.36-.37-.35c-.3-.2-.63-.4-1-.62a2.2,2.2,0,0,1-.76-.65.83.83,0,0,1-.17-.5,1.56,1.56,0,0,0-.17-.62,1.13,1.13,0,0,0-.26-.45.69.69,0,0,1-.22-.37A2,2,0,0,1,406,55c.15-.43.28-.79.41-1.09a1.84,1.84,0,0,1,1.17.14,2.53,2.53,0,0,1,.81.65,5.27,5.27,0,0,1,.59.91,9.34,9.34,0,0,0,.52.88,1.88,1.88,0,0,0,.94.74l1.23.53.43.2.39.17a5.51,5.51,0,0,1,.84.39,1.7,1.7,0,0,0,.76.24,5.84,5.84,0,0,0,.73-.05l.8-.13a2.34,2.34,0,0,1,.9-.13,1.93,1.93,0,0,0,.85-.17c.33-.13.51-.28.56-.45a3.3,3.3,0,0,1,.34-.71,3.06,3.06,0,0,0-.34-1,3.21,3.21,0,0,0-.67-.71,1.8,1.8,0,0,0-.43-.25,3.45,3.45,0,0,1-.43-.2c-.52-.32-1.09-.65-1.71-1a6.86,6.86,0,0,0-2.05-.67,9.56,9.56,0,0,1-1.48-.62,2.41,2.41,0,0,1-1.1-1.06.78.78,0,0,1-.13-.3,1.17,1.17,0,0,0-.09-.33,5.59,5.59,0,0,0-.84-1.42,3.74,3.74,0,0,1-.73-1.53,1.22,1.22,0,0,1,0-.54,4.34,4.34,0,0,1,.09-.54,4.68,4.68,0,0,0,.09-.56,1.75,1.75,0,0,0,0-.64.61.61,0,0,0,.18-.29,1.82,1.82,0,0,1,.11-.3,1.51,1.51,0,0,0,.21-.47.85.85,0,0,1,.32-.46,3.1,3.1,0,0,0,.43-.47,1.67,1.67,0,0,1,.35-.39.67.67,0,0,1,.26-.1.54.54,0,0,0,.26-.09,1.3,1.3,0,0,0,.34-.28,3.34,3.34,0,0,1,.33-.32,8,8,0,0,1,1.68-1,12,12,0,0,1,1.9-.61,1.1,1.1,0,0,1,.49-.32,3.12,3.12,0,0,1,.73-.19l.76-.09.63-.07a10.68,10.68,0,0,1,1.85.37c.46.15.89.3,1.31.47s.85.31,1.32.46a10.07,10.07,0,0,0,1.83.37c.3.23.61.5.95.81a5.6,5.6,0,0,1,.87,1A4,4,0,0,1,426,45a1.87,1.87,0,0,1-.09,1.25,4.34,4.34,0,0,0-.3.84,2.67,2.67,0,0,1-.33.83,6.48,6.48,0,0,0-.39.71,2.8,2.8,0,0,1-.47.68,3.07,3.07,0,0,1-1.34.74,4.45,4.45,0,0,1-1.61.15,1.77,1.77,0,0,0-.69-.63l-.93-.55a4.87,4.87,0,0,1-.86-.63,1.56,1.56,0,0,1-.5-.88,3.07,3.07,0,0,1,.06-1.34A1.37,1.37,0,0,1,419.34,45.18Z"/><path class="cls-1" d="M438.54,58.53a12.17,12.17,0,0,0,.45-1.14,12.84,12.84,0,0,1,.49-1.21,4,4,0,0,0,.22-.79,3.88,3.88,0,0,1,.26-.82,4.33,4.33,0,0,1,.47-.67,2.36,2.36,0,0,0,.42-.74,2.49,2.49,0,0,0,0-1.44,3.3,3.3,0,0,1,0-1.62c.12-.52.27-1,.43-1.55a7.92,7.92,0,0,0,.32-1.36,4.61,4.61,0,0,0,.07-.84,6.65,6.65,0,0,1,.07-.88,3.38,3.38,0,0,1,.3-.95,2.44,2.44,0,0,0,.26-.87A2.32,2.32,0,0,0,442,42.1a8.56,8.56,0,0,0-.95-1.18.54.54,0,0,1,.24-.35c.14-.09.25-.12.32-.09a5.7,5.7,0,0,1,1,.29,4.61,4.61,0,0,0,1.08.3,3.28,3.28,0,0,0,1,0,4.35,4.35,0,0,1,1.14,0l1.52.15c.6.05,1.18.08,1.76.08a16.24,16.24,0,0,0,1.86,0,7.84,7.84,0,0,1,1.75,0,3.55,3.55,0,0,1,1.16.33,2,2,0,0,0,1.16.19,3.45,3.45,0,0,0,1.21.91,5.43,5.43,0,0,1,1.25.8A6.46,6.46,0,0,1,458.83,45a6.31,6.31,0,0,0,1.34,1.52,1.08,1.08,0,0,0,.15.55,1.69,1.69,0,0,1,.19.6,1.46,1.46,0,0,1-.08.43,1.58,1.58,0,0,0-.07.47.94.94,0,0,0,.22.54.72.72,0,0,1,.15.61,6.11,6.11,0,0,1-.67,2.58,20.36,20.36,0,0,1-1.27,2.23.69.69,0,0,0-.57.34c-.12.2-.26.42-.43.67a3.68,3.68,0,0,1-.88.88,3.93,3.93,0,0,0-.91.87,6.2,6.2,0,0,0-1.51.79,10.86,10.86,0,0,1-1.55.89l-.62.28-.61.28a6.55,6.55,0,0,0-.71.26,4.5,4.5,0,0,1-.63.23.93.93,0,0,1-.47,0,1.06,1.06,0,0,0-.47,0,3.12,3.12,0,0,0-.93.39,2.43,2.43,0,0,1-.9.36,2.46,2.46,0,0,1-1-.08c-.35-.1-.68-.19-1-.26a8.86,8.86,0,0,1-1.26.06L443,60.54c-.45,0-.92,0-1.42,0a14.39,14.39,0,0,0-1.6.19,1.51,1.51,0,0,0-.47.15A2.24,2.24,0,0,1,439,61a5.21,5.21,0,0,1-.92.07h-.95l-.45,0-.5,0a1.45,1.45,0,0,1-.43-.14.37.37,0,0,1-.22-.24.41.41,0,0,1,.13-.39,1.89,1.89,0,0,1,.41-.3,4.46,4.46,0,0,1,.5-.22,3,3,0,0,0,.41-.17,3.61,3.61,0,0,0,.77-.58A1.9,1.9,0,0,1,438.54,58.53Zm9.92-14.44a1.79,1.79,0,0,0-.43.71c-.08.28-.16.57-.22.88s-.12.63-.17,1a5.73,5.73,0,0,1-.22.93l-.3.58a2.56,2.56,0,0,0-.22.58,6.86,6.86,0,0,0-.23,1.38,7.56,7.56,0,0,1-.22,1.42,2.73,2.73,0,0,1-.28.8,2.73,2.73,0,0,0-.28.8,2,2,0,0,0,0,.78,2.1,2.1,0,0,1,0,.79,2.6,2.6,0,0,1-.21.55,3.73,3.73,0,0,0-.2.56,1.45,1.45,0,0,0,.37,1.48,3.21,3.21,0,0,0,1.35.65,4.07,4.07,0,0,0,2.48-.17,6.2,6.2,0,0,0,1.8-1.06c.33-.37.66-.78,1-1.21a5.42,5.42,0,0,0,.82-1.44,5.89,5.89,0,0,0,.23-.8c.07-.34.16-.67.26-1a3.61,3.61,0,0,1,.28-.76,6.46,6.46,0,0,0,.28-.73,4.38,4.38,0,0,0,.31-2.07,5.09,5.09,0,0,0-.39-1.73,2,2,0,0,0-.35-.49c-.17-.17-.32-.35-.47-.52s-.33-.4-.47-.6a2.83,2.83,0,0,0-.35-.45,3.06,3.06,0,0,0-1.25-.69,3.42,3.42,0,0,1-1.32-.69,2,2,0,0,0-.94.23A4.65,4.65,0,0,1,448.46,44.09Z"/><path class="cls-1" d="M480.39,43.35a4.67,4.67,0,0,1-2,.48c-.67,0-1.41,0-2.23-.07a6.29,6.29,0,0,0-.73,0l-.73.07a4.93,4.93,0,0,0-2.95,1.32A6.87,6.87,0,0,0,470,48.05c-.12.42-.22.8-.3,1.15s.09.55.49.6a1.84,1.84,0,0,0,.74,0,5.91,5.91,0,0,0,.77-.21l.76-.24a2.78,2.78,0,0,1,.75-.11.57.57,0,0,1,.28.08.68.68,0,0,0,.28.07,3.87,3.87,0,0,0,1.34-.09,2.65,2.65,0,0,1,1.31,0,.49.49,0,0,1,.2.13.9.9,0,0,0,.28.17,4.47,4.47,0,0,0,1.16.24,3.47,3.47,0,0,1,1.08.24,1,1,0,0,1,.37.28c.13.14.19.23.19.28,0,.27-.16.45-.49.52a5.37,5.37,0,0,1-.82.15,2,2,0,0,1-.59,0,1.74,1.74,0,0,0-.6,0c-.35.05-.68.12-1,.2l-1,.32a8.13,8.13,0,0,0-1.2.54,3.17,3.17,0,0,1-1.23.39,2.9,2.9,0,0,1-.93,0,3.15,3.15,0,0,0-1,0,2.06,2.06,0,0,0-.35.12,1.89,1.89,0,0,1-.36.11,4.21,4.21,0,0,1-.5.09.47.47,0,0,0-.26.09.93.93,0,0,0-.19.23c-.06.1-.15.25-.28.44a4.63,4.63,0,0,0-.37,1.44q-.08.77-.15,1.62a4.93,4.93,0,0,0,.79.66,2.14,2.14,0,0,0,1.15.24,1.91,1.91,0,0,0,.65-.09,2.35,2.35,0,0,1,.66-.14,5.76,5.76,0,0,1,.82.06,4.67,4.67,0,0,0,.93,0,9.31,9.31,0,0,0,1.83-.28,5.39,5.39,0,0,1,1.82-.13c.15,0,.42,0,.8,0l1.18.09a7.13,7.13,0,0,1,1.06.17c.31.07.47.17.47.3a.65.65,0,0,1-.28.46,5.06,5.06,0,0,1-.63.45,4.08,4.08,0,0,1-.71.33l-.47.17a2.74,2.74,0,0,1-1.23.1,4.73,4.73,0,0,0-1.31,0,4.88,4.88,0,0,0-.93.22l-.82.32-.84.33a3.15,3.15,0,0,1-1,.21c-.5,0-.92.1-1.27.17l-1.23.24a4.1,4.1,0,0,0-.56.17l-.56.16a7.77,7.77,0,0,1-2.33.1,13,13,0,0,0-2.71,0,13.29,13.29,0,0,0-1.66.28,4.52,4.52,0,0,1-1.47.09l-.5-.06a.66.66,0,0,1-.43-.2,1,1,0,0,1,.33-.52,6.31,6.31,0,0,1,.53-.41l.5-.47.46-.47a2.57,2.57,0,0,0,.38-.72c.1-.29.19-.58.28-.88a5.19,5.19,0,0,1,.3-.84,2.43,2.43,0,0,1,.43-.69,1.93,1.93,0,0,1,0-1.53c.21-.57.41-1.17.58-1.79a1.42,1.42,0,0,0,.08-.45,1.14,1.14,0,0,1,.07-.41,1.32,1.32,0,0,1,.34-.65,1.37,1.37,0,0,0,.33-.58,1.14,1.14,0,0,0,0-.37,1.15,1.15,0,0,1,0-.37,4.21,4.21,0,0,1,.28-1.07,4.41,4.41,0,0,0,.28-.91,1.56,1.56,0,0,0,0-.61,1.86,1.86,0,0,1,0-.62,5.54,5.54,0,0,1,.32-1.42,4.26,4.26,0,0,0,.27-1.19,2.26,2.26,0,0,0-.11-.9,4.56,4.56,0,0,0-.29-.74,1.69,1.69,0,0,0-.34-.39l-.45-.4a4.74,4.74,0,0,1-.39-.35.48.48,0,0,1-.17-.32c0-.27.14-.41.34-.43a.93.93,0,0,0,.56-.24,14.83,14.83,0,0,1,2.55.3,15.77,15.77,0,0,0,2.52.34,3.13,3.13,0,0,0,1,0,9.14,9.14,0,0,1,1-.13,5.79,5.79,0,0,1,1.77.22,5.74,5.74,0,0,0,2,.19c.87-.05,1.69-.08,2.46-.08s1.58,0,2.43-.07a1,1,0,0,0,.67.17c.3,0,.6,0,.91-.08a4.2,4.2,0,0,1,.86,0,.63.63,0,0,1,.54.34.81.81,0,0,1-.07.89,1.44,1.44,0,0,1-.82.49,2.41,2.41,0,0,0-.41,0l-.56.07a4,4,0,0,1-.58,0Z"/><path class="cls-1" d="M499,32.61a16.39,16.39,0,0,0,4.08.78c1.33.07,2.77.09,4.31,0a18.14,18.14,0,0,0,2-.11c.65-.08,1.3-.13,2-.17a18.34,18.34,0,0,1,2,0,8.15,8.15,0,0,1,1.94.3,5,5,0,0,1,.73.28l.69.31a6.14,6.14,0,0,1,1.32.66,3,3,0,0,1,.84,1.1,13.37,13.37,0,0,1,1.3.74,5.23,5.23,0,0,1,1,.82,4.29,4.29,0,0,1,.65,1,10.56,10.56,0,0,1,.48,1.36,5.53,5.53,0,0,1,.15,1.81,8.33,8.33,0,0,1-.33,1.75,11.23,11.23,0,0,1-.64,1.59,12.54,12.54,0,0,1-.74,1.3q-.42.52-.84,1a7.18,7.18,0,0,1-1,.91,2.33,2.33,0,0,0-.37.41,1.57,1.57,0,0,1-.34.38,5.15,5.15,0,0,1-.55.31l-.64.32a1.1,1.1,0,0,0-.41.32.62.62,0,0,1-.34.24c-.54.2-1.09.37-1.64.52s-1.09.33-1.64.52a3.4,3.4,0,0,0-.56.21,1.74,1.74,0,0,1-.48.17,1.13,1.13,0,0,1-.49,0,1.78,1.78,0,0,0-.56-.07,2.45,2.45,0,0,0-.72.2,3,3,0,0,1-.88.21,9.42,9.42,0,0,1-1.19,0,6,6,0,0,0-1.27,0l-.9.07a1.81,1.81,0,0,0-.63.17,1.63,1.63,0,0,0-.47.37,3.82,3.82,0,0,0-.43.69,4.6,4.6,0,0,0-.14.51l-.15.57a9.39,9.39,0,0,0-.41,1.44,5,5,0,0,0-.08,1.51,3,3,0,0,1,0,.43,1,1,0,0,0,0,.32,1.4,1.4,0,0,0,.28.59l.43.54a4.21,4.21,0,0,1,.39.58,1.46,1.46,0,0,1,.17.71,2.36,2.36,0,0,1-1.62.43q-1-.06-2-.06c-.62,0-1.16,0-1.64,0a7.61,7.61,0,0,0-1.56,0,3.69,3.69,0,0,0-.8.24,3.3,3.3,0,0,1-.81.25,2.09,2.09,0,0,1-.61,0,1.59,1.59,0,0,0-.65,0,5.69,5.69,0,0,0-.86.2l-.8.28a5.78,5.78,0,0,1-.81.24,2.33,2.33,0,0,1-.78.06,1,1,0,0,1,.08-.91,2.78,2.78,0,0,1,.7-.66c.3-.2.61-.38.92-.56a1.47,1.47,0,0,0,.65-.63,7.9,7.9,0,0,1,.63-1.27,6.16,6.16,0,0,0,.64-1.34,9.87,9.87,0,0,0,.41-1.49,7.35,7.35,0,0,1,.45-1.49,2,2,0,0,1,.41-.56,1.26,1.26,0,0,0,.33-.56,3.56,3.56,0,0,0,.1-1.18,2.93,2.93,0,0,1,.13-1.21,1,1,0,0,1,.26-.41,1.06,1.06,0,0,0,.26-.41,2.24,2.24,0,0,0,0-.86,3.14,3.14,0,0,1,0-.86,2.23,2.23,0,0,1,.15-.63,5.79,5.79,0,0,0,.18-.63.76.76,0,0,0,0-.34,1.53,1.53,0,0,1,0-.37,4.19,4.19,0,0,1,.41-.82,3.55,3.55,0,0,0,.41-.93c.28-.87.55-1.81.84-2.82a9.82,9.82,0,0,0,.36-3.11c0-.15-.06-.3-.1-.43s-.07-.27-.09-.39a3.73,3.73,0,0,1,0-.9,1.25,1.25,0,0,0-.13-.75,3.94,3.94,0,0,0-.45-.61,5.57,5.57,0,0,1-.58-.82,2.2,2.2,0,0,1-.28-.8C498.49,32.92,498.65,32.73,499,32.61Zm10.81,15.74a2.76,2.76,0,0,0,.82-.56,1.2,1.2,0,0,1,.9-.34,1.72,1.72,0,0,0,.43-.71,3.39,3.39,0,0,1,.35-.78,1.19,1.19,0,0,0,.75-.64c.12-.29.25-.62.37-1a1.41,1.41,0,0,1,.21-.35,1.75,1.75,0,0,0,.2-.35,11.59,11.59,0,0,0,.71-2,5.63,5.63,0,0,0,0-2.14,2.82,2.82,0,0,0-.32-1.06,4.12,4.12,0,0,0-.58-.79A7.3,7.3,0,0,0,513,37a6.35,6.35,0,0,1-.71-.67,4.12,4.12,0,0,1-.84-.28,2.26,2.26,0,0,0-1.06-.17,2.58,2.58,0,0,0-.73.11,5.42,5.42,0,0,1-.72.19,10.16,10.16,0,0,0-.86,2.22,11.69,11.69,0,0,1-.86,2.29,1.14,1.14,0,0,1-.24.41,1.33,1.33,0,0,0-.24.38.83.83,0,0,0,0,.46,1,1,0,0,1,.06.47,1.92,1.92,0,0,1-.13.46c-.06.14-.12.28-.17.43a7.72,7.72,0,0,0-.24,1A6.59,6.59,0,0,1,506,45.4c-.15.55-.33,1.07-.52,1.57a2.1,2.1,0,0,0,0,1.52,6.87,6.87,0,0,0,2.16.3A5.14,5.14,0,0,0,509.81,48.35Z"/><path class="cls-1" d="M528.83,43.76a6.29,6.29,0,0,0,1.23-1.12c.35-.42.69-.85,1-1.27a.71.71,0,0,0,.52-.11,1.67,1.67,0,0,1,.49-.22,1.82,1.82,0,0,1,1.06,0,2.8,2.8,0,0,0,1.06.14,4.1,4.1,0,0,0,1.21-.34,3.38,3.38,0,0,1,1.37-.26.74.74,0,0,1,.48.17,1,1,0,0,0,.45.2.67.67,0,0,0,.54-.07,1,1,0,0,1,.54-.15,1,1,0,0,1,.8.33,6.78,6.78,0,0,0,.65.67,4.15,4.15,0,0,1,0,1.68,6.28,6.28,0,0,0-.07,1.68c0,.37.1.73.17,1.08a6.38,6.38,0,0,1,.09,1.08,4.55,4.55,0,0,1-.06,1,4.21,4.21,0,0,0,0,1.06,1.82,1.82,0,0,0,.11.38.67.67,0,0,1,0,.37,1.08,1.08,0,0,1-.34.63.91.91,0,0,0-.3.6,1.48,1.48,0,0,0,.24,1,2.41,2.41,0,0,1,.4,1,1.15,1.15,0,0,1,0,.48,1.85,1.85,0,0,0-.08.49,10.27,10.27,0,0,0,0,1.83c.06.67.11,1.29.13,1.86a3.05,3.05,0,0,0,.06.6.83.83,0,0,1,0,.48.45.45,0,0,1-.17.3,1,1,0,0,0-.2.26,1.35,1.35,0,0,0,0,.52,5,5,0,0,1,0,.64,2.74,2.74,0,0,1,0,.5,3.59,3.59,0,0,0,0,.43,1.17,1.17,0,0,0,.09.24.37.37,0,0,1,0,.25,1.54,1.54,0,0,1-.5.72,1.19,1.19,0,0,1-.88.36,1.89,1.89,0,0,1-.65-.36,6.76,6.76,0,0,1-.62-.5,2,2,0,0,1-.41-1,3.33,3.33,0,0,0-.34-1.16,1.26,1.26,0,0,0-.31-.35,2,2,0,0,1-.36-.4,2.4,2.4,0,0,1-.29-.84,8.2,8.2,0,0,1-.1-.85c0-.29,0-.57-.05-.86a4.08,4.08,0,0,0-.19-.88.77.77,0,0,0-.22-.26.86.86,0,0,1-.26-.3,2.87,2.87,0,0,1-.3-.63c-.05-.18-.21-.31-.49-.41-.87,0-1.74,0-2.63-.08a14.86,14.86,0,0,0-2.59.08,1.88,1.88,0,0,0-.52.13,2.32,2.32,0,0,1-.52.13,1,1,0,0,1-.3,0l-.26,0a2,2,0,0,0-1,.46,4.12,4.12,0,0,0-.75.77,1.14,1.14,0,0,0-.16.54,2.55,2.55,0,0,1-.13.61,1.41,1.41,0,0,1-.38.54.63.63,0,0,0-.18.62,2.56,2.56,0,0,0-.69.74c-.19.3-.37.61-.54.92a7.74,7.74,0,0,1-.58.87,1.78,1.78,0,0,1-.77.6,1.7,1.7,0,0,0-.35.19.66.66,0,0,1-.36.11c-.12,0-.19-.06-.2-.11s-.09-.13-.24-.23l-.54-.33c-.21-.13-.42-.26-.62-.41a5.06,5.06,0,0,1-.54-.47,1.87,1.87,0,0,1-.35-.46c-.2-.43-.24-.73-.12-.92l.49-.69c.27-.4.58-.84.93-1.34s.66-1,.93-1.42c.15-.25.28-.48.4-.71a3.14,3.14,0,0,1,.42-.63,2.38,2.38,0,0,1,.77-.67,1.49,1.49,0,0,0,.65-.67,1.1,1.1,0,0,0,.08-.4,1.32,1.32,0,0,1,.07-.42,3.81,3.81,0,0,1,.93-1.35,3.93,3.93,0,0,0,1-1.34,1.69,1.69,0,0,0,.1-.35,1.35,1.35,0,0,1,.09-.36,10.69,10.69,0,0,1,1.47-2.46A16.63,16.63,0,0,0,528.83,43.76Zm5.22-.11a3.65,3.65,0,0,0-.76.76,2,2,0,0,1-.84.65,4.36,4.36,0,0,1-.35.64,1.51,1.51,0,0,1-.55.48,2.34,2.34,0,0,1-.44,1c-.23.28-.44.56-.64.84a2.51,2.51,0,0,0-.26.31,3.56,3.56,0,0,1-.26.36,1.5,1.5,0,0,1-.37.28,1.16,1.16,0,0,0-.34.24,5.09,5.09,0,0,0-.48.82,9.72,9.72,0,0,1-.49.86l-.37.37a.5.5,0,0,0-.11.49.6.6,0,0,0,.45.39,3.3,3.3,0,0,0,.76.11,5.82,5.82,0,0,0,.84,0c.27,0,.5,0,.67,0l1.06,0a7.31,7.31,0,0,0,1,0,3,3,0,0,0,.89-.18,1.37,1.37,0,0,0,.62-.45,5.34,5.34,0,0,0,.19-2.41c-.13-.8-.24-1.61-.34-2.4a5,5,0,0,1-.11-.75,3,3,0,0,1,0-.74,1.7,1.7,0,0,1,.24-.73,1,1,0,0,0,.06-.84Z"/><path class="cls-1" d="M558.93,41.3a2.44,2.44,0,0,0,.59.07,2.47,2.47,0,0,1,.6.08.41.41,0,0,1,.23.07.65.65,0,0,0,.22.11.28.28,0,0,0,.22,0,.45.45,0,0,1,.23,0,3.32,3.32,0,0,1,1.38.69,9.12,9.12,0,0,1,1,1.14c.15.25.34.54.56.88a5.1,5.1,0,0,1,.56,1.12,4.17,4.17,0,0,1,.26,1.28,2.77,2.77,0,0,1-.26,1.34,4.47,4.47,0,0,1-.22.47l-.3.58a8.29,8.29,0,0,1-.56.86,2.06,2.06,0,0,1-.71.63c-.2.13-.37.24-.5.34a3,3,0,0,1-.51.29,4.56,4.56,0,0,0-1,.54,5.6,5.6,0,0,1-1,.58,1.59,1.59,0,0,1-.39.1,1.24,1.24,0,0,0-.39.09,1.08,1.08,0,0,0-.41.41.87.87,0,0,1-.56.37,3.51,3.51,0,0,1,1.71,1,6.22,6.22,0,0,1,1.2,1.66,3,3,0,0,0,.52.93,1.31,1.31,0,0,1,.3.93,1.72,1.72,0,0,1,.43.58,5.35,5.35,0,0,1,.28.77c.07.27.14.55.2.83a3.87,3.87,0,0,0,.24.77,3.93,3.93,0,0,0,.49.8,6.32,6.32,0,0,0,.56.6c.2.18.4.38.6.59a3.14,3.14,0,0,1,.52.81.91.91,0,0,0,.24-.1.48.48,0,0,1,.28,0,4.22,4.22,0,0,0,1.25.64,10.49,10.49,0,0,0,1.7.37,6.45,6.45,0,0,0,1.62.09,12.88,12.88,0,0,0,1.58-.2,2.7,2.7,0,0,0,.66-.21,8.11,8.11,0,0,1,.78-.28,2.26,2.26,0,0,1,.69-.09q.3,0,.3.39a1,1,0,0,1-.34.64,4.2,4.2,0,0,1-.6.56,5.28,5.28,0,0,1-1.45.7,13.1,13.1,0,0,1-1.72.43,15.33,15.33,0,0,1-1.82.25c-.62,0-1.21.08-1.75.11a2.69,2.69,0,0,1-1-.17,5.39,5.39,0,0,0-.76-.24c-.5-.08-.94-.16-1.33-.26a4.32,4.32,0,0,1-1.09-.45,2.6,2.6,0,0,1-.79-.73,1.43,1.43,0,0,0-.93-.58l-1.94-1.73a6,6,0,0,1-1.53-2.18,5.47,5.47,0,0,0-.41-.65,2.77,2.77,0,0,1-.34-.69,1.81,1.81,0,0,1-.12-.56c0-.2-.05-.43-.1-.68a6.94,6.94,0,0,0-.22-.87c-.1-.31-.2-.6-.3-.88a1.13,1.13,0,0,0-.11-.22,1.27,1.27,0,0,1-.12-.23c0-.14-.09-.33-.14-.54a1,1,0,0,0-.26-.5,3.21,3.21,0,0,0-.62-.34,5.55,5.55,0,0,0-.73-.26,1.8,1.8,0,0,0-.8,0,4.31,4.31,0,0,1-.73.15,3.24,3.24,0,0,1-.93,0,1.57,1.57,0,0,0-.74.05,1.62,1.62,0,0,0-.86,1,5.2,5.2,0,0,0-.41,1.64,9,9,0,0,1-.45,1.66,14.24,14.24,0,0,0-.48,1.55,1.81,1.81,0,0,1-.49.8,1.09,1.09,0,0,1-.93.25l-.47-.06a1.21,1.21,0,0,1-.43-.17,5.72,5.72,0,0,0-.65.36l-.65.39c-.82.25-1.29.19-1.4-.19a3.79,3.79,0,0,1,.13-1.79,6.49,6.49,0,0,1,.58-1.53,6.81,6.81,0,0,0,.54-1.27,2.21,2.21,0,0,0,.06-.61q0-.29-.06-.54a2.79,2.79,0,0,1,0-.47.64.64,0,0,1,.15-.39,1.22,1.22,0,0,1,.22-.65,1.56,1.56,0,0,0,.27-.65c.05-.25.11-.51.18-.79a3.82,3.82,0,0,0,.15-.78c0-.3,0-.58.06-.84a2.62,2.62,0,0,1,.24-.91q.18-.49.39-1a4.36,4.36,0,0,0,.28-1,4.78,4.78,0,0,0,.09-.76,2.53,2.53,0,0,1,.17-.77.84.84,0,0,1,.32-.48.9.9,0,0,0,.32-.49.8.8,0,0,0,0-.41.48.48,0,0,1,0-.37,2.72,2.72,0,0,0,.15-1.18,2,2,0,0,0-.25-.71,4.74,4.74,0,0,1-.29-.54,1,1,0,0,1,0-.71c.12,0,.23-.13.33-.31a.68.68,0,0,1,.41-.36,4,4,0,0,1,.56,0l.9,0q.48,0,.93,0l.71,0a3.25,3.25,0,0,0,.75,0,8.81,8.81,0,0,1,.93-.07c.32,0,.62,0,.91,0a1.61,1.61,0,0,1,.73.15Zm-5.67,9.51a1.22,1.22,0,0,0,.58-.15.7.7,0,0,1,.54-.08,6.62,6.62,0,0,0,.74.11l.83.12a.69.69,0,0,0,.37,0,1,1,0,0,1,.48,0,6.65,6.65,0,0,1,1.07-.67,2.25,2.25,0,0,0,.87-.89,7.31,7.31,0,0,1,.41-.66,2.16,2.16,0,0,0,.3-.54,1.88,1.88,0,0,0-.07-1.47c-.23-.41-.44-.78-.64-1.1a3,3,0,0,0-.71-.8,1.66,1.66,0,0,0-1.11-.17,9.6,9.6,0,0,1-1.31,0,9.35,9.35,0,0,0-1.29,0,3.7,3.7,0,0,0-1.1.23,1.23,1.23,0,0,0-.71.67c-.12.37-.27.78-.44,1.23s-.34.9-.49,1.36a13.74,13.74,0,0,0-.37,1.4,6.62,6.62,0,0,0-.15,1.38,3.25,3.25,0,0,1,1.12.05A3.66,3.66,0,0,0,553.26,50.81Z"/><path class="cls-1" d="M573.51,43.76a6.29,6.29,0,0,0,1.23-1.12c.35-.42.68-.85,1-1.27a.71.71,0,0,0,.52-.11,1.74,1.74,0,0,1,.48-.22,1.86,1.86,0,0,1,1.07,0,2.8,2.8,0,0,0,1.06.14,4.19,4.19,0,0,0,1.21-.34,3.37,3.37,0,0,1,1.36-.26.75.75,0,0,1,.49.17,1,1,0,0,0,.45.2.68.68,0,0,0,.54-.07,1.1,1.1,0,0,1,1.34.18,5.81,5.81,0,0,0,.65.67,4.15,4.15,0,0,1,0,1.68,6.28,6.28,0,0,0-.07,1.68c0,.37.1.73.16,1.08a6.38,6.38,0,0,1,.1,1.08,4.55,4.55,0,0,1-.06,1,4.75,4.75,0,0,0-.06,1.06,2.78,2.78,0,0,0,.12.38.59.59,0,0,1,0,.37,1.07,1.07,0,0,1-.33.63.83.83,0,0,0-.3.6,1.48,1.48,0,0,0,.24,1,2.52,2.52,0,0,1,.39,1,1,1,0,0,1,0,.48,1.85,1.85,0,0,0-.08.49,10.27,10.27,0,0,0,0,1.83c.06.67.11,1.29.13,1.86a3.05,3.05,0,0,0,.06.6.93.93,0,0,1,0,.48.5.5,0,0,1-.17.3.7.7,0,0,0-.2.26,1.53,1.53,0,0,0,0,.52,3.72,3.72,0,0,1,.06.64,2.74,2.74,0,0,1,0,.5,3.59,3.59,0,0,0,0,.43A1.17,1.17,0,0,0,585,62a.37.37,0,0,1,0,.25,1.5,1.5,0,0,1-.51.72,1.15,1.15,0,0,1-.87.36A2,2,0,0,1,583,63a6.33,6.33,0,0,1-.61-.5,1.91,1.91,0,0,1-.41-1,3.33,3.33,0,0,0-.34-1.16,1.26,1.26,0,0,0-.31-.35,2,2,0,0,1-.36-.4,2.65,2.65,0,0,1-.3-.84,6.13,6.13,0,0,1-.09-.85c0-.29,0-.57-.06-.86a3.53,3.53,0,0,0-.18-.88.8.8,0,0,0-.23-.26,1,1,0,0,1-.26-.3,2.39,2.39,0,0,1-.29-.63.72.72,0,0,0-.49-.41c-.87,0-1.75,0-2.63-.08a14.83,14.83,0,0,0-2.59.08,1.88,1.88,0,0,0-.52.13,2.42,2.42,0,0,1-.53.13.92.92,0,0,1-.29,0l-.27,0a2,2,0,0,0-1,.46,3.83,3.83,0,0,0-.75.77,1.15,1.15,0,0,0-.17.54,1.85,1.85,0,0,1-.13.61,1.28,1.28,0,0,1-.37.54.64.64,0,0,0-.19.62,2.87,2.87,0,0,0-.69.74l-.54.92a5.72,5.72,0,0,1-.58.87,1.76,1.76,0,0,1-.76.6,1.7,1.7,0,0,0-.35.19.69.69,0,0,1-.36.11c-.12,0-.19-.06-.2-.11a.7.7,0,0,0-.25-.23c-.14-.1-.33-.21-.54-.33s-.41-.26-.61-.41a5.06,5.06,0,0,1-.54-.47,2.24,2.24,0,0,1-.36-.46c-.2-.43-.23-.73-.11-.92l.49-.69c.27-.4.58-.84.93-1.34s.66-1,.93-1.42c.15-.25.28-.48.39-.71a3.2,3.2,0,0,1,.43-.63,2.38,2.38,0,0,1,.77-.67,1.55,1.55,0,0,0,.65-.67,1.09,1.09,0,0,0,.07-.4,1.35,1.35,0,0,1,.08-.42,3.81,3.81,0,0,1,.93-1.35,4.07,4.07,0,0,0,1-1.34,1.21,1.21,0,0,0,.09-.35,2,2,0,0,1,.1-.36A10.35,10.35,0,0,1,572,45.92,17.67,17.67,0,0,0,573.51,43.76Zm5.22-.11a3.65,3.65,0,0,0-.76.76,2,2,0,0,1-.84.65,3.63,3.63,0,0,1-.36.64,1.4,1.4,0,0,1-.54.48,2.24,2.24,0,0,1-.45,1q-.33.42-.63.84a1.86,1.86,0,0,0-.26.31l-.26.36a1.72,1.72,0,0,1-.37.28,1.16,1.16,0,0,0-.34.24,5.09,5.09,0,0,0-.48.82,9.72,9.72,0,0,1-.49.86l-.37.37a.48.48,0,0,0-.11.49.6.6,0,0,0,.44.39,3.48,3.48,0,0,0,.77.11,5.89,5.89,0,0,0,.84,0c.27,0,.49,0,.67,0l1.06,0a7.14,7.14,0,0,0,1,0,3,3,0,0,0,.9-.18,1.37,1.37,0,0,0,.62-.45,5.33,5.33,0,0,0,.18-2.41c-.12-.8-.23-1.61-.33-2.4a5,5,0,0,1-.11-.75,3,3,0,0,1,0-.74,1.7,1.7,0,0,1,.24-.73,1,1,0,0,0,.05-.84Z"/><path class="cls-1" d="M605,51.37a.2.2,0,0,0,.14.2,1.49,1.49,0,0,0,.28.11,1.43,1.43,0,0,1,.27.15.22.22,0,0,1,.1.24,4.51,4.51,0,0,0,1,.77,4,4,0,0,1,1,.84,1,1,0,0,1,.15.43,1.09,1.09,0,0,0,.15.43,1.74,1.74,0,0,1,.3,1.54,4.2,4.2,0,0,1-.81,1.53,6.78,6.78,0,0,1-1.36,1.31,8,8,0,0,1-1.38.84,4.23,4.23,0,0,1-1.1.41l-1.28.26a1.13,1.13,0,0,0-.34.11l-.33.15a8.18,8.18,0,0,1-2.35.17,16.33,16.33,0,0,0-2.43,0,5.55,5.55,0,0,0-.76.11,1.61,1.61,0,0,1-.8-.07,1.27,1.27,0,0,1-.38-.17,1,1,0,0,0-.37-.17,1,1,0,0,0-.56,0,3.22,3.22,0,0,1-.6.13,2.68,2.68,0,0,1-.85,0,3.31,3.31,0,0,0-.94,0,1.55,1.55,0,0,0-.48.13,2.34,2.34,0,0,1-.49.13,12.46,12.46,0,0,1-1.51.13c-.51,0-1,0-1.32,0a1.07,1.07,0,0,1-.41-.07.83.83,0,0,0-.37-.08,3.26,3.26,0,0,0-.49.06c-.22,0-.45.06-.67.07a1.74,1.74,0,0,1-.58,0,.33.33,0,0,1-.24-.34.41.41,0,0,1,.2-.3,4.17,4.17,0,0,1,.47-.28l.52-.26a3.2,3.2,0,0,0,.41-.24c.15-.13.35-.3.58-.52a9.58,9.58,0,0,0,.69-.73q.33-.39.6-.78a2.48,2.48,0,0,0,.33-.69.65.65,0,0,0,0-.34.76.76,0,0,1,0-.3,4.94,4.94,0,0,1,.36-1.1c.18-.43.34-.8.46-1.1a4.23,4.23,0,0,0,.12-.56A2.37,2.37,0,0,1,590,53a4.21,4.21,0,0,1,.41-.73c.15-.21.29-.43.43-.65a3,3,0,0,0,.3-.73,3.36,3.36,0,0,0,0-1,1.92,1.92,0,0,0-.11-.37,1.64,1.64,0,0,1-.11-.41,2.09,2.09,0,0,1,.39-1.23,2.89,2.89,0,0,0,.5-1.23.66.66,0,0,0-.07-.32.59.59,0,0,1-.08-.31,3.29,3.29,0,0,1,.13-.88,7.36,7.36,0,0,0,.21-.84,2.34,2.34,0,0,0-.17-1.19A5.72,5.72,0,0,0,591.3,42a1.92,1.92,0,0,0-.28-.3,3.11,3.11,0,0,1-.32-.31,1.28,1.28,0,0,1-.24-.39,1.07,1.07,0,0,1,0-.6,2.72,2.72,0,0,1,1.18,0,2.88,2.88,0,0,1,.87.39,5.41,5.41,0,0,1,1.7,0,6.15,6.15,0,0,1,1.51.44,4.46,4.46,0,0,1,1,0c.33,0,.67.06,1,.11a.89.89,0,0,1,.36.07.85.85,0,0,0,.35.08,2.19,2.19,0,0,0,.82-.17,4.24,4.24,0,0,1,.82-.24.89.89,0,0,1,.56,0,1.58,1.58,0,0,0,.52.09,1.63,1.63,0,0,0,.56-.15,1,1,0,0,1,.41-.11,5.77,5.77,0,0,1,1.66-.06,5.26,5.26,0,0,1,1.48.36,1.34,1.34,0,0,0,.59,0,.9.9,0,0,1,.64.09,4.94,4.94,0,0,0,1,.45,2.41,2.41,0,0,1,.87.48,3.17,3.17,0,0,1,.47.5,1.29,1.29,0,0,0,.58.43.41.41,0,0,1,.28.3.6.6,0,0,0,.28.37,2,2,0,0,1,.76,1.05,3.43,3.43,0,0,1,.25,1.38,1.85,1.85,0,0,1-.32.73c-.16.21-.32.42-.47.65a3.16,3.16,0,0,0-.22.45,1.45,1.45,0,0,1-.26.41,2.26,2.26,0,0,1-.39.22,2.68,2.68,0,0,0-.47.26,2.25,2.25,0,0,0-.52.45,1,1,0,0,1-.49.33,3.53,3.53,0,0,0-.5.28,1.66,1.66,0,0,1-.47.25c-.4.12-.75.25-1.06.37A1.68,1.68,0,0,0,605,51.37Zm-8.87,7.19a2.36,2.36,0,0,0,1.42-.43,3.93,3.93,0,0,1,1.23-.61,2.85,2.85,0,0,1,.82-.11,1.58,1.58,0,0,0,.71-.15,1.37,1.37,0,0,0,.43-.36,1.87,1.87,0,0,0,.27-.35,3.43,3.43,0,0,0,.28-.82,8.73,8.73,0,0,0,.25-1.16c.1-.74,0-1.21-.4-1.41a3.65,3.65,0,0,0-1.47-.38,16,16,0,0,0-1.92-.09A6.55,6.55,0,0,0,596,53c-.1.2-.21.4-.34.62l-.37.65c-.12.2-.26.4-.41.61a3.58,3.58,0,0,0-.37.66,1.89,1.89,0,0,0-.17.89,2.65,2.65,0,0,1-.17,1,2.88,2.88,0,0,1,.19.45,1.09,1.09,0,0,0,.26.41,1.08,1.08,0,0,1,.75.11A1.61,1.61,0,0,0,596.15,58.56Zm5.22-8.83a.82.82,0,0,1,.6-.32,1.73,1.73,0,0,0,.71-.21,2,2,0,0,0,.46-.33c.16-.15.33-.33.51-.52a4.14,4.14,0,0,0,.44-.62,5.41,5.41,0,0,0,.3-.54A1.47,1.47,0,0,0,604.5,46a3.72,3.72,0,0,0-.45-1,3,3,0,0,0-.33-.47,1.23,1.23,0,0,0-.45-.39.65.65,0,0,0-.28,0,.54.54,0,0,1-.31,0L601.57,44l-1.17-.15a2.18,2.18,0,0,0-1.81.43,4.68,4.68,0,0,0-.88,1.7q-.29.9-.54,1.77c-.16.58-.31,1.2-.46,1.85a2,2,0,0,0,1,.39,4.81,4.81,0,0,0,1.13,0l1.23-.19A5.21,5.21,0,0,1,601.37,49.73Z"/><path class="cls-1" d="M626.17,41.3a2.46,2.46,0,0,0,.6.07,2.33,2.33,0,0,1,.59.08.41.41,0,0,1,.23.07.76.76,0,0,0,.22.11.31.31,0,0,0,.23,0,.41.41,0,0,1,.22,0,3.32,3.32,0,0,1,1.38.69,7.8,7.8,0,0,1,1,1.14c.15.25.34.54.56.88a4.69,4.69,0,0,1,.56,1.12,4.17,4.17,0,0,1,.26,1.28,2.77,2.77,0,0,1-.26,1.34,4.47,4.47,0,0,1-.22.47l-.3.58a6.92,6.92,0,0,1-.56.86,2.06,2.06,0,0,1-.71.63l-.5.34a3.3,3.3,0,0,1-.5.29,4.85,4.85,0,0,0-1,.54,5.6,5.6,0,0,1-1,.58,1.59,1.59,0,0,1-.39.1,1.3,1.3,0,0,0-.39.09,1.15,1.15,0,0,0-.41.41.87.87,0,0,1-.56.37,3.58,3.58,0,0,1,1.72,1A6.17,6.17,0,0,1,628.11,56a3,3,0,0,0,.52.93,1.22,1.22,0,0,1,.3.93,1.6,1.6,0,0,1,.43.58,5.35,5.35,0,0,1,.28.77c.07.27.14.55.2.83a4.64,4.64,0,0,0,.25.77,3.93,3.93,0,0,0,.48.8,6.32,6.32,0,0,0,.56.6c.2.18.4.38.6.59a2.9,2.9,0,0,1,.52.81.91.91,0,0,0,.24-.1.48.48,0,0,1,.28,0,4.35,4.35,0,0,0,1.25.64,10.73,10.73,0,0,0,1.7.37,6.45,6.45,0,0,0,1.62.09,13.29,13.29,0,0,0,1.59-.2,2.65,2.65,0,0,0,.65-.21,8.11,8.11,0,0,1,.78-.28,2.26,2.26,0,0,1,.69-.09q.3,0,.3.39a1,1,0,0,1-.34.64,4.82,4.82,0,0,1-.59.56,5.49,5.49,0,0,1-1.46.7,13,13,0,0,1-1.71.43,15.79,15.79,0,0,1-1.83.25c-.62,0-1.21.08-1.75.11a2.59,2.59,0,0,1-.95-.17,5.48,5.48,0,0,0-.77-.24c-.5-.08-.94-.16-1.32-.26a4.39,4.39,0,0,1-1.1-.45,2.72,2.72,0,0,1-.79-.73,1.43,1.43,0,0,0-.93-.58l-1.94-1.73a6.3,6.3,0,0,1-1.53-2.18,5.47,5.47,0,0,0-.41-.65,2.43,2.43,0,0,1-.33-.69,1.58,1.58,0,0,1-.13-.56c0-.2-.05-.43-.1-.68a6.94,6.94,0,0,0-.22-.87c-.1-.31-.2-.6-.3-.88a.76.76,0,0,0-.11-.22.8.8,0,0,1-.11-.23,5.55,5.55,0,0,1-.15-.54,1,1,0,0,0-.26-.5,3.21,3.21,0,0,0-.62-.34,5.08,5.08,0,0,0-.73-.26,1.8,1.8,0,0,0-.8,0,4.42,4.42,0,0,1-.72.15,3.31,3.31,0,0,1-.94,0,1.59,1.59,0,0,0-.74.05,1.62,1.62,0,0,0-.86,1A5.49,5.49,0,0,0,616.4,57a9,9,0,0,1-.45,1.66,14.24,14.24,0,0,0-.48,1.55,1.72,1.72,0,0,1-.49.8,1.09,1.09,0,0,1-.93.25l-.47-.06a1.11,1.11,0,0,1-.42-.17,4.88,4.88,0,0,0-.66.36l-.65.39c-.82.25-1.29.19-1.4-.19a3.79,3.79,0,0,1,.13-1.79,7,7,0,0,1,.58-1.53A6.81,6.81,0,0,0,611.7,57a2.21,2.21,0,0,0,.06-.61c0-.19,0-.37-.06-.54a4.47,4.47,0,0,1,0-.47.64.64,0,0,1,.15-.39,1.23,1.23,0,0,1,.23-.65,1.55,1.55,0,0,0,.26-.65c.05-.25.11-.51.18-.79a3.82,3.82,0,0,0,.15-.78q0-.45.06-.84a2.62,2.62,0,0,1,.24-.91l.39-1a4.36,4.36,0,0,0,.28-1,6.31,6.31,0,0,0,.1-.76,2.25,2.25,0,0,1,.16-.77.84.84,0,0,1,.32-.48.9.9,0,0,0,.32-.49.8.8,0,0,0,0-.41.48.48,0,0,1,0-.37,2.72,2.72,0,0,0,.15-1.18,2.19,2.19,0,0,0-.24-.71q-.17-.27-.3-.54a1,1,0,0,1,0-.71c.13,0,.24-.13.34-.31a.66.66,0,0,1,.41-.36,3.83,3.83,0,0,1,.56,0l.89,0q.48,0,.93,0l.71,0a3.25,3.25,0,0,0,.75,0,9.23,9.23,0,0,1,.93-.07c.32,0,.63,0,.91,0a1.61,1.61,0,0,1,.73.15Zm-5.67,9.51a1.22,1.22,0,0,0,.58-.15.71.71,0,0,1,.54-.08,6.46,6.46,0,0,0,.75.11l.82.12a.68.68,0,0,0,.37,0,1,1,0,0,1,.48,0,6.65,6.65,0,0,1,1.07-.67,2.25,2.25,0,0,0,.87-.89c.13-.23.27-.45.41-.66a2.16,2.16,0,0,0,.3-.54,1.84,1.84,0,0,0-.07-1.47c-.23-.41-.44-.78-.64-1.1a3,3,0,0,0-.7-.8,1.7,1.7,0,0,0-1.12-.17,9.6,9.6,0,0,1-1.31,0,9.33,9.33,0,0,0-1.29,0,3.63,3.63,0,0,0-1.09.23,1.2,1.2,0,0,0-.71.67q-.19.55-.45,1.23c-.18.45-.34.9-.49,1.36a13.74,13.74,0,0,0-.37,1.4,6.62,6.62,0,0,0-.15,1.38,3.25,3.25,0,0,1,1.12.05A3.66,3.66,0,0,0,620.5,50.81Z"/><path class="cls-1" d="M633.14,58.86a3.09,3.09,0,0,1,.58-1.55,4.44,4.44,0,0,0,1-2.46c0-.36.06-.72.08-1.08a9.83,9.83,0,0,1,.09-1.08,5.66,5.66,0,0,1,.26-1.06,1.35,1.35,0,0,1-.15-.75,7.88,7.88,0,0,0,0-.86,2.51,2.51,0,0,0,.3-.59.67.67,0,0,1,.52-.45,4,4,0,0,0,.37-1.7,8.92,8.92,0,0,1,.19-1.81.71.71,0,0,1,.15-.33,1.58,1.58,0,0,0,.19-.34,5.3,5.3,0,0,0,.26-1.66,4.6,4.6,0,0,1,.29-1.66,4.44,4.44,0,0,0,.56-.24l.69-.34a6.11,6.11,0,0,1,.69-.27,1.35,1.35,0,0,1,.6-.08,1.74,1.74,0,0,1,.37.21l.45.31a2.27,2.27,0,0,1,.35.26,2.18,2.18,0,0,0,.36.26,1.46,1.46,0,0,0,.39.14.65.65,0,0,1,.32.13l.24.26c.14.15.27.31.41.48s.27.34.39.51a3.09,3.09,0,0,1,.23.31,1.32,1.32,0,0,1,0,.51,3.52,3.52,0,0,1-.21.56c-.08.18-.17.37-.26.55s-.15.36-.2.51-.15.54-.23.8a5.54,5.54,0,0,1-.29.8c-.13.33-.26.7-.41,1.12a5.81,5.81,0,0,0-.3,1.34,1.18,1.18,0,0,1-.4.79,1.27,1.27,0,0,0-.42.74,3.29,3.29,0,0,0-.08.71c0,.25,0,.49,0,.73s0,.46,0,.69a1.56,1.56,0,0,1-.17.63.61.61,0,0,1-.33.28,1,1,0,0,0-.38.28,4.07,4.07,0,0,0-.39.93c-.11.38-.2.77-.28,1.18a6.37,6.37,0,0,0-.09,1.23,3.37,3.37,0,0,0,.2,1.1,2.33,2.33,0,0,1-.65,1,3.21,3.21,0,0,1-1.1.69,4.06,4.06,0,0,1-1.36.26,3.81,3.81,0,0,1-1.47-.24,5.1,5.1,0,0,0-.71-.84A2.66,2.66,0,0,1,633.14,58.86Z"/><path class="cls-1" d="M656.86,45.18a.77.77,0,0,1,.45.39,2.27,2.27,0,0,1,.17.5c0,.17.08.35.13.52A.65.65,0,0,0,658,47a2,2,0,0,0,.26.19l.41.24.43.23a.45.45,0,0,0,.32.05.63.63,0,0,0,.41-.33,3.14,3.14,0,0,0,.32-.69,4.49,4.49,0,0,0,.17-.81,2,2,0,0,0,0-.67,1.52,1.52,0,0,0-.41-.31,4.16,4.16,0,0,0-.52-.28,6.2,6.2,0,0,1-1-.45,5.75,5.75,0,0,0-1-.45,1.9,1.9,0,0,1-.47-.24.85.85,0,0,0-.47-.17.45.45,0,0,0-.33.06.87.87,0,0,1-.37.09,3,3,0,0,1-.54,0,3.67,3.67,0,0,0-.66,0,6.15,6.15,0,0,0-.69.11,1.61,1.61,0,0,0-.61.26,2.25,2.25,0,0,0-.69.91q-.21.51-.54,1.14a1.41,1.41,0,0,1-.27.34.6.6,0,0,0-.18.44.35.35,0,0,0,.13.27.66.66,0,0,1,.2.33,1.36,1.36,0,0,1,.15.47,1.8,1.8,0,0,0,.12.43l.22.2.19.17a.63.63,0,0,1,.16.26.48.48,0,0,0,.17.22l.65.4a2.83,2.83,0,0,0,.88.35,4.83,4.83,0,0,1,1.29.47,10.5,10.5,0,0,0,1.13.54,1.94,1.94,0,0,1,.66.43,6.2,6.2,0,0,1,.43.48,5.71,5.71,0,0,0,.39.47,1.17,1.17,0,0,0,.58.33.88.88,0,0,0,.33.08.94.94,0,0,1,.34.07,1.29,1.29,0,0,1,.37.24c.12.12.26.23.41.36a2.92,2.92,0,0,1,.28.32,2.43,2.43,0,0,1,.21.31,1.7,1.7,0,0,1,.14.58,4.68,4.68,0,0,1,0,.58,7.47,7.47,0,0,1,0,1.41,3.64,3.64,0,0,1-.26,1,6.38,6.38,0,0,1-.46.9,11.52,11.52,0,0,0-.62,1.16c-.32.15-.66.31-1,.5a6.54,6.54,0,0,0-.89.58l-.52.37a2.38,2.38,0,0,1-.6.3,4.46,4.46,0,0,1-1.27.22,5.12,5.12,0,0,0-1.38.26,1.91,1.91,0,0,1-.87,0,4.2,4.2,0,0,0-.92,0,8.29,8.29,0,0,0-.82.17,1.82,1.82,0,0,1-.78,0,3.86,3.86,0,0,1-1.16-.39c-.42-.21-.79-.42-1.12-.62a.79.79,0,0,1-.29-.2,1.22,1.22,0,0,0-.3-.24,2,2,0,0,0-.52-.21,1.18,1.18,0,0,1-.49-.24c-.15-.13-.29-.24-.41-.36l-.37-.35c-.3-.2-.63-.4-1-.62a2.25,2.25,0,0,1-.77-.65.83.83,0,0,1-.16-.5,1.74,1.74,0,0,0-.17-.62,1.13,1.13,0,0,0-.26-.45.71.71,0,0,1-.23-.37,2.14,2.14,0,0,1,.12-1.15c.14-.43.28-.79.41-1.09a1.84,1.84,0,0,1,1.17.14,2.39,2.39,0,0,1,.8.65,4.78,4.78,0,0,1,.6.91,7.59,7.59,0,0,0,.52.88,1.89,1.89,0,0,0,.93.74l1.24.53.42.2.39.17a4.74,4.74,0,0,1,.84.39,1.74,1.74,0,0,0,.77.24,5.84,5.84,0,0,0,.73-.05l.8-.13a2.29,2.29,0,0,1,.89-.13,2,2,0,0,0,.86-.17c.32-.13.51-.28.56-.45a3.3,3.3,0,0,1,.34-.71,3.32,3.32,0,0,0-.34-1,3.47,3.47,0,0,0-.67-.71,2,2,0,0,0-.43-.25,2.89,2.89,0,0,1-.43-.2c-.52-.32-1.09-.65-1.71-1a6.92,6.92,0,0,0-2.06-.67,9.89,9.89,0,0,1-1.47-.62,2.36,2.36,0,0,1-1.1-1.06.66.66,0,0,1-.13-.3,1.17,1.17,0,0,0-.09-.33,5.59,5.59,0,0,0-.84-1.42,3.62,3.62,0,0,1-.73-1.53,1.38,1.38,0,0,1,0-.54c0-.19.06-.37.1-.54s.06-.36.09-.56a2,2,0,0,0,0-.64.64.64,0,0,0,.19-.29,1.21,1.21,0,0,1,.11-.3,1.51,1.51,0,0,0,.21-.47.82.82,0,0,1,.31-.46,2.32,2.32,0,0,0,.43-.47,1.7,1.7,0,0,1,.36-.39.67.67,0,0,1,.26-.1.58.58,0,0,0,.26-.09,1.44,1.44,0,0,0,.33-.28,2.61,2.61,0,0,1,.34-.32,8,8,0,0,1,1.68-1,11.67,11.67,0,0,1,1.9-.61,1.12,1.12,0,0,1,.48-.32,3.4,3.4,0,0,1,.73-.19l.77-.09.63-.07a10.68,10.68,0,0,1,1.85.37c.46.15.89.3,1.3.47s.85.31,1.33.46a10.13,10.13,0,0,0,1.82.37c.3.23.62.5,1,.81a5.66,5.66,0,0,1,.88,1,4,4,0,0,1,.54,1.18,1.94,1.94,0,0,1-.09,1.25,3.32,3.32,0,0,0-.3.84,2.68,2.68,0,0,1-.34.83c-.12.2-.25.44-.39.71a2.53,2.53,0,0,1-.46.68,3.05,3.05,0,0,1-1.35.74,4.4,4.4,0,0,1-1.6.15,1.77,1.77,0,0,0-.69-.63l-.93-.55a4.87,4.87,0,0,1-.86-.63,1.56,1.56,0,0,1-.5-.88,3.22,3.22,0,0,1,0-1.34A1.39,1.39,0,0,1,656.86,45.18Z"/><path class="cls-1" d="M671.56,43.76a6.29,6.29,0,0,0,1.23-1.12c.35-.42.68-.85,1-1.27a.72.72,0,0,0,.52-.11,1.74,1.74,0,0,1,.48-.22,1.86,1.86,0,0,1,1.07,0,2.77,2.77,0,0,0,1.06.14,4.19,4.19,0,0,0,1.21-.34,3.37,3.37,0,0,1,1.36-.26.75.75,0,0,1,.49.17,1,1,0,0,0,.44.2.67.67,0,0,0,.54-.07,1.06,1.06,0,0,1,.55-.15,1,1,0,0,1,.8.33,5.08,5.08,0,0,0,.65.67,4.34,4.34,0,0,1,0,1.68,6.28,6.28,0,0,0-.08,1.68c.05.37.11.73.17,1.08a6.38,6.38,0,0,1,.09,1.08,4,4,0,0,1-.05,1,4.75,4.75,0,0,0-.06,1.06,2.72,2.72,0,0,0,.11.38.59.59,0,0,1,0,.37,1,1,0,0,1-.34.63.86.86,0,0,0-.29.6,1.48,1.48,0,0,0,.24,1,2.52,2.52,0,0,1,.39,1,1,1,0,0,1,0,.48,1.81,1.81,0,0,0-.07.49,10.27,10.27,0,0,0,0,1.83c.06.67.1,1.29.13,1.86a4,4,0,0,0,.05.6.84.84,0,0,1,0,.48.55.55,0,0,1-.17.3.86.86,0,0,0-.21.26,1.58,1.58,0,0,0,0,.52,3.72,3.72,0,0,1,.06.64,4,4,0,0,1,0,.5,2.37,2.37,0,0,0,0,.43,2.44,2.44,0,0,0,.1.24.36.36,0,0,1,0,.25,1.47,1.47,0,0,1-.5.72,1.19,1.19,0,0,1-.88.36A2.08,2.08,0,0,1,681,63a6.33,6.33,0,0,1-.61-.5,1.91,1.91,0,0,1-.41-1,3.56,3.56,0,0,0-.34-1.16,1.16,1.16,0,0,0-.32-.35,2.23,2.23,0,0,1-.35-.4,2.65,2.65,0,0,1-.3-.84,6.13,6.13,0,0,1-.09-.85c0-.29,0-.57-.06-.86a4.05,4.05,0,0,0-.18-.88.8.8,0,0,0-.23-.26,1,1,0,0,1-.26-.3,2.87,2.87,0,0,1-.3-.63c0-.18-.21-.31-.48-.41-.87,0-1.75,0-2.63-.08a14.83,14.83,0,0,0-2.59.08,2,2,0,0,0-.53.13,2.32,2.32,0,0,1-.52.13,1,1,0,0,1-.3,0l-.26,0a1.94,1.94,0,0,0-1,.46,3.57,3.57,0,0,0-.75.77,1,1,0,0,0-.17.54,1.85,1.85,0,0,1-.13.61,1.38,1.38,0,0,1-.37.54.62.62,0,0,0-.19.62A2.87,2.87,0,0,0,667,59l-.54.92a6.58,6.58,0,0,1-.58.87,1.76,1.76,0,0,1-.76.6,1.48,1.48,0,0,0-.35.19.72.72,0,0,1-.36.11c-.12,0-.19-.06-.21-.11s-.09-.13-.24-.23l-.54-.33c-.21-.13-.41-.26-.61-.41a5.06,5.06,0,0,1-.54-.47,1.94,1.94,0,0,1-.36-.46c-.2-.43-.24-.73-.11-.92l.48-.69.94-1.34c.34-.5.65-1,.93-1.42.15-.25.28-.48.39-.71a3.2,3.2,0,0,1,.43-.63,2.34,2.34,0,0,1,.76-.67,1.52,1.52,0,0,0,.66-.67,1.09,1.09,0,0,0,.07-.4,1.35,1.35,0,0,1,.08-.42,3.57,3.57,0,0,1,.93-1.35,4.22,4.22,0,0,0,1-1.34,1.21,1.21,0,0,0,.09-.35,1.35,1.35,0,0,1,.09-.36,10.38,10.38,0,0,1,1.48-2.46A18.84,18.84,0,0,0,671.56,43.76Zm5.22-.11a3.7,3.7,0,0,0-.77.76,2,2,0,0,1-.83.65,3.63,3.63,0,0,1-.36.64,1.56,1.56,0,0,1-.54.48,2.24,2.24,0,0,1-.45,1q-.33.42-.63.84a1.86,1.86,0,0,0-.26.31l-.26.36a1.54,1.54,0,0,1-.38.28,1.27,1.27,0,0,0-.33.24,5.88,5.88,0,0,0-.49.82,7.83,7.83,0,0,1-.48.86l-.37.37a.48.48,0,0,0-.12.49.64.64,0,0,0,.45.39,3.39,3.39,0,0,0,.77.11,5.89,5.89,0,0,0,.84,0c.27,0,.49,0,.67,0l1.06,0a7.14,7.14,0,0,0,1,0,3,3,0,0,0,.9-.18,1.34,1.34,0,0,0,.61-.45,5.34,5.34,0,0,0,.19-2.41c-.12-.8-.24-1.61-.34-2.4a6.71,6.71,0,0,1-.11-.75,4.56,4.56,0,0,1,0-.74,1.87,1.87,0,0,1,.25-.73,1,1,0,0,0,0-.84Z"/><path class="cls-1" d="M699.19,45.18a.77.77,0,0,1,.45.39,2.27,2.27,0,0,1,.17.5,4.94,4.94,0,0,0,.13.52.65.65,0,0,0,.37.41,2,2,0,0,0,.26.19l.41.24.43.23a.44.44,0,0,0,.32.05.65.65,0,0,0,.41-.33,3.68,3.68,0,0,0,.32-.69,3.75,3.75,0,0,0,.16-.81,1.79,1.79,0,0,0,0-.67,1.52,1.52,0,0,0-.41-.31,3.55,3.55,0,0,0-.53-.28,6.53,6.53,0,0,1-1-.45,6.14,6.14,0,0,0-1-.45,1.9,1.9,0,0,1-.47-.24.85.85,0,0,0-.47-.17.45.45,0,0,0-.33.06.88.88,0,0,1-.38.09,3,3,0,0,1-.54,0,3.56,3.56,0,0,0-.65,0,6.15,6.15,0,0,0-.69.11,1.61,1.61,0,0,0-.61.26,2.25,2.25,0,0,0-.69.91,11.49,11.49,0,0,1-.55,1.14,1.33,1.33,0,0,1-.26.34.6.6,0,0,0-.18.44A.35.35,0,0,0,694,47a.74.74,0,0,1,.2.33,1.36,1.36,0,0,1,.15.47,2.45,2.45,0,0,0,.11.43l.23.2.18.17a.65.65,0,0,1,.17.26.43.43,0,0,0,.17.22l.65.4a2.74,2.74,0,0,0,.88.35,4.83,4.83,0,0,1,1.29.47,10.5,10.5,0,0,0,1.13.54,1.89,1.89,0,0,1,.65.43,3.72,3.72,0,0,1,.43.48c.13.16.26.32.4.47a1.18,1.18,0,0,0,.57.33,1,1,0,0,0,.34.08.94.94,0,0,1,.34.07,1.45,1.45,0,0,1,.37.24c.12.12.26.23.41.36a2.92,2.92,0,0,1,.28.32,2.29,2.29,0,0,1,.2.31,1.49,1.49,0,0,1,.15.58,4.68,4.68,0,0,1,0,.58,8.43,8.43,0,0,1,0,1.41,3.64,3.64,0,0,1-.26,1,5.55,5.55,0,0,1-.47.9A11.72,11.72,0,0,0,702,59.5c-.32.15-.66.31-1,.5a6,6,0,0,0-.89.58l-.52.37a2.38,2.38,0,0,1-.6.3,4.46,4.46,0,0,1-1.27.22,5,5,0,0,0-1.38.26,2,2,0,0,1-.88,0,4.11,4.11,0,0,0-.91,0,7.72,7.72,0,0,0-.82.17,1.82,1.82,0,0,1-.78,0,3.86,3.86,0,0,1-1.16-.39c-.42-.21-.8-.42-1.12-.62a.93.93,0,0,1-.3-.2,1,1,0,0,0-.29-.24,2,2,0,0,0-.53-.21,1.21,1.21,0,0,1-.48-.24c-.15-.13-.29-.24-.41-.36s-.25-.23-.37-.35c-.3-.2-.63-.4-1-.62a2.25,2.25,0,0,1-.77-.65.83.83,0,0,1-.16-.5,1.74,1.74,0,0,0-.17-.62,1.13,1.13,0,0,0-.26-.45.71.71,0,0,1-.23-.37A2.23,2.23,0,0,1,685.8,55c.15-.43.29-.79.41-1.09a1.86,1.86,0,0,1,1.18.14,2.39,2.39,0,0,1,.8.65,6,6,0,0,1,.6.91,7.59,7.59,0,0,0,.52.88,1.89,1.89,0,0,0,.93.74c.42.18.84.35,1.23.53l.43.2.39.17a4.74,4.74,0,0,1,.84.39,1.74,1.74,0,0,0,.77.24,5.68,5.68,0,0,0,.72-.05l.81-.13a2.27,2.27,0,0,1,.89-.13,2,2,0,0,0,.86-.17c.32-.13.51-.28.56-.45a3.69,3.69,0,0,1,.33-.71,3.37,3.37,0,0,0-.33-1,3.47,3.47,0,0,0-.67-.71,2,2,0,0,0-.43-.25,2.89,2.89,0,0,1-.43-.2c-.52-.32-1.1-.65-1.72-1a6.77,6.77,0,0,0-2-.67,9.89,9.89,0,0,1-1.47-.62,2.36,2.36,0,0,1-1.1-1.06.56.56,0,0,1-.13-.3,1.22,1.22,0,0,0-.1-.33,5.27,5.27,0,0,0-.83-1.42,3.62,3.62,0,0,1-.73-1.53,1.38,1.38,0,0,1,0-.54l.09-.54c0-.18.07-.36.1-.56a2,2,0,0,0,0-.64.64.64,0,0,0,.19-.29,1.21,1.21,0,0,1,.11-.3,1.28,1.28,0,0,0,.2-.47.9.9,0,0,1,.32-.46,2.32,2.32,0,0,0,.43-.47,1.93,1.93,0,0,1,.35-.39.79.79,0,0,1,.27-.1.58.58,0,0,0,.26-.09,1.44,1.44,0,0,0,.33-.28,2.61,2.61,0,0,1,.34-.32,7.57,7.57,0,0,1,1.68-1,11.67,11.67,0,0,1,1.9-.61,1.12,1.12,0,0,1,.48-.32,3.4,3.4,0,0,1,.73-.19l.77-.09.63-.07a10.88,10.88,0,0,1,1.85.37c.45.15.89.3,1.3.47s.85.31,1.32.46a10.45,10.45,0,0,0,1.83.37c.3.23.62.5.95.81a5.66,5.66,0,0,1,.88,1,4,4,0,0,1,.54,1.18,1.94,1.94,0,0,1-.09,1.25,3.32,3.32,0,0,0-.3.84,3,3,0,0,1-.34.83c-.12.2-.25.44-.39.71a2.55,2.55,0,0,1-.47.68,3,3,0,0,1-1.34.74,4.42,4.42,0,0,1-1.6.15,1.77,1.77,0,0,0-.69-.63L699.7,49a4.87,4.87,0,0,1-.86-.63,1.64,1.64,0,0,1-.51-.88,3.41,3.41,0,0,1,.06-1.34A1.39,1.39,0,0,1,699.19,45.18Z"/><path class="cls-1" d="M55.55,74.59l-.1-3.71a4,4,0,0,0-.2-1.39,4.24,4.24,0,0,1-.19-.55q0-.43,1.32-.66a12.31,12.31,0,0,1,2-.24c.46,0,.72.11.75.33A60.73,60.73,0,0,0,61.23,76c.07.15.14.23.21.23s.13-.06.18-.17c.88-2.47,1.65-4.92,2.31-7.33a.67.67,0,0,1,.4-.37,6,6,0,0,1,1.09-.24A10,10,0,0,1,67,68c.51,0,.76.11.76.31,0,0,0,.12-.06.31s-.08.42-.12.69-.08.61-.14,1c-.11.91-.19,1.94-.22,3.11s-.05,2.34-.05,3.52l0,2.06a7.16,7.16,0,0,0,.19,2,4.8,4.8,0,0,1,.18.69c0,.06,0,.13-.14.21a2.91,2.91,0,0,1-1.84.49c-.52,0-.82-.18-.88-.53a4.53,4.53,0,0,1-.06-.87c0-.4,0-1.63.12-3.68s.12-3.54.12-4.48,0-1.4-.16-1.4h0s0,0-.06,0a2.1,2.1,0,0,0-.3.61c-.16.39-.49,1.36-1,2.9s-.92,3-1.31,4.32-.61,2.06-.65,2.17a.82.82,0,0,1-.82.53.57.57,0,0,1-.47-.22q-.63-2.91-2.24-8.29l-.55-1.78c0-.07-.05-.1-.07-.1s-.12,0-.14.13c-.06.85-.08,2.52-.08,5a24.1,24.1,0,0,0,.27,4.72.27.27,0,0,1,0,.11c0,.28-.21.48-.65.6a4.37,4.37,0,0,1-1.16.19c-.35,0-.52-.08-.52-.24a2.5,2.5,0,0,1,.1-.31,13.62,13.62,0,0,0,.38-2.9Q55.55,77,55.55,74.59Z"/><path class="cls-1" d="M71.68,73.55a.18.18,0,0,0,0-.1.43.43,0,0,0,0-.14A4.82,4.82,0,0,1,71,71a2.39,2.39,0,0,1,.79-1.86,3,3,0,0,1,2.07-.73,2.91,2.91,0,0,1,1,.2,1.42,1.42,0,0,1,1,1.45c0,1-.65,2-2,3.23a.12.12,0,0,0,0,.08,42.72,42.72,0,0,0,2.84,5.45,6,6,0,0,0,.32-2,1.89,1.89,0,0,0-.34-1.1.25.25,0,0,1,0-.11c0-.19.27-.28.81-.28a1.37,1.37,0,0,1,1.05.3,1.47,1.47,0,0,1,.24.94,6.18,6.18,0,0,1-1.12,3.64q1,1.38,1.53,1.47a.25.25,0,0,1,.19.23c0,.11-.09.2-.28.28a4.18,4.18,0,0,1-1.45.39,1.71,1.71,0,0,1-1.16-.31c-.09-.09-.24-.25-.45-.49a5,5,0,0,1-2.69.76,5.14,5.14,0,0,1-3.3-1,3.53,3.53,0,0,1-1.3-3q0-2.61,2.76-4.83Zm1.92,7.39a3.46,3.46,0,0,0,1.62-.38,37.52,37.52,0,0,1-1.82-3.48c-.63-1.36-1-2.08-1-2.14s-.07-.1-.1-.1l-.11.06A4.1,4.1,0,0,0,71,78a3.24,3.24,0,0,0,.66,2.08A2.32,2.32,0,0,0,73.6,80.94Zm-.43-9c0,.08.06.12.11.12a.23.23,0,0,0,.16-.08,2.41,2.41,0,0,0,.88-1.72.83.83,0,0,0-.21-.62.81.81,0,0,0-.58-.21.68.68,0,0,0-.58.3,1.4,1.4,0,0,0-.21.87A2.8,2.8,0,0,0,73.17,71.9Z"/><path class="cls-1" d="M80.85,78.68,81,75.21H79.66c-.11,0-.16,0-.16-.11a1.48,1.48,0,0,1,.33-.82.94.94,0,0,1,.73-.46H81c0-1,0-1.75-.08-2.19a5.12,5.12,0,0,0-.39-1.85l-.1-.19a.41.41,0,0,1-.08-.24c0-.09.07-.17.22-.23a4.76,4.76,0,0,1,.63-.24,15.71,15.71,0,0,1,1.8-.36,18.4,18.4,0,0,1,3-.23q1.62,0,1.77.24a1.41,1.41,0,0,1,.15.74c0,.33-.05.49-.14.49l-.14,0a4.51,4.51,0,0,0-1-.07,10.08,10.08,0,0,0-1.39.11A9.36,9.36,0,0,0,84.1,70l-.37.14c-.1,0-.18.11-.23.27a26.06,26.06,0,0,0-.16,3.39h3.18c.11,0,.17,0,.17.12a1.53,1.53,0,0,1-.31.82.87.87,0,0,1-.71.47l-2.33,0,.14,5.88a1.13,1.13,0,0,1-.14.63,2.26,2.26,0,0,1-1.26.73,5.61,5.61,0,0,1-1.48.25c-.11,0-.16-.06-.16-.19a.63.63,0,0,1,0-.16A14.1,14.1,0,0,0,80.85,78.68Z"/><path class="cls-1" d="M71.13,110.51H27.71c-1.82,0-1.84,0-1.82,1.87.05,4.4.11,8.79.15,13.19a17.09,17.09,0,0,1-.11,2c-.21,1.94-.81,2.65-2.78,2.83a50.93,50.93,0,0,1-5.1.12c-2.73,0-5.46,0-8.19,0s-4.19-1.43-4.28-4.2c0-.74,0-1.49,0-2.23-.09-7-.1-13.91-.29-20.86C5,93,5.14,82.8,5.1,72.58c0-5.25,1.88-9.92,4.44-14.35,1-1.65,2.63-2.67,4.08-3.86.43-.35,1.29-.56,1-1.28s-1-.81-1.72-.87a30.67,30.67,0,0,1-5.48-.62c-1.26-.33-2.55-.61-3.81-1A5,5,0,0,1,.27,44.18a15.71,15.71,0,0,1,1-2.69A3,3,0,0,1,4,39.69c2,0,4-.22,6.05-.33a6.36,6.36,0,0,1,1.38,0c1.9.32,2.78,1.34,2.89,3.35a43.83,43.83,0,0,1-.29,6c-.07.74.13.84.8.73a2.43,2.43,0,0,0,1.95-1.72c2.69-6.45,5.38-12.9,8.14-19.32a37.1,37.1,0,0,1,3.53-6.9A7,7,0,0,1,33,18.21c.46-.07.62-.44.83-.75A14,14,0,0,1,36,14.85a2.72,2.72,0,0,1,2.85-.65,5.53,5.53,0,0,0,1.89.25h61a5.51,5.51,0,0,0,1.89-.23,2.71,2.71,0,0,1,2.86.61,13.36,13.36,0,0,1,2.23,2.69,1.33,1.33,0,0,0,.87.71,6.43,6.43,0,0,1,4,2.72c2,2.53,3.1,5.49,4.34,8.39,2.57,6,5.07,12.1,7.56,18.17a2.76,2.76,0,0,0,2.17,1.94c.61.1.75-.06.71-.64-.11-1.81-.23-3.61-.24-5.42,0-3,1.31-4.23,4.37-4,2.08.13,4.17.26,6.26.36a2.43,2.43,0,0,1,1.47.51c1.75,1.45,2.69,5.83,1.65,7.83a4.88,4.88,0,0,1-3.27,2.66,32.51,32.51,0,0,1-8.24,1.43,4.46,4.46,0,0,0-1,.09c-.62.12-1.42.2-1.62.84s.57,1,1,1.29c4.19,2.64,6,6.86,7.43,11.3a23.49,23.49,0,0,1,1.13,7.54c-.06,6.39.05,12.78-.1,19.16-.12,5-.08,9.93-.17,14.9-.09,4.81-.12,9.63-.2,14.45,0,1.84-.09,3.69-.17,5.53a3.37,3.37,0,0,1-2.76,3.1,15.41,15.41,0,0,1-3.18.2c-3.51,0-7,0-10.54,0a6.78,6.78,0,0,1-1.68-.2,2.39,2.39,0,0,1-2-2.08,15.12,15.12,0,0,1-.16-2c0-4.72,0-9.44,0-14.16,0-1.54,0-1.55-1.52-1.55Zm.15-61.21c6.32,0,12.63,0,18.94,0,9.4,0,18.8.13,28.19-.15,1.68,0,2-.5,1.54-2.08-1.62-5.33-3.36-10.61-5.38-15.8a37.52,37.52,0,0,0-3.33-7.12,2.29,2.29,0,0,0-2-1.11c-6.7,0-13.4-.19-20.09-.17-12.27,0-24.54-.17-36.81.11-5.5.13-11,.06-16.49.07-4.28,0-4.32,0-6.09,3.95a182.68,182.68,0,0,0-7.31,20.31c-.36,1.16.11,1.79,1.31,1.83,2.23.07,4.46.15,6.69.16Q50.85,49.32,71.28,49.3Zm-.12,13.35v0h-29q-4.2,0-8.4,0c-.49,0-1.15-.08-1.38.33s.34.79.61,1.14c2,2.67,4,5.35,6,8a4.09,4.09,0,0,1,.6,4.38C39.06,77.75,38.51,79,38,80.23A18.6,18.6,0,0,0,36.5,85c-.14,1.4.08,1.62,1.48,1.64,4.4.06,8.79.15,13.19.16q18.6,0,37.22,0c5,0,10-.11,15-.15,2.9,0,3.21-.42,2.32-3.2-.77-2.41-1.82-4.7-2.77-7a3.8,3.8,0,0,1,.47-4q2.88-3.75,5.7-7.56c.43-.58,1.37-1.24,1.07-1.8s-1.41-.36-2.18-.36Zm.14,28.06H41.51c-4,0-4,0-4.88,4-.65,2.87.25,4,3.15,4h62.89a7.93,7.93,0,0,0,1.38-.08c1.46-.24,1.89-.78,2-2.29a13.31,13.31,0,0,0-.85-4c-.32-1.23-1-1.62-2.26-1.61C92.37,90.73,81.84,90.71,71.3,90.71Zm60.53-26.54a9.75,9.75,0,0,0-.47-3c-.17-.51-.42-.87-1.08-.74-4.5.86-9,1.33-13.58,1.89a2.29,2.29,0,0,0-1.83,1.2c-2.27,3.68-4.51,7.39-7.08,10.87-.2.27-.62.51-.41.91s.67.34,1,.4a2,2,0,0,0,.63-.06l10.76-1.37c2.74-.35,5.49-.65,8.22-1.08a3.43,3.43,0,0,0,3.22-3.27C131.51,68,131.64,66.08,131.83,64.17ZM34.07,75.67a1.68,1.68,0,0,0,1.07-.38c.23-.24,0-.45-.18-.64a118.32,118.32,0,0,1-7.32-11.2,2.26,2.26,0,0,0-1.83-1.2c-4.33-.46-8.65-1-12.93-1.76-1.31-.24-1.56-.23-1.9,1.36-.53,2.47,0,4.93.2,7.39s1.13,3.56,3.62,4,4.77.64,7.16.94ZM29.35,84.9l-.06-.12c-2.94-.15-5.87-.29-8.81-.46-2.61-.15-5.23-.28-7.84-.49a2.62,2.62,0,0,0-3.12,2.3c-.28,2.14-.49,4.29-.65,6.44-.12,1.7.28,2.1,2,2.29.32,0,.64,0,1,0q3.39.16,6.76.57c2.53.31,5,.73,7.54,1.22a19.43,19.43,0,0,0-2.75-1.51,1.32,1.32,0,0,1-.89-1.81c.51-2,.94-4,1.31-6A1.53,1.53,0,0,1,25.15,86C26.56,85.64,28,85.26,29.35,84.9Zm87.06,11.67A112.26,112.26,0,0,1,128.57,95a16.88,16.88,0,0,0,4-.37c.67-.21,1.17-.53,1.11-1.34-.18-2.43-.27-4.88-.69-7.29a2.62,2.62,0,0,0-2.9-2.24c-1.94.15-3.89.25-5.83.36l-11.06.66c1.43.46,2.86.85,4.31,1.19a1.43,1.43,0,0,1,1.22,1.26c.41,2.12.87,4.23,1.36,6.34a1.09,1.09,0,0,1-.68,1.44C118.4,95.52,117.41,96.06,116.41,96.57ZM71.22,18h30.34c.31,0,.63,0,1,0,.65,0,.76-.32.69-.89-.13-1-.87-.93-1.59-.93H40.19a.72.72,0,0,0-.72.51c-.4.95-.16,1.3,1,1.3Z"/><path class="cls-1" d="M14.16,92.67A3.64,3.64,0,0,1,10.5,89a3.7,3.7,0,0,1,3.71-3.5,3.58,3.58,0,0,1,3.61,3.66A3.54,3.54,0,0,1,14.16,92.67Z"/><path class="cls-1" d="M128.33,92.67a3.54,3.54,0,0,1-3.62-3.53,3.6,3.6,0,0,1,3.67-3.61,3.72,3.72,0,0,1,3.68,3.66A3.68,3.68,0,0,1,128.33,92.67Z"/></svg>