<svg id="Capa_1" data-name="Capa 1" xmlns="http://www.w3.org/2000/svg" viewBox="0 0 50 50"><defs><style>.cls-1{fill:#fff;}</style></defs><g id="menu"><path class="cls-1" d="M25,21.38H45.45a6.78,6.78,0,0,1,2,.16A3.45,3.45,0,0,1,50,25.29a3.44,3.44,0,0,1-3,3.26,21.71,21.71,0,0,1-2.55.19H5.44A14.3,14.3,0,0,1,3,28.54,3.4,3.4,0,0,1,.05,24.81a3.44,3.44,0,0,1,3.12-3.38,12.13,12.13,0,0,1,1.48-.05Z"/><path class="cls-1" d="M25,10.83H3.74A3.35,3.35,0,0,1,.53,9.09a3.77,3.77,0,0,1,.1-3.95A3.25,3.25,0,0,1,3,3.67,6.46,6.46,0,0,1,4.06,3.6H46a3.63,3.63,0,0,1,3.51,5.51,3.38,3.38,0,0,1-3.23,1.71Z"/><path class="cls-1" d="M24.93,46.4c-7.08,0-14.16,0-21.24,0A3.61,3.61,0,0,1,.56,40.84a3.31,3.31,0,0,1,3-1.64H46.22a3.58,3.58,0,0,1,3.31,5.37,3.37,3.37,0,0,1-3.26,1.83Z"/></g></svg>