<svg id="Capa_1" data-name="Capa 1" xmlns="http://www.w3.org/2000/svg" viewBox="0 0 50 50"><defs><style>.cls-1{fill:#fff;}</style></defs><path class="cls-1" d="M50,33.49a5.7,5.7,0,0,1-.82,1.81,4.78,4.78,0,0,1-2.63,1.75,90,90,0,0,1-14,2.89c-1,.12-2.07.21-3.1.29a1.94,1.94,0,0,1-.83,0c0-.24.19-.34.32-.46l9.38-9.39a1.43,1.43,0,0,0,.52-1.48,1.39,1.39,0,0,0-2.25-.74,4.07,4.07,0,0,0-.43.4c-3.77,3.77-7.55,7.54-11.3,11.32a1.55,1.55,0,0,1-1.24.5,67.28,67.28,0,0,1-10.22-1c-.18,0-.46,0-.52-.18s.18-.32.31-.45l9.07-9.08a4.68,4.68,0,0,0,.43-.46,1.38,1.38,0,0,0-.1-1.87,1.41,1.41,0,0,0-1.87-.09,5.25,5.25,0,0,0-.42.4Q15.07,32.88,9.82,38.14a.92.92,0,0,1-1,.29C7,38,5.2,37.55,3.41,37a4.52,4.52,0,0,1-3.2-5.79q2.55-9,5.1-18A4.59,4.59,0,0,1,8.92,9.71,5.23,5.23,0,0,1,10,9.65H22.92c.67,0,.67,0,.67.67,0,.85,0,1.7,0,2.54,0,.36-.12.49-.48.48-.57,0-1.14,0-1.7,0a1.43,1.43,0,1,0,0,2.85q3.6,0,7.22,0a1.43,1.43,0,1,0,0-2.85c-.56,0-1.13,0-1.7,0-.36,0-.49-.11-.49-.48,0-.87,0-1.75,0-2.63,0-.45.13-.59.58-.59,2.47,0,4.95,0,7.42,0,2,0,3.9,0,5.85,0a4.34,4.34,0,0,1,4.27,3.16c.69,2.23,1.31,4.49,1.95,6.74q1.68,5.88,3.35,11.77c0,.14.09.28.14.42Z"/></svg>