<svg id="Capa_1" data-name="Capa 1" xmlns="http://www.w3.org/2000/svg" viewBox="0 0 50 50"><defs><style>.cls-1{fill:#fff;}</style></defs><g id="phone_office" data-name="phone office"><path class="cls-1" d="M25,47.23H4.6A4.22,4.22,0,0,1,0,42.63V10A4.28,4.28,0,0,1,5,5.57c.44,0,.67.22.66.67,0,.26,0,.52,0,.77q0,14.37,0,28.74a5.59,5.59,0,0,0,4.56,5.76,4.79,4.79,0,0,0,1.07.1c1.64,0,3.29,0,4.93,0a5.64,5.64,0,0,0,6-6q0-14.37,0-28.74c0-1.27,0-1.27,1.28-1.27h21.8c3.07,0,4.73,1.65,4.73,4.69V42.54c0,3-1.66,4.69-4.73,4.69ZM36.1,19.43c2.49,0,5,0,7.46,0,.57,0,.84-.14.84-.78q0-3.35,0-6.69c0-.6-.23-.81-.82-.8q-7.45,0-14.92,0c-.64,0-.86.24-.85.87,0,2.15,0,4.31,0,6.46,0,.76.29,1,1,1C31.23,19.41,33.66,19.43,36.1,19.43Zm5.61,22.18h0c.39,0,.77,0,1.16,0a1.36,1.36,0,0,0,1.5-1.47c0-.84,0-1.69,0-2.53a1.33,1.33,0,0,0-1.44-1.45q-1.3,0-2.61,0a1.27,1.27,0,0,0-1.38,1.34c0,.92,0,1.85,0,2.77a1.3,1.3,0,0,0,1.39,1.33C40.79,41.63,41.25,41.61,41.71,41.61Zm2.67-13.84c0-.33,0-.66,0-1,0-1.25-.47-1.71-1.72-1.73-.72,0-1.44,0-2.15,0-1.08,0-1.55.5-1.58,1.56,0,.79,0,1.58,0,2.38,0,1,.44,1.45,1.45,1.51.82,0,1.64,0,2.46,0,1.06,0,1.51-.5,1.54-1.58C44.39,28.54,44.38,28.16,44.38,27.77ZM30.49,41.62h0c.46,0,.92,0,1.38,0a1.24,1.24,0,0,0,1.37-1.26,23.71,23.71,0,0,0,0-2.92,1.22,1.22,0,0,0-1.37-1.26c-.84,0-1.69,0-2.53,0a1.37,1.37,0,0,0-1.52,1.54c0,.77,0,1.54,0,2.3,0,1.15.52,1.6,1.68,1.62Zm0-11.1h0c.41,0,.82,0,1.23,0,1.1-.05,1.52-.45,1.56-1.56,0-.82,0-1.64,0-2.46a1.33,1.33,0,0,0-1.45-1.44c-.85,0-1.7,0-2.54,0a1.35,1.35,0,0,0-1.45,1.45c0,.76,0,1.53,0,2.3,0,1.24.48,1.69,1.75,1.71Z"/><path class="cls-1" d="M19.49,20.87v15a2.7,2.7,0,0,1-3,3c-1.77,0-3.54,0-5.32,0a2.59,2.59,0,0,1-2.78-2.72q0-15.3,0-30.6a2.62,2.62,0,0,1,2.81-2.8c1.82,0,3.64,0,5.47,0a2.67,2.67,0,0,1,2.87,2.91Z"/></g></svg>