<svg id="Capa_1" data-name="Capa 1" xmlns="http://www.w3.org/2000/svg" viewBox="0 0 50 50"><defs><style>.cls-1{fill:#fff;}</style></defs><g id="position"><path class="cls-1" d="M50,28.13V39.54a2.18,2.18,0,0,1-1.55,2.31Q42.74,44.15,37,46.41c-.89.36-1,.27-1-.68q0-12.13,0-24.27a7,7,0,0,1,1.11-3c.09-.19.41-.29.65-.38q4.5-1.8,9-3.58c1.93-.77,3.26.14,3.27,2.22Z"/><path class="cls-1" d="M0,33V21.72a2.26,2.26,0,0,1,1.73-2.57l9.36-3.74c.89-.35.93-.34,1.15.57a15.22,15.22,0,0,0,1.46,4,3.08,3.08,0,0,1,.36,1.55c0,6.6,0,13.19,0,19.79a1.33,1.33,0,0,1-1,1.43C9.91,44,6.76,45.25,3.59,46.52A3.07,3.07,0,0,1,2,46.88a2.24,2.24,0,0,1-2-2.37Z"/><path class="cls-1" d="M25,3.1A10.4,10.4,0,0,1,35.46,13.32,11.61,11.61,0,0,1,34,18.55a48.82,48.82,0,0,1-4.71,7.65,47.56,47.56,0,0,1-3,3.92,1.56,1.56,0,0,1-2.63,0A57,57,0,0,1,15.4,17.25C12.44,10.47,17.76,3.07,25,3.1Zm0,13.12a3.38,3.38,0,1,0-3.34-3.37A3.27,3.27,0,0,0,25,16.22Z"/><path class="cls-1" d="M33.37,36.12c0,3.23,0,6.47,0,9.7,0,.94-.11,1-1,.8L17.31,42.31a.81.81,0,0,1-.66-.89c0-5.06,0-10.12,0-15.18,0-.21-.09-.52.21-.58s.31.23.42.39c1.25,1.86,2.57,3.65,4,5.39a4.61,4.61,0,0,0,3.93,2.05,4.36,4.36,0,0,0,3.19-1.62A59.07,59.07,0,0,0,32.08,27c.16-.23.31-.48.49-.69s.28-.67.64-.54.16.5.16.77Z"/></g></svg>