<svg id="Capa_1" data-name="Capa 1" xmlns="http://www.w3.org/2000/svg" viewBox="0 0 50 50"><defs><style>.cls-1{fill:#fff;}</style></defs><g id="pulido"><path class="cls-1" d="M6.08,44.88A2.35,2.35,0,0,1,4.22,43.8c-.94-1.45-1.87-2.91-2.77-4.39A2.49,2.49,0,0,1,2.28,36c1.83-1.16,3.65-2.3,5.48-3.44L14,28.59l6.66-4.16,2.58-1.64c.08,0,.16-.14.25-.08s.06.18,0,.28a14.68,14.68,0,0,0,.58,7.35c.09.27.18.55.28.82s.32.42.65.24l1.55-.89,1.1-.65c.17-.1.26-.05.33.11.16.35.31.7.49,1a.27.27,0,0,1-.11.43c-.65.4-1.3.8-1.94,1.21L22,35.47l-9,5.62L7.83,44.37A3,3,0,0,1,6.08,44.88ZM20.23,28a1.15,1.15,0,0,0-.29-.57c-.14-.22-.3-.25-.54-.1-2.16,1.4-4.33,2.8-6.49,4.18a.35.35,0,0,0-.13.57l.21.3a.33.33,0,0,0,.54.11c.86-.56,1.72-1.1,2.58-1.65l3.9-2.5A.36.36,0,0,0,20.23,28Z"/><path class="cls-1" d="M38.7,10.81A13.88,13.88,0,0,1,45,12.2a14.58,14.58,0,0,1,4.84,3.69c.22.26.21.31-.09.48-1.78,1-3.55,2.05-5.32,3.09a.58.58,0,0,1-.78,0A7.69,7.69,0,0,0,36,18.13a7.45,7.45,0,0,0-3.85,3.06,7.88,7.88,0,0,0-1.29,4.23A8.31,8.31,0,0,0,31,26.83a.45.45,0,0,1-.26.55c-.82.46-1.63.94-2.44,1.4-1,.57-2,1.15-3,1.71-.37.21-.38.19-.51-.2a14.77,14.77,0,0,1,7.34-18,14,14,0,0,1,5-1.46C37.67,10.82,38.18,10.82,38.7,10.81Z"/><path class="cls-1" d="M38.63,36a10,10,0,0,1-4.84-1.21,10.21,10.21,0,0,1-4.66-5c-.27-.59-.26-.59.31-.91l1.88-1.08c.41-.24.43-.33.34-.8a7.2,7.2,0,0,1,11.9-6.81c.31.28.4.29.76.09L46.57,19a.28.28,0,0,1,.44.08A10.78,10.78,0,0,1,49.1,24a10.58,10.58,0,0,1-4.59,10.28A10.23,10.23,0,0,1,38.63,36Zm.06-14.82a4.34,4.34,0,1,0,4.36,4.34A4.29,4.29,0,0,0,38.69,21.16Z"/><path class="cls-1" d="M12.16,43.31a.69.69,0,0,1,.35-.65q2.33-1.47,4.67-2.92l3.92-2.48L26.29,34c.87-.55,1.75-1.09,2.61-1.65.25-.16.4-.16.58.11a10.15,10.15,0,0,0,1.42,1.58c.15.14.15.21,0,.32l-4.56,2.86-3.88,2.44L18.2,42.34l-4.08,2.57a.78.78,0,0,1-1.27-.27c-.18-.29-.37-.58-.54-.87A.76.76,0,0,1,12.16,43.31Z"/><path class="cls-1" d="M23.07,4.88a1,1,0,0,1,.84.43L25.46,7.2l4,4.88.39.47c.13.16.14.28-.05.41a15.22,15.22,0,0,0-2.57,2.31c-.16.19-.27.18-.43,0-.65-.82-1.33-1.62-2-2.44q-2-2.45-4-4.91a1,1,0,0,1,.11-1.56c.51-.44,1.05-.86,1.58-1.28A.81.81,0,0,1,23.07,4.88Z"/><path class="cls-1" d="M3.32,43.51c0,.36-1,1-1.37.9a.69.69,0,0,1-.29-.27L.09,41.66A.42.42,0,0,1,.21,41,5.71,5.71,0,0,1,1,40.53a.48.48,0,0,1,.66.22c.2.28.38.57.56.85.34.53.67,1.07,1,1.6A.74.74,0,0,1,3.32,43.51Z"/></g></svg>