<svg id="Capa_1" data-name="Capa 1" xmlns="http://www.w3.org/2000/svg" viewBox="0 0 50 50"><defs><style>.cls-1{fill:#fff;}</style></defs><path class="cls-1" d="M22.06,50a5.33,5.33,0,0,1-3-1.85,4.73,4.73,0,0,1-1.1-3c0-7.94,0-15.87,0-23.81,0-.4.14-.53.54-.53,7.12,0,14.25,0,21.37,0,.57,0,.53.34.53.7V38.87c0,2,0,3.93,0,5.9a5,5,0,0,1-2.91,4.79,9.23,9.23,0,0,1-1.18.44Zm1.59-15.42a5.53,5.53,0,0,0,6.18,5.67,5.45,5.45,0,0,0,4.7-6.56,12.52,12.52,0,0,0-2.43-4.93,6.19,6.19,0,0,0-1.73-1.69,1.7,1.7,0,0,0-2.52.67,12.13,12.13,0,0,1-1.36,2,28.4,28.4,0,0,0-1.95,2.43A5,5,0,0,0,23.65,34.58Z"/><path class="cls-1" d="M29.15,18.06H19.8a2,2,0,0,1-.34,0c-.22,0-.53.11-.63-.11s.19-.41.34-.59c.57-.66,1.15-1.32,1.74-2,1-1.08,1.93-2.15,2.88-3.24a1,1,0,0,1,.79-.36h9a.89.89,0,0,1,.73.3c1.58,1.74,3.18,3.47,4.76,5.21.18.19.52.4.39.66s-.47.1-.72.1Z"/><path class="cls-1" d="M29.08,8.93c-1.06,0-2.11,0-3.17,0-.41,0-.59-.1-.57-.55,0-.94,0-1.88,0-2.82A3.74,3.74,0,0,1,28.58,2a3.7,3.7,0,0,1,4.05,2.76,11,11,0,0,1,.16,2.81c0,1.39,0,1.39-1.38,1.39Z"/><path class="cls-1" d="M21.26,6.29a5.69,5.69,0,0,1-.63-.15c-.91-.3-1.81-.59-2.72-.91a1.52,1.52,0,1,1,1-2.87c1,.32,2,.66,3,1a1.44,1.44,0,0,1,.91,1.51,1.55,1.55,0,0,1-1.28,1.35Z"/><path class="cls-1" d="M11.21,0a1.78,1.78,0,0,1,.38.06c1,.33,2,.64,3,1a1.48,1.48,0,0,1,.45,2.58,1.37,1.37,0,0,1-1.37.27c-1.06-.33-2.13-.67-3.17-1.06a1.44,1.44,0,0,1-.88-1.7A1.5,1.5,0,0,1,11.21,0Z"/><path class="cls-1" d="M11.51,15.06A1.51,1.51,0,0,1,10,14a1.45,1.45,0,0,1,.73-1.69A29.34,29.34,0,0,1,14,10.91a1.5,1.5,0,0,1,1.25,2.67,23.36,23.36,0,0,1-3.54,1.47A.72.72,0,0,1,11.51,15.06Z"/><path class="cls-1" d="M21.24,7.89A1.54,1.54,0,0,1,22.75,9a1.41,1.41,0,0,1-.68,1.71,22.93,22.93,0,0,1-3.37,1.38A1.44,1.44,0,0,1,17,11.19a1.41,1.41,0,0,1,.47-1.78,22.13,22.13,0,0,1,3.59-1.5A.47.47,0,0,1,21.24,7.89Z"/><path class="cls-1" d="M12.69,5.94c.5,0,1,0,1.51,0a1.49,1.49,0,0,1,0,3q-1.53,0-3.06,0A1.47,1.47,0,0,1,9.68,7.46a1.5,1.5,0,0,1,1.46-1.52C11.65,5.93,12.17,5.94,12.69,5.94Z"/><path class="cls-1" d="M29.16,37.47a2.64,2.64,0,0,1-2.67-2.54A2.07,2.07,0,0,1,27,33.51c.79-1,1.63-2,2.44-3,.16-.2.29-.17.42,0a10.46,10.46,0,0,1,1.89,3.75A2.65,2.65,0,0,1,29.16,37.47Z"/></svg>