<svg id="Capa_1" data-name="Capa 1" xmlns="http://www.w3.org/2000/svg" viewBox="0 0 50 50"><defs><style>.cls-1{fill:#fff;}</style></defs><g id="tiktok"><path class="cls-1" d="M26.2,17.81V1.26C26.2,0,26.23,0,27.47,0H34c.57,0,.89.16,1,.81A12.13,12.13,0,0,0,46,11.94c.67.08.9.34.9,1,0,2.23,0,4.45,0,6.67,0,.82-.29,1-1.09,1a20.48,20.48,0,0,1-10-3.16c-.23-.14-.46-.48-.75-.27s-.11.49-.11.74c0,5.52,0,11,0,16.55a16.07,16.07,0,0,1-11.47,15c-8.56,2.56-19.12-3-20.24-13.51-.79-7.44,3-13.41,9.68-16.4a15.59,15.59,0,0,1,7.27-1.26c.8,0,1.12.34,1.1,1.16,0,2.25,0,4.51,0,6.76,0,.94-.14,1-1.09.88a7.1,7.1,0,0,0-8.2,5.6,7.36,7.36,0,0,0,5.41,8.56,7.28,7.28,0,0,0,8.85-6.9C26.17,28.78,26.2,23.29,26.2,17.81Z"/></g></svg>