<svg id="Capa_1" data-name="Capa 1" xmlns="http://www.w3.org/2000/svg" viewBox="0 0 50 50"><defs><style>.cls-1{fill:#fff;}</style></defs><g id="twitter"><path class="cls-1" d="M9.18,29.19a10.79,10.79,0,0,1-5.55-3.82,9.93,9.93,0,0,1-2-5.46c-.05-.92.09-1,.94-.64A9.83,9.83,0,0,0,5.46,20c0-.5-.38-.65-.61-.88A10.6,10.6,0,0,1,2.34,7.53c.06-.17.14-.33.21-.49.41-.81.6-.85,1.17-.16a26.18,26.18,0,0,0,4.93,4.53,28.53,28.53,0,0,0,12.76,5.3,19.32,19.32,0,0,0,2,.31c.77,0,1-.17.95-1A10.46,10.46,0,0,1,41.43,6.7a2.3,2.3,0,0,0,2.49.5A27.75,27.75,0,0,0,48,5.6c.22-.11.48-.37.72-.14s0,.5-.11.72a10.38,10.38,0,0,1-3,3.89c-.19.15-.49.23-.51.63a21.53,21.53,0,0,0,4-1c.26-.09.59-.36.8-.06s-.14.52-.32.75A22.36,22.36,0,0,1,46,14.06a1.69,1.69,0,0,0-.67,1.44c-.31,12-5.58,21.09-16,27a26.6,26.6,0,0,1-10.72,3A29.57,29.57,0,0,1,.77,41.87c-.12-.08-.26-.14-.37-.23s-.49-.23-.37-.52S.39,41,.59,41a21.18,21.18,0,0,0,13.22-3.61c.25-.17.72-.26.6-.65s-.52-.18-.8-.22a10,10,0,0,1-8-6c-.45-.93-.32-1,.67-1A5.86,5.86,0,0,0,9.18,29.19Z"/></g></svg>