<?xml version="1.0" encoding="utf-8"?>
<!-- Generator: Adobe Illustrator 25.2.1, SVG Export Plug-In . SVG Version: 6.00 Build 0)  -->
<svg version="1.1" id="Capa_1" xmlns="http://www.w3.org/2000/svg" xmlns:xlink="http://www.w3.org/1999/xlink" x="0px" y="0px"
	 viewBox="0 0 50 50" style="enable-background:new 0 0 50 50;" xml:space="preserve">
<style type="text/css">
	.st0{display:none;}
	.st1{display:inline;fill:#FFFFFF;}
	.st2{fill:#FFFFFF;}
</style>
<g id="fb" class="st0">
	<path class="st1" d="M19.5,39.1c0-3.3,0-6.5,0-9.8c0-1.1,0-1.1-1.1-1.1c-1.9,0-3.8,0-5.7,0c-0.8,0-1.1-0.2-1.1-1c0-2.4,0-4.7,0-7.1
		c0-0.7,0.3-1,1-1c2,0,4,0,6,0c0.7,0,1-0.2,1-1c0-2.6-0.2-5.2,0.1-7.8c0.3-2.4,1-4.6,2.6-6.5c1.7-2.1,4-3.2,6.6-3.6
		c3-0.5,6-0.2,9,0.3c0.5,0.1,0.7,0.3,0.7,0.7c0,2.1,0,4.3,0,6.4c0,0.6-0.3,0.7-0.8,0.7c-1.5,0-2.9-0.2-4.4,0.1
		c-2.3,0.5-3.7,2-3.8,4.4c-0.1,1.8,0,3.6,0,5.4c0,0.7,0.4,0.8,0.9,0.8c2.1,0,4.3,0,6.4,0c1.3,0,1.3,0,1.1,1.3
		c-0.3,2.3-0.7,4.6-1,6.9c-0.1,0.6-0.5,0.9-1.1,0.9c-1.6,0-3.3,0-4.9,0c-1.4,0-1.4,0-1.4,1.4c0,6.4,0,12.7,0,19.1
		c0,1.4,0,1.4-1.4,1.4c-2.4,0-4.7,0-7.1,0c-1.4,0-1.4,0-1.4-1.4C19.5,45.4,19.5,42.2,19.5,39.1z"/>
</g>
<g id="twitter" class="st0">
	<path class="st1" d="M9.2,29.2c-2.4-0.8-4.2-2-5.5-3.8c-1.2-1.6-1.9-3.4-2-5.5c0-0.9,0.1-1,0.9-0.6c0.9,0.4,1.9,0.7,2.9,0.8
		c0-0.5-0.4-0.7-0.6-0.9c-3.2-3.1-4.1-7.5-2.5-11.6C2.4,7.4,2.5,7.2,2.6,7C3,6.2,3.2,6.2,3.7,6.9c1.4,1.7,3.1,3.2,4.9,4.5
		c3.8,2.8,8.1,4.6,12.8,5.3c0.7,0.1,1.3,0.3,2,0.3c0.8,0,1-0.2,0.9-1C24,12.6,25,9.7,27.4,7.2c3.7-3.8,10-4,14-0.5
		c0.8,0.7,1.5,0.8,2.5,0.5c1.4-0.5,2.8-0.9,4.1-1.6c0.2-0.1,0.5-0.4,0.7-0.1c0.2,0.2,0,0.5-0.1,0.7C48,7.7,47,9,45.6,10.1
		c-0.2,0.2-0.5,0.2-0.5,0.6c1.4-0.2,2.7-0.6,4-1c0.3-0.1,0.6-0.4,0.8-0.1c0.2,0.3-0.1,0.5-0.3,0.7c-1.1,1.4-2.3,2.6-3.7,3.7
		c-0.5,0.4-0.7,0.8-0.7,1.4c-0.3,12-5.6,21.1-16,27c-3.3,1.9-7,2.7-10.7,3C12.2,46.2,6.3,45,0.8,41.9c-0.1-0.1-0.3-0.1-0.4-0.2
		c-0.2-0.1-0.5-0.2-0.4-0.5C0.1,40.9,0.4,41,0.6,41c4.8,0.2,9.2-0.8,13.2-3.6c0.2-0.2,0.7-0.3,0.6-0.6c-0.1-0.3-0.5-0.2-0.8-0.2
		c-3.8-0.5-6.4-2.6-8-6c-0.5-0.9-0.3-1,0.7-1C7.2,29.5,8.1,29.7,9.2,29.2z"/>
</g>
<g id="tiktok" class="st0">
	<path class="st1" d="M26.2,17.8c0-5.5,0-11,0-16.5c0-1.2,0-1.3,1.3-1.3c2.2,0,4.3,0,6.5,0c0.6,0,0.9,0.2,1,0.8
		c0.7,6.1,5,10.4,11.1,11.1c0.7,0.1,0.9,0.3,0.9,1c0,2.2,0,4.4,0,6.7c0,0.8-0.3,1-1.1,1c-3.6-0.2-7-1.2-10-3.2
		c-0.2-0.1-0.5-0.5-0.7-0.3c-0.2,0.2-0.1,0.5-0.1,0.7c0,5.5,0,11,0,16.5c0,6.8-4.9,13-11.5,15c-8.6,2.6-19.1-3-20.2-13.5
		c-0.8-7.4,3-13.4,9.7-16.4c2.3-1,4.7-1.4,7.3-1.3c0.8,0,1.1,0.3,1.1,1.2c0,2.3,0,4.5,0,6.8c0,0.9-0.1,1-1.1,0.9
		c-3.9-0.6-7.4,1.8-8.2,5.6c-0.8,3.8,1.7,7.8,5.4,8.6c4.9,1.1,8.9-2.9,8.8-6.9C26.2,28.8,26.2,23.3,26.2,17.8z"/>
</g>
<g id="position" class="st0">
	<path class="st1" d="M50,28.1c0,3.8,0,7.6,0,11.4c0,1.2-0.4,1.9-1.5,2.3c-3.8,1.5-7.6,3-11.4,4.6c-0.9,0.4-1.1,0.3-1.1-0.7
		c0-8.1,0-16.2,0-24.3c0-1.2,0.7-2,1.1-3c0.1-0.2,0.4-0.3,0.6-0.4c3-1.2,6-2.4,9-3.6c1.9-0.8,3.3,0.1,3.3,2.2
		C50,20.5,50,24.3,50,28.1z"/>
	<path class="st1" d="M0,33c0-3.8,0-7.5,0-11.3c0-1.5,0.4-2,1.7-2.6c3.1-1.3,6.2-2.5,9.4-3.7c0.9-0.4,0.9-0.3,1.1,0.6
		c0.3,1.4,0.8,2.7,1.5,4c0.3,0.5,0.4,1,0.4,1.6c0,6.6,0,13.2,0,19.8c0,0.8-0.3,1.2-1,1.4c-3.2,1.2-6.3,2.5-9.5,3.8
		c-0.5,0.2-1,0.5-1.6,0.4c-1.2-0.2-2-1.1-2-2.4C0,40.7,0,36.9,0,33z"/>
	<path class="st1" d="M25,3.1c5.7,0,10.4,4.5,10.5,10.2c0,1.9-0.6,3.6-1.4,5.2c-1.3,2.7-3,5.2-4.7,7.7c-1,1.3-1.9,2.7-3,3.9
		c-0.8,0.9-1.8,1-2.6,0c-3.2-4-6.2-8.1-8.3-12.9C12.4,10.5,17.8,3.1,25,3.1z M25,16.2c2,0,3.4-1.4,3.4-3.4c0-1.9-1.5-3.4-3.4-3.4
		c-1.9,0-3.4,1.5-3.4,3.4C21.6,14.8,23.1,16.2,25,16.2z"/>
	<path class="st1" d="M33.4,36.1c0,3.2,0,6.5,0,9.7c0,0.9-0.1,1-1,0.8c-5-1.4-10.1-2.9-15.1-4.3c-0.5-0.1-0.7-0.4-0.7-0.9
		c0-5.1,0-10.1,0-15.2c0-0.2-0.1-0.5,0.2-0.6c0.2,0,0.3,0.2,0.4,0.4c1.2,1.9,2.6,3.7,4,5.4c1,1.3,2.2,2.1,3.9,2
		c1.3-0.1,2.4-0.7,3.2-1.6c1.3-1.6,2.5-3.2,3.7-4.9c0.2-0.2,0.3-0.5,0.5-0.7c0.2-0.2,0.3-0.7,0.6-0.5c0.3,0.1,0.2,0.5,0.2,0.8
		C33.4,29.7,33.4,32.9,33.4,36.1z"/>
</g>
<g id="phone_office" class="st0">
	<path class="st1" d="M25,47.2c-6.8,0-13.6,0-20.4,0c-2.9,0-4.6-1.7-4.6-4.6C0,31.8,0,20.9,0,10c0-2.9,2.1-4.8,5-4.5
		c0.4,0,0.7,0.2,0.7,0.7c0,0.3,0,0.5,0,0.8c0,9.6,0,19.2,0,28.7c0,3,1.7,5.1,4.6,5.8c0.3,0.1,0.7,0.1,1.1,0.1c1.6,0,3.3,0,4.9,0
		c3.7,0,6-2.4,6-6c0-9.6,0-19.2,0-28.7c0-1.3,0-1.3,1.3-1.3c7.3,0,14.5,0,21.8,0c3.1,0,4.7,1.7,4.7,4.7c0,10.8,0,21.5,0,32.3
		c0,3-1.7,4.7-4.7,4.7C38.5,47.2,31.8,47.2,25,47.2z M36.1,19.4c2.5,0,5,0,7.5,0c0.6,0,0.8-0.1,0.8-0.8c0-2.2,0-4.5,0-6.7
		c0-0.6-0.2-0.8-0.8-0.8c-5,0-10,0-14.9,0c-0.6,0-0.9,0.2-0.8,0.9c0,2.2,0,4.3,0,6.5c0,0.8,0.3,1,1,0.9
		C31.2,19.4,33.7,19.4,36.1,19.4z M41.7,41.6C41.7,41.6,41.7,41.6,41.7,41.6c0.4,0,0.8,0,1.2,0c1,0,1.5-0.5,1.5-1.5
		c0-0.8,0-1.7,0-2.5c0-0.9-0.5-1.4-1.4-1.5c-0.9,0-1.7,0-2.6,0c-0.9,0-1.3,0.5-1.4,1.3c0,0.9,0,1.8,0,2.8c0,0.8,0.5,1.3,1.4,1.3
		C40.8,41.6,41.3,41.6,41.7,41.6z M44.4,27.8c0-0.3,0-0.7,0-1c0-1.3-0.5-1.7-1.7-1.7c-0.7,0-1.4,0-2.2,0c-1.1,0-1.6,0.5-1.6,1.6
		c0,0.8,0,1.6,0,2.4c0,1,0.4,1.5,1.4,1.5c0.8,0,1.6,0,2.5,0c1.1,0,1.5-0.5,1.5-1.6C44.4,28.5,44.4,28.2,44.4,27.8z M30.5,41.6
		C30.5,41.6,30.5,41.6,30.5,41.6c0.5,0,0.9,0,1.4,0c0.8,0,1.3-0.4,1.4-1.3c0.1-1,0.1-1.9,0-2.9c-0.1-0.8-0.5-1.2-1.4-1.3
		c-0.8,0-1.7,0-2.5,0c-1,0-1.5,0.5-1.5,1.5c0,0.8,0,1.5,0,2.3c0,1.1,0.5,1.6,1.7,1.6C29.8,41.6,30.2,41.6,30.5,41.6z M30.5,30.5
		C30.5,30.5,30.5,30.5,30.5,30.5c0.4,0,0.8,0,1.2,0c1.1-0.1,1.5-0.5,1.6-1.6c0-0.8,0-1.6,0-2.5c-0.1-1-0.5-1.4-1.5-1.4
		c-0.8,0-1.7,0-2.5,0c-0.9,0-1.4,0.5-1.4,1.5c0,0.8,0,1.5,0,2.3c0,1.2,0.5,1.7,1.7,1.7C29.9,30.5,30.2,30.5,30.5,30.5z"/>
	<path class="st1" d="M19.5,20.9c0,5,0,10,0,15c0,2-1,3-3,3c-1.8,0-3.5,0-5.3,0c-1.7,0-2.8-1.1-2.8-2.7c0-10.2,0-20.4,0-30.6
		c0-1.7,1.1-2.8,2.8-2.8c1.8,0,3.6,0,5.5,0c1.8,0,2.9,1.1,2.9,2.9C19.5,10.7,19.5,15.8,19.5,20.9z"/>
</g>
<g id="email" class="st0">
	<path class="st1" d="M25,49.9c-6.6,0-13.3,0-19.9,0C2,49.9,0,48,0,44.8c0-6.4,0-12.8,0-19.1c0-0.3-0.2-0.8,0.2-1
		c0.4-0.2,0.6,0.2,0.9,0.4c6.4,4.6,12.8,9.2,19.1,13.8c2.6,1.9,6.6,2.1,9.3,0.1c4-2.9,8-5.8,12-8.7c2.5-1.8,5.1-3.6,7.6-5.5
		c0.2-0.1,0.4-0.4,0.7-0.3c0.3,0.1,0.2,0.5,0.2,0.7c0,6.6,0,13.3,0,19.9c0,2.6-2.1,4.6-4.8,4.6C38.5,49.9,31.7,49.9,25,49.9z"/>
	<path class="st1" d="M25,9.4c-4.7,0-9.3,0-14,0c-1.5,0-1.5,0-1.5,1.5c0,5,0,10.1,0,15.1c0,0.3,0.2,0.8-0.2,1
		c-0.4,0.2-0.6-0.2-0.9-0.4c-2.5-1.8-5.1-3.7-7.6-5.5C0.2,20.8,0,20.4,0,19.7c0-1.7,0.6-3,1.9-4c0.7-0.5,1.3-1.1,2.1-1.6
		c0.6-0.4,0.8-0.9,0.7-1.5c0-1,0-2,0-3c0-2.9,1.9-4.9,4.9-4.9c2.1,0,4.3,0,6.4,0c0.7,0,1.3-0.2,1.8-0.6c1.2-1,2.4-1.9,3.7-2.7
		c2.4-1.7,4.7-1.6,7,0c1.2,0.9,2.5,1.8,3.7,2.7c0.6,0.4,1.1,0.6,1.8,0.6c2.1,0,4.2,0,6.3,0c2.9,0,4.9,2,4.9,4.9c0,1.1,0,2.3,0,3.4
		c0,0.5,0.1,0.8,0.5,1.1c0.7,0.5,1.5,1.1,2.2,1.7c1.3,1,2,2.4,2,4.1c0,0.5-0.2,0.9-0.6,1.2c-2.6,1.9-5.2,3.8-7.8,5.6
		c-0.2,0.2-0.5,0.5-0.8,0.3c-0.3-0.2-0.2-0.6-0.2-0.9c0-5.2,0-10.4,0-15.6c0-1.1,0-1.2-1.2-1.2C34.6,9.4,29.8,9.4,25,9.4z"/>
	<path class="st1" d="M25.1,15.6c2.5,0,5,0,7.4,0c1.2,0,1.8,0.5,1.8,1.5c0,0.9-0.6,1.6-1.8,1.7c-1.2,0-2.5,0-3.7,0
		c-3.5,0-7.1,0-10.6,0c-0.3,0-0.6,0-1,0c-1.1-0.1-1.6-0.8-1.6-1.7c0.1-0.9,0.6-1.4,1.7-1.4C19.9,15.6,22.5,15.6,25.1,15.6
		C25.1,15.6,25.1,15.6,25.1,15.6z"/>
	<path class="st1" d="M25,21.8c2.4,0,4.9,0,7.3,0c0.4,0,0.9,0,1.3,0.2c0.5,0.3,0.8,0.8,0.8,1.4c0,0.6-0.2,1-0.8,1.3
		c-0.4,0.2-0.9,0.3-1.3,0.3c-4.8,0-9.7,0-14.5,0c-0.8,0-1.5-0.1-1.9-0.9c-0.6-1.1,0.2-2.2,1.6-2.3C19.9,21.8,22.5,21.8,25,21.8z"/>
</g>
<g id="faros" class="st0">
	<path class="st1" d="M50,16.5c-0.2,1.3-0.3,2.6-0.6,3.9c-2.4,10.2-10.7,18-21,19.9c-1.4,0.2-2.8,0.4-4.3,0.4c-6.3,0-12.6,0-18.9,0
		c-3,0-5.2-2.2-5.1-5.1c0-6.9,2.4-12.8,7.1-17.8c4.2-4.5,9.4-7.2,15.5-8.1c2.6-0.4,5.3-0.2,7.9-0.2c0,0,0.1,0,0.2,0
		c-6.8,0.3-11.3,6.2-11.1,12c0.2,6.3,5.3,11.3,11.7,11.3c6.3,0,10.9-4.8,11.6-10.3c0.8-6.8-4.4-12.8-11-13.1c0.4,0,0.8,0,1.2,0
		c3.9,0,7.8,0,11.8,0c2.6,0,4.4,1.4,5.1,3.9c0,0.1,0,0.1,0.1,0.2C50,14.5,50,15.5,50,16.5z M12.9,22.7c-3.6,0-6.6,3-6.6,6.6
		c0,3.6,3,6.6,6.6,6.6c3.7-0.1,6.6-2.9,6.6-6.6C19.5,25.6,16.6,22.8,12.9,22.7z"/>
	<path class="st1" d="M22.6,21.1c0-4.8,3.8-8.6,8.6-8.6c4.8,0,8.6,3.8,8.6,8.6c0,4.8-3.8,8.6-8.6,8.6C26.5,29.7,22.6,25.9,22.6,21.1
		z M28.1,21.1c0-1.7,1.3-3.1,3-3.2c1.8,0,3.2,1.2,3.3,3c0,0.2,0,0.3,0.1,0.5c0.2,0.7,0.8,1.2,1.4,1.2c0.7,0,1.3-0.5,1.5-1.2
		c0.1-0.5,0-1.1-0.1-1.6C36.8,17,34,14.6,30.6,15c-2.6,0.3-5.5,2.5-5.5,6.2c0,3,2.1,5.5,5.1,6c0.4,0.1,0.8,0.1,1.2,0.1
		c0.8,0,1.5-0.7,1.5-1.5c0-0.8-0.7-1.5-1.6-1.5C29.4,24.2,28.1,22.8,28.1,21.1z"/>
	<path class="st1" d="M12.9,32.9c-2,0-3.5-1.6-3.5-3.6c0-2,1.6-3.5,3.6-3.5c2,0,3.5,1.6,3.5,3.5C16.5,31.3,14.9,32.9,12.9,32.9z"/>
</g>
<g id="parabrisas" class="st0">
	<path class="st1" d="M50,33.5c-0.2,0.6-0.4,1.3-0.8,1.8c-0.7,0.9-1.6,1.4-2.6,1.7c-4.6,1.3-9.2,2.3-14,2.9c-1,0.1-2.1,0.2-3.1,0.3
		c-0.3,0-0.5,0.1-0.8,0c0-0.2,0.2-0.3,0.3-0.5c3.1-3.1,6.3-6.3,9.4-9.4c0.4-0.4,0.7-0.9,0.5-1.5c-0.3-1-1.4-1.4-2.3-0.7
		c-0.2,0.1-0.3,0.3-0.4,0.4c-3.8,3.8-7.5,7.5-11.3,11.3c-0.4,0.4-0.7,0.5-1.2,0.5c-3.4-0.1-6.8-0.5-10.2-1c-0.2,0-0.5,0-0.5-0.2
		c-0.1-0.2,0.2-0.3,0.3-0.5c3-3,6-6.1,9.1-9.1c0.1-0.1,0.3-0.3,0.4-0.5c0.5-0.6,0.4-1.4-0.1-1.9c-0.5-0.5-1.3-0.5-1.9-0.1
		c-0.2,0.1-0.3,0.3-0.4,0.4c-3.5,3.5-7,7-10.5,10.5c-0.3,0.3-0.6,0.4-1,0.3C7,38,5.2,37.5,3.4,37c-2.6-0.8-3.9-3.2-3.2-5.8
		c1.7-6,3.4-12,5.1-18c0.5-1.9,1.7-3.1,3.6-3.6C9.3,9.6,9.7,9.6,10,9.6c4.3,0,8.6,0,12.9,0c0.7,0,0.7,0,0.7,0.7c0,0.8,0,1.7,0,2.5
		c0,0.4-0.1,0.5-0.5,0.5c-0.6,0-1.1,0-1.7,0c-0.9,0-1.6,0.6-1.6,1.4c0,0.8,0.7,1.4,1.6,1.4c2.4,0,4.8,0,7.2,0c0.9,0,1.6-0.6,1.6-1.4
		c0-0.8-0.7-1.4-1.6-1.4c-0.6,0-1.1,0-1.7,0c-0.4,0-0.5-0.1-0.5-0.5c0-0.9,0-1.8,0-2.6c0-0.4,0.1-0.6,0.6-0.6c2.5,0,4.9,0,7.4,0
		c2,0,3.9,0,5.9,0c2,0,3.7,1.2,4.3,3.2c0.7,2.2,1.3,4.5,1.9,6.7c1.1,3.9,2.2,7.8,3.4,11.8c0,0.1,0.1,0.3,0.1,0.4
		C50,32.3,50,32.9,50,33.5z"/>
</g>
<g id="pulido" class="st0">
	<path class="st1" d="M6.1,44.9c-0.7-0.1-1.4-0.3-1.9-1.1c-0.9-1.5-1.9-2.9-2.8-4.4c-0.7-1.2-0.4-2.7,0.8-3.4
		c1.8-1.2,3.7-2.3,5.5-3.4c2.1-1.3,4.2-2.6,6.3-3.9c2.2-1.4,4.4-2.8,6.7-4.2c0.9-0.5,1.7-1.1,2.6-1.6c0.1,0,0.2-0.1,0.2-0.1
		c0.1,0.1,0.1,0.2,0,0.3c-0.4,2.5-0.2,4.9,0.6,7.3c0.1,0.3,0.2,0.5,0.3,0.8c0.1,0.4,0.3,0.4,0.6,0.2c0.5-0.3,1-0.6,1.6-0.9
		c0.4-0.2,0.7-0.4,1.1-0.6c0.2-0.1,0.3-0.1,0.3,0.1c0.2,0.3,0.3,0.7,0.5,1c0.1,0.2,0.1,0.3-0.1,0.4c-0.6,0.4-1.3,0.8-1.9,1.2
		c-1.5,0.9-3,1.9-4.5,2.8c-3,1.9-6,3.7-9,5.6c-1.7,1.1-3.5,2.2-5.2,3.3C7.4,44.7,6.8,44.9,6.1,44.9z M20.2,28c0-0.2-0.2-0.4-0.3-0.6
		c-0.1-0.2-0.3-0.3-0.5-0.1c-2.2,1.4-4.3,2.8-6.5,4.2c-0.3,0.2-0.3,0.3-0.1,0.6c0.1,0.1,0.1,0.2,0.2,0.3c0.1,0.2,0.3,0.3,0.5,0.1
		c0.9-0.6,1.7-1.1,2.6-1.6c1.3-0.8,2.6-1.7,3.9-2.5C20.1,28.3,20.2,28.2,20.2,28z"/>
	<path class="st1" d="M38.7,10.8c2.2-0.1,4.3,0.5,6.3,1.4c1.9,0.9,3.5,2.1,4.8,3.7c0.2,0.3,0.2,0.3-0.1,0.5c-1.8,1-3.6,2-5.3,3.1
		c-0.3,0.2-0.5,0.2-0.8,0c-2.3-1.8-4.9-2.2-7.7-1.3c-1.6,0.6-2.9,1.6-3.9,3.1c-0.8,1.3-1.2,2.7-1.3,4.2c0,0.5,0.1,0.9,0.1,1.4
		c0,0.3,0,0.4-0.3,0.5c-0.8,0.5-1.6,0.9-2.4,1.4c-1,0.6-2,1.1-3,1.7c-0.4,0.2-0.4,0.2-0.5-0.2c-0.6-1.8-0.9-3.6-0.8-5.5
		c0.1-2.6,0.9-5,2.3-7.2c1.5-2.3,3.4-4.1,5.9-5.3c1.6-0.8,3.2-1.3,5-1.5C37.7,10.8,38.2,10.8,38.7,10.8z"/>
	<path class="st1" d="M38.6,36c-1.7,0-3.3-0.4-4.8-1.2c-2.1-1.1-3.7-2.8-4.7-5c-0.3-0.6-0.3-0.6,0.3-0.9c0.6-0.4,1.3-0.7,1.9-1.1
		c0.4-0.2,0.4-0.3,0.3-0.8c-0.4-2.2,0-4.2,1.4-6c1.6-2,3.7-2.9,6.2-2.7c1.7,0.1,3.1,0.8,4.3,1.9c0.3,0.3,0.4,0.3,0.8,0.1
		c0.7-0.4,1.5-0.9,2.3-1.3c0.2-0.1,0.3-0.1,0.4,0.1c1.1,1.5,1.8,3.1,2.1,4.9c0.3,1.9,0,3.8-0.7,5.6c-0.8,1.9-2.1,3.5-3.9,4.6
		C42.7,35.4,40.8,36,38.6,36z M38.7,21.2c-2.3-0.1-4.4,1.9-4.3,4.3c0,2.4,1.9,4.3,4.4,4.4c2.3,0,4.3-1.8,4.3-4.3
		C43.1,23,41.1,21.1,38.7,21.2z"/>
	<path class="st1" d="M12.2,43.3c0-0.3,0.1-0.5,0.3-0.7c1.6-1,3.1-1.9,4.7-2.9c1.3-0.8,2.6-1.7,3.9-2.5c1.7-1.1,3.5-2.2,5.2-3.3
		c0.9-0.5,1.7-1.1,2.6-1.7c0.2-0.2,0.4-0.2,0.6,0.1c0.4,0.6,0.9,1.1,1.4,1.6c0.1,0.1,0.1,0.2,0,0.3c-1.5,1-3,1.9-4.6,2.9
		c-1.3,0.8-2.6,1.6-3.9,2.4c-1.4,0.9-2.8,1.8-4.2,2.7c-1.4,0.9-2.7,1.7-4.1,2.6c-0.6,0.3-0.9,0.3-1.3-0.3c-0.2-0.3-0.4-0.6-0.5-0.9
		C12.2,43.6,12.1,43.5,12.2,43.3z"/>
	<path class="st1" d="M23.1,4.9c0.4,0,0.6,0.2,0.8,0.4c0.5,0.6,1,1.3,1.5,1.9c1.3,1.6,2.7,3.3,4,4.9c0.1,0.2,0.3,0.3,0.4,0.5
		c0.1,0.2,0.1,0.3,0,0.4c-0.9,0.7-1.8,1.4-2.6,2.3c-0.2,0.2-0.3,0.2-0.4,0c-0.7-0.8-1.3-1.6-2-2.4c-1.3-1.6-2.7-3.3-4-4.9
		c-0.4-0.5-0.4-1.1,0.1-1.6c0.5-0.4,1.1-0.9,1.6-1.3C22.7,4.9,22.9,4.9,23.1,4.9z"/>
	<path class="st1" d="M3.3,43.5c0,0.4-1,1-1.4,0.9c-0.1-0.1-0.2-0.2-0.3-0.3c-0.5-0.8-1-1.7-1.6-2.5C-0.1,41.4,0,41.2,0.2,41
		c0.2-0.2,0.5-0.4,0.8-0.5c0.3-0.1,0.5,0,0.7,0.2C1.8,41,2,41.3,2.2,41.6c0.3,0.5,0.7,1.1,1,1.6C3.3,43.3,3.3,43.4,3.3,43.5z"/>
</g>
<g id="repelente" class="st0">
	<path class="st1" d="M22.1,50c-1.2-0.3-2.2-0.9-3-1.9c-0.7-0.9-1.1-1.9-1.1-3c0-7.9,0-15.9,0-23.8c0-0.4,0.1-0.5,0.5-0.5
		c7.1,0,14.2,0,21.4,0c0.6,0,0.5,0.3,0.5,0.7c0,5.8,0,11.6,0,17.3c0,2,0,3.9,0,5.9c0,2.2-1,3.8-2.9,4.8c-0.4,0.2-0.8,0.3-1.2,0.4
		C31.5,50,26.8,50,22.1,50z M23.6,34.6c0,3.5,2.9,6.1,6.2,5.7c3.2-0.4,5.4-3.4,4.7-6.6c-0.4-1.8-1.3-3.4-2.4-4.9
		c-0.5-0.7-1-1.3-1.7-1.7c-1-0.6-2-0.3-2.5,0.7c-0.4,0.7-0.8,1.3-1.4,1.9c-0.7,0.8-1.4,1.6-1.9,2.4C24,33,23.7,33.9,23.6,34.6z"/>
	<path class="st1" d="M29.2,18.1c-3.1,0-6.2,0-9.4,0c-0.1,0-0.2,0-0.3,0c-0.2,0-0.5,0.1-0.6-0.1c-0.1-0.2,0.2-0.4,0.3-0.6
		c0.6-0.7,1.2-1.3,1.7-2c1-1.1,1.9-2.2,2.9-3.2c0.2-0.3,0.5-0.4,0.8-0.4c3,0,6,0,9,0c0.3,0,0.5,0.1,0.7,0.3c1.6,1.7,3.2,3.5,4.8,5.2
		c0.2,0.2,0.5,0.4,0.4,0.7c-0.1,0.2-0.5,0.1-0.7,0.1C35.6,18.1,32.4,18.1,29.2,18.1z"/>
	<path class="st1" d="M29.1,8.9c-1.1,0-2.1,0-3.2,0c-0.4,0-0.6-0.1-0.6-0.5c0-0.9,0-1.9,0-2.8c0.1-1.8,1.5-3.4,3.2-3.6
		c1.9-0.2,3.6,0.9,4.1,2.8c0.2,0.9,0.1,1.9,0.2,2.8c0,1.4,0,1.4-1.4,1.4C30.6,8.9,29.9,8.9,29.1,8.9z"/>
	<path class="st1" d="M21.3,6.3c-0.2,0-0.4-0.1-0.6-0.2c-0.9-0.3-1.8-0.6-2.7-0.9c-0.9-0.3-1.3-1.1-1.1-1.9c0.3-0.9,1.1-1.3,2-1
		c1,0.3,2,0.7,3,1c0.6,0.2,1,0.9,0.9,1.5c-0.1,0.7-0.6,1.2-1.3,1.3C21.5,6.3,21.4,6.3,21.3,6.3z"/>
	<path class="st1" d="M11.2,0c0.1,0,0.2,0,0.4,0.1c1,0.3,2,0.6,3,1c1.2,0.4,1.4,1.8,0.5,2.6c-0.4,0.3-0.9,0.4-1.4,0.3
		c-1.1-0.3-2.1-0.7-3.2-1.1c-0.7-0.3-1-1-0.9-1.7C9.8,0.5,10.4,0,11.2,0z"/>
	<path class="st1" d="M11.5,15.1c-0.7,0-1.3-0.4-1.5-1.1c-0.2-0.7,0.1-1.4,0.7-1.7c1.1-0.5,2.2-1,3.3-1.3c0.7-0.2,1.4,0.1,1.7,0.8
		c0.3,0.7,0.2,1.5-0.5,1.9c-1.1,0.6-2.3,1.1-3.5,1.5C11.6,15.1,11.6,15.1,11.5,15.1z"/>
	<path class="st1" d="M21.2,7.9c0.7,0,1.3,0.4,1.5,1.1c0.2,0.7-0.1,1.4-0.7,1.7c-1.1,0.5-2.2,1-3.4,1.4c-0.7,0.2-1.4-0.2-1.7-0.9
		c-0.3-0.6-0.1-1.5,0.5-1.8c1.1-0.6,2.4-1.1,3.6-1.5C21.1,7.9,21.2,7.9,21.2,7.9z"/>
	<path class="st1" d="M12.7,5.9c0.5,0,1,0,1.5,0c0.8,0,1.4,0.7,1.5,1.5c0,0.8-0.6,1.5-1.5,1.5c-1,0-2,0-3.1,0
		c-0.8,0-1.4-0.7-1.5-1.5c0-0.8,0.6-1.5,1.5-1.5C11.7,5.9,12.2,5.9,12.7,5.9z"/>
	<path class="st1" d="M29.2,37.5c-1.5,0-2.6-1.1-2.7-2.5c0-0.6,0.2-1,0.5-1.4c0.8-1,1.6-2,2.4-3c0.2-0.2,0.3-0.2,0.4,0
		c0.8,1.2,1.6,2.3,1.9,3.7C32.1,35.9,30.9,37.5,29.2,37.5z"/>
</g>
<g id="menu" class="st0">
	<path class="st1" d="M25,21.4c6.8,0,13.6,0,20.5,0c0.7,0,1.3,0,2,0.2c1.7,0.5,2.7,1.9,2.5,3.7c-0.1,1.7-1.3,3-3,3.3
		c-0.8,0.1-1.7,0.2-2.6,0.2c-13,0-26,0-38.9,0c-0.8,0-1.6-0.1-2.5-0.2c-1.9-0.3-3-1.7-2.9-3.7c0.1-1.8,1.3-3.2,3.1-3.4
		c0.5-0.1,1,0,1.5,0C11.4,21.4,18.2,21.4,25,21.4z"/>
	<path class="st1" d="M25,10.8c-7.1,0-14.2,0-21.2,0c-1.4,0-2.5-0.5-3.2-1.7c-0.7-1.3-0.7-2.6,0.1-3.9C1.2,4.2,2,3.9,3,3.7
		c0.4-0.1,0.7-0.1,1.1-0.1c14,0,27.9,0,41.9,0c1.4,0,2.6,0.3,3.4,1.6c0.8,1.3,0.8,2.6,0.1,3.9c-0.7,1.3-1.9,1.7-3.2,1.7
		C39.2,10.8,32.1,10.8,25,10.8z"/>
	<path class="st1" d="M24.9,46.4c-7.1,0-14.2,0-21.2,0c-2.9,0-4.6-3-3.1-5.6c0.7-1.1,1.7-1.6,3-1.6c3.2,0,6.5,0,9.7,0
		c11,0,22,0,33,0c2.9,0,4.7,2.8,3.3,5.4c-0.7,1.3-1.8,1.8-3.3,1.8C39.2,46.4,32,46.4,24.9,46.4z"/>
</g>
<g id="wz">
	<path class="st2" d="M21,0.3C4.8,3-4.4,20.3,2.5,35.3c0.3,0.6,0.4,1.1,0.2,1.7c-0.8,3.8-1.6,7.5-2.3,11.3c-0.3,1.5,0.1,1.9,1.6,1.6
		c3.6-0.9,7.2-1.7,10.8-2.6c0.7-0.2,1.4-0.1,2.1,0.2c4.3,1.9,8.8,2.6,13.4,1.9c12.3-1.7,21.5-12.1,21.5-24.7c0-0.9,0-1.9-0.2-2.9
		C48,7.9,34.9-2,21,0.3z M27.3,44.2c-0.8,0.1-1.5,0.1-2.3,0.1c-3.3,0-6.3-0.8-9.2-2.3c-0.8-0.4-1.6-0.6-2.5-0.3
		c-1.8,0.5-3.7,0.9-5.6,1.3c-0.8,0.2-0.9,0.1-0.7-0.7c0.4-1.9,0.7-3.8,1.2-5.7c0.2-0.9,0.1-1.7-0.3-2.5c-1.4-2.5-2.2-5.2-2.3-8.1
		c-0.3-4.8,1-9.1,3.9-12.9c3.9-5.2,9.2-7.8,15.7-7.8c10.3-0.1,18.8,8.1,19.4,18.3C45.2,34.1,37.4,43.1,27.3,44.2z"/>
	<path class="st2" d="M36.8,30.2c-1.2-0.4-2.4-0.6-3.5-1c-1.4-0.5-2.5-0.3-3.5,0.9c-1.1,1.3-1.9,1.3-3.4,0.4c-2.6-1.6-4.8-3.6-6.8-6
		c-1.1-1.4-1.1-2.1,0-3.5c0.2-0.3,0.5-0.6,0.6-0.9c0.3-0.5,0.4-1,0.2-1.6c-0.7-1.6-1.4-3.2-2.1-4.7c-0.4-0.9-1.6-1.3-2.3-0.7
		c-1.6,1.2-3,2.6-3.3,4.7c-0.4,2.1,0.1,4.1,1.1,5.9c2.9,5.4,7.2,9.2,12.6,11.9c1.6,0.8,3.4,1.1,5.1,1.2c3,0.2,4.9-1.4,6.4-3.7
		C38.7,31.8,38.3,30.7,36.8,30.2z"/>
</g>
</svg>
